<svg width="314" height="219" viewBox="0 0 314 219" fill="none" xmlns="http://www.w3.org/2000/svg">
<path d="M97.5778 125.232L96.6053 121.793L99.6872 120.921C101.426 120.43 102.442 118.615 101.95 116.875C101.458 115.136 99.6449 114.121 97.9037 114.613L94.8599 115.474L93.8862 112.034L96.9312 111.172C100.571 110.145 104.363 112.268 105.391 115.903C106.418 119.54 104.296 123.333 100.66 124.361L97.5778 125.232Z" fill="url(#paint0_linear)"/>
<path d="M138.975 96.1436C133.331 100.141 127.577 103.955 121.628 107.277C118.658 108.925 112.165 112.578 108.162 113.337C106.914 113.573 105.104 113.611 104.053 113.47V113.472C103.434 114.229 103.171 118.007 105.322 119.445C105.57 119.459 105.815 119.47 106.055 119.472C107.154 119.48 108.184 119.374 109.179 119.222C111.162 118.909 113.001 118.4 114.783 117.82C118.339 116.645 121.666 115.17 124.915 113.594C131.396 110.42 137.551 106.796 143.563 103.009L138.975 96.1436Z" fill="url(#paint1_linear)"/>
<path d="M111.294 119.105C111.256 119.105 111.219 119.098 111.182 119.084C110.259 118.71 109.597 118.036 109.214 117.081C108.653 115.682 108.832 113.9 109.299 112.864C109.366 112.713 109.542 112.645 109.693 112.714C109.843 112.781 109.91 112.958 109.842 113.108C109.437 114.008 109.273 115.628 109.767 116.86C110.088 117.659 110.639 118.221 111.405 118.532C111.558 118.594 111.631 118.768 111.57 118.92C111.523 119.035 111.411 119.105 111.294 119.105Z" fill="#00CFFF"/>
<path d="M117.363 117.199C117.307 117.199 117.249 117.183 117.199 117.149C115.987 116.343 115.22 115.057 115.039 113.526C114.878 112.163 115.207 110.735 115.84 110.055C115.951 109.934 116.14 109.927 116.261 110.04C116.381 110.152 116.388 110.34 116.276 110.46C115.847 110.923 115.475 112.131 115.631 113.457C115.744 114.414 116.165 115.747 117.529 116.654C117.666 116.744 117.703 116.929 117.612 117.066C117.554 117.153 117.46 117.199 117.363 117.199Z" fill="#00CFFF"/>
<path d="M174.385 105.958L197.867 88.3342C197.629 87.1746 197.272 86.2134 196.809 85.4215C195.25 82.7555 192.482 82.0029 188.929 82.0029H160.45C155.843 82.0029 155.857 82.8222 148.066 87.7836L124.02 103.919L174.385 105.958Z" fill="url(#paint2_linear)"/>
<path d="M195.736 84.0528L195.735 84.048L169.041 105.392L175.893 120.885L199.642 96.4533L197.867 88.3343C197.468 86.3982 196.739 85.0199 195.736 84.0528Z" fill="url(#paint3_linear)"/>
<path d="M195.576 97.3204C194.153 93.9912 190.302 92.4454 186.973 93.8678L186.15 94.2188C182.822 95.6412 181.276 99.493 182.698 102.822L185.981 110.506L196.559 99.6235L195.576 97.3204Z" fill="url(#paint4_linear)"/>
<path d="M175.894 120.885V110.742C175.894 106.135 172.159 102.4 167.551 102.4H128.819C124.211 102.4 120.476 106.135 120.476 110.742V120.885H175.894Z" fill="url(#paint5_linear)"/>
<path d="M140.886 114.131H156.777C161.384 114.131 165.119 110.396 165.119 105.789V102.4H132.543V105.789C132.543 110.396 136.278 114.131 140.886 114.131Z" fill="url(#paint6_linear)"/>
<path d="M185.89 55.2625C185.514 54.7357 185.177 54.2685 184.899 53.8925C180.55 47.9998 177.831 43.903 175.448 41.6685C173.16 39.5233 170.358 39.4464 169.042 39.4464H154.517C152.134 39.4464 151.426 41.7799 152.01 43.1701L159.25 55.2619H185.89V55.2625Z" fill="url(#paint7_linear)"/>
<path d="M137.306 59.1531C140.687 56.9262 156.601 51.7187 177.533 53.0529C195.459 54.1953 201.839 60.4366 202.858 63.3821C203.752 65.9647 203.305 68.5961 201.82 70.4571C200.286 72.3794 191.728 80.7493 184.879 83.2384C178.03 85.7274 190.643 72.0213 186.273 66.8573C181.903 61.6934 176.247 56.6849 156.776 57.919C137.306 59.1531 137.306 59.1531 137.306 59.1531Z" fill="url(#paint8_linear)"/>
<path d="M184.537 53.8354C182.424 53.4874 180.101 53.2163 177.533 53.053C170.425 52.6001 163.897 52.9028 158.241 53.5857L151.414 57.2248L159.717 57.7796C165.045 57.6032 169.232 57.9411 172.591 58.6395L176.689 58.913L184.537 53.8354Z" fill="url(#paint9_linear)"/>
<path d="M146.008 81.5562C146.372 86.9806 150.876 91.2698 156.392 91.2698H176.238C181.754 91.2698 186.257 86.9806 186.621 81.5562H146.008Z" fill="url(#paint10_linear)"/>
<path d="M189.948 75.5478C187.961 81.5567 185.365 83.4928 182.35 84.3371C177.385 85.7274 172.022 86.0754 160.602 86.0754C151.277 86.0754 141.184 83.7413 141.184 83.7413C134.133 82.0531 133.102 79.6195 131.75 73.9091C131.75 73.9091 131.281 71.0369 131.154 69.5948C130.458 61.6933 134.813 59.8115 140.192 58.1681C145.555 56.5294 149.626 55.5861 159.658 55.536C170.979 55.4794 181.308 58.6144 181.308 58.6144C187.397 60.812 190.448 63.1235 190.777 68.7487C190.891 70.7306 190.458 74.0068 189.948 75.5478Z" fill="url(#paint11_linear)"/>
<path d="M137.162 64.2008C138.995 62.8982 148.434 59.7078 160.948 59.8068C173.462 59.9057 183.592 62.934 185.081 66.3109C186.571 69.6878 184.468 77.1954 182.482 79.1815C180.496 81.1676 172.17 82.45 161.742 82.0031C151.314 81.5561 139.928 79.9377 138.006 77.4844C135.672 74.505 134.331 66.212 137.162 64.2008Z" fill="url(#paint12_linear)"/>
<path d="M201.821 70.4572C203.306 68.5962 203.753 65.9648 202.859 63.3822C202.667 62.8274 202.285 62.1564 201.672 61.4253C197.432 62.3918 194.263 66.1793 194.263 70.7134V75.2821C194.263 75.9864 194.345 76.6705 194.49 77.3308C198.074 74.4544 200.987 71.5024 201.821 70.4572Z" fill="url(#paint13_linear)"/>
<path d="M162.488 78.5279C159.925 78.5279 157.714 79.821 156.654 81.6951C158.346 81.8274 160.056 81.931 161.743 82.0031C164.126 82.1056 166.396 82.1158 168.508 82.0496C167.539 79.9843 165.21 78.5279 162.488 78.5279Z" fill="white"/>
<path d="M153.597 70.2576L151.911 68.5724L149.228 71.2563L146.545 68.5724L144.859 70.2576L147.543 72.9415L144.859 75.6248L146.545 77.31L149.228 74.6267L151.911 77.31L153.597 75.6248L150.913 72.9415L153.597 70.2576Z" fill="url(#paint14_linear)"/>
<path d="M151.912 77.6079C151.836 77.6079 151.759 77.5787 151.701 77.5209L149.228 75.0486L146.755 77.5209C146.639 77.6371 146.45 77.6371 146.334 77.5209L144.649 75.8357C144.593 75.7797 144.562 75.704 144.562 75.6248C144.562 75.5455 144.593 75.4698 144.649 75.4138L147.122 72.9415L144.649 70.4685C144.532 70.3523 144.532 70.1634 144.649 70.0472L146.334 68.3621C146.446 68.25 146.644 68.25 146.755 68.3621L149.228 70.835L151.701 68.3621C151.813 68.25 152.011 68.25 152.122 68.3621L153.807 70.0472C153.924 70.1634 153.924 70.3523 153.807 70.4685L151.335 72.9415L153.807 75.4138C153.864 75.4698 153.894 75.5455 153.894 75.6248C153.894 75.704 153.863 75.7797 153.807 75.8357L152.122 77.5209C152.065 77.5787 151.988 77.6079 151.912 77.6079ZM149.229 74.3287C149.305 74.3287 149.381 74.3579 149.44 74.4157L151.913 76.8881L153.176 75.6242L150.704 73.1518C150.587 73.0356 150.587 72.8467 150.704 72.7305L153.176 70.2576L151.913 68.9937L149.44 71.4666C149.328 71.5787 149.13 71.5787 149.018 71.4666L146.545 68.9937L145.282 70.2576L147.754 72.7305C147.81 72.7865 147.841 72.8622 147.841 72.9415C147.841 73.0207 147.81 73.0964 147.754 73.1524L145.282 75.6248L146.545 76.8887L149.018 74.4163C149.076 74.3579 149.152 74.3287 149.229 74.3287Z" fill="#7E59D1"/>
<path d="M179.966 71.2002L178.28 69.515L175.597 72.1989L172.914 69.515L171.228 71.2002L173.912 73.8841L171.228 76.5674L172.914 78.2526L175.597 75.5693L178.28 78.2526L179.966 76.5674L177.282 73.8841L179.966 71.2002Z" fill="url(#paint15_linear)"/>
<path d="M178.28 78.5505C178.204 78.5505 178.128 78.5213 178.069 78.4635L175.596 75.9912L173.123 78.4635C173.007 78.5797 172.818 78.5797 172.702 78.4635L171.017 76.7783C170.961 76.7223 170.93 76.6466 170.93 76.5674C170.93 76.4881 170.961 76.4124 171.017 76.3564L173.49 73.8841L171.017 71.4112C170.901 71.295 170.901 71.1061 171.017 70.9899L172.702 69.3047C172.814 69.1927 173.012 69.1927 173.123 69.3047L175.596 71.7776L178.069 69.3047C178.181 69.1927 178.379 69.1927 178.49 69.3047L180.176 70.9899C180.292 71.1061 180.292 71.295 180.176 71.4112L177.703 73.8841L180.176 76.3564C180.232 76.4124 180.263 76.4881 180.263 76.5674C180.263 76.6466 180.231 76.7223 180.176 76.7783L178.49 78.4635C178.433 78.5213 178.356 78.5505 178.28 78.5505ZM175.597 75.2713C175.673 75.2713 175.749 75.3005 175.808 75.3583L178.281 77.8307L179.545 76.5668L177.072 74.0944C176.955 73.9782 176.955 73.7893 177.072 73.6731L179.545 71.2002L178.281 69.9363L175.808 72.4093C175.696 72.5213 175.498 72.5213 175.387 72.4093L172.914 69.9363L171.65 71.2002L174.123 73.6731C174.179 73.7292 174.21 73.8048 174.21 73.8841C174.21 73.9633 174.178 74.039 174.123 74.095L171.65 76.5674L172.914 77.8313L175.387 75.3589C175.444 75.3005 175.521 75.2713 175.597 75.2713Z" fill="#7E59D1"/>
<path d="M184.761 53.7048C180.494 47.9145 177.805 43.8792 175.448 41.669C173.865 40.1859 172.038 39.6919 170.626 39.528L182.86 54.8156L184.761 53.7048Z" fill="#00CFFF"/>
<path d="M203.459 104.682C203.036 102.646 201.973 100.508 200.329 98.9105C198.697 97.2986 196.649 96.2689 194.571 95.7683C193.526 95.5151 192.46 95.387 191.361 95.39C190.81 95.3935 188.858 95.5801 188.562 95.645C188.553 95.6468 188.543 95.6516 188.534 95.6539C186.482 96.024 184.923 97.8158 184.923 99.9747C184.923 102.402 186.891 104.369 189.318 104.369C189.931 104.369 190.515 104.243 191.044 104.016C191.578 103.839 192.231 103.695 192.906 103.78C193.746 103.881 194.496 104.176 195.055 104.602C195.616 105.028 196.051 105.615 196.344 106.472C196.633 107.335 196.739 108.396 196.664 109.626C196.522 112.061 195.767 114.646 194.663 117.135C194.11 118.383 193.469 119.613 192.759 120.811C192.405 121.409 192.033 122.001 191.647 122.579L191.057 123.434C190.866 123.704 190.637 124.009 190.479 124.217L194.382 127.686C194.715 127.331 194.958 127.059 195.23 126.745C195.495 126.44 195.752 126.134 196.004 125.824C196.509 125.205 196.995 124.574 197.465 123.929C198.405 122.639 199.279 121.292 200.076 119.877C201.657 117.049 202.968 113.93 203.531 110.425C203.804 108.697 203.897 106.721 203.459 104.682Z" fill="url(#paint16_linear)"/>
<path d="M192.207 104.065C192.066 104.065 191.941 103.965 191.914 103.822C191.761 102.999 191.847 100.151 193.476 98.2533C194.473 97.0919 195.84 96.5347 197.549 96.5847C197.714 96.5901 197.843 96.7278 197.837 96.8923C197.832 97.0567 197.679 97.1693 197.53 97.1806C196.018 97.1312 194.802 97.6228 193.928 98.6412C192.458 100.353 192.366 102.995 192.5 103.712C192.53 103.874 192.423 104.03 192.262 104.06C192.243 104.064 192.225 104.065 192.207 104.065Z" fill="#00CFFF"/>
<path d="M196.457 107.158C196.429 107.158 196.401 107.154 196.374 107.146C196.216 107.1 196.125 106.935 196.171 106.776C196.475 105.727 197.98 104.304 199.736 103.859C200.801 103.588 202.365 103.564 203.766 104.981C203.882 105.098 203.881 105.286 203.764 105.402C203.647 105.518 203.458 105.516 203.343 105.4C202.14 104.183 200.798 104.205 199.883 104.436C198.348 104.826 196.996 106.07 196.743 106.943C196.705 107.073 196.586 107.158 196.457 107.158Z" fill="#00CFFF"/>
<path d="M202.285 115.433C202.157 115.433 202.039 115.35 202 115.222C201.687 114.211 201.025 113.493 200.032 113.089C198.661 112.53 196.956 112.738 196.302 113.095C196.156 113.173 195.976 113.119 195.898 112.976C195.819 112.831 195.873 112.65 196.017 112.571C196.762 112.165 198.626 111.873 200.257 112.537C201.407 113.004 202.206 113.873 202.569 115.047C202.618 115.204 202.53 115.371 202.373 115.419C202.343 115.429 202.314 115.433 202.285 115.433Z" fill="#00CFFF"/>
<path d="M199.544 121.518C199.421 121.518 199.306 121.442 199.263 121.32C198.697 119.724 197.622 119.069 196.82 118.8C195.611 118.394 194.455 118.636 194.132 118.849C193.995 118.939 193.809 118.901 193.719 118.764C193.629 118.626 193.667 118.441 193.805 118.351C194.287 118.033 195.642 117.776 197.01 118.235C197.937 118.545 199.178 119.299 199.824 121.121C199.879 121.276 199.798 121.446 199.643 121.502C199.61 121.513 199.576 121.518 199.544 121.518Z" fill="#00CFFF"/>
<path d="M197.481 136.283L193.955 135.696L194.527 132.258C194.691 131.276 194.462 130.289 193.884 129.481C193.305 128.671 192.446 128.135 191.465 127.972C189.441 127.636 187.517 129.008 187.179 131.035L186.614 134.431L183.087 133.844L183.653 130.448C184.314 126.477 188.08 123.783 192.053 124.446C193.976 124.767 195.659 125.817 196.793 127.403C197.927 128.99 198.374 130.922 198.054 132.846L197.481 136.283Z" fill="url(#paint17_linear)"/>
<path d="M118.418 85.6302L113.743 85.2228L118.074 80.9496L118.418 85.6302Z" fill="#F95FC3"/>
<path d="M101.897 99.9264C101.71 99.9264 101.536 99.8074 101.475 99.6204C99.1957 92.6553 103.696 88.3389 111.152 81.1868C112.692 79.7103 114.437 78.0365 116.241 76.2184C126.857 65.5175 124.784 54.651 123.896 51.5753C123.828 51.3399 123.964 51.0934 124.199 51.0254C124.436 50.9583 124.681 51.0934 124.749 51.3293C125.671 54.5222 127.829 65.7996 116.871 76.8438C115.06 78.6695 113.311 80.3477 111.767 81.8278C104.563 88.7383 100.214 92.9093 102.319 99.3436C102.396 99.5768 102.269 99.8278 102.035 99.9038C101.99 99.9193 101.943 99.9264 101.897 99.9264Z" fill="#1AA9E8"/>
<path d="M122.979 79.1417L121.403 77.5776C125.437 73.511 128.027 68.9819 129.101 64.1165L131.27 64.5954C130.104 69.8778 127.315 74.7721 122.979 79.1417Z" fill="#00E2EC"/>
<path d="M124.323 53.2108C125.294 53.2108 126.081 52.4236 126.081 51.4526C126.081 50.4816 125.294 49.6945 124.323 49.6945C123.352 49.6945 122.564 50.4816 122.564 51.4526C122.564 52.4236 123.352 53.2108 124.323 53.2108Z" fill="#FDE1A7"/>
<path d="M97.8982 101.703C97.8294 101.703 97.7588 101.687 97.693 101.652C97.5629 101.584 94.5112 99.9181 95.2388 94.8293C95.6506 91.9455 97.53 89.5198 99.52 86.9518C102.108 83.6123 104.783 80.1591 104.416 75.3812C104.273 73.5302 103.323 71.9035 101.592 70.5456C92.3177 63.2718 63.6853 65.2303 56.4106 66.4327C56.1649 66.4705 55.9397 66.3088 55.9002 66.0667C55.8597 65.8246 56.0237 65.5959 56.2657 65.5559C63.6258 64.3396 92.6318 62.3891 102.14 69.8464C104.075 71.3643 105.139 73.2037 105.301 75.3132C105.695 80.4327 102.788 84.1853 100.222 87.496C98.306 89.9684 96.4963 92.304 96.1183 94.955C95.4836 99.3948 98.0009 100.809 98.1079 100.867C98.3229 100.984 98.4051 101.252 98.29 101.468C98.2105 101.618 98.0568 101.703 97.8982 101.703Z" fill="#1AA9E8"/>
<path d="M90.1586 71.6217C85.9107 70.9234 80.8432 70.5649 75.0957 70.5569L75.0993 68.3359C80.9659 68.3444 86.1533 68.7122 90.5189 69.43L90.1586 71.6217Z" fill="#C7A0F6"/>
<path d="M56.3377 67.7523C57.3088 67.7523 58.0959 66.9651 58.0959 65.9941C58.0959 65.0231 57.3088 64.236 56.3377 64.236C55.3667 64.236 54.5796 65.0231 54.5796 65.9941C54.5796 66.9651 55.3667 67.7523 56.3377 67.7523Z" fill="#FDE1A7"/>
<path d="M16.465 155.559L14.857 159.969L11.8555 154.677L16.465 155.559Z" fill="#F95FC3"/>
<path d="M62.4836 192.416C62.1322 192.416 61.7822 192.413 61.4308 192.408C43.68 192.139 27.8797 185.235 16.9408 172.965C4.07443 158.533 -2.03292 140.242 0.602978 124.035C2.58235 111.867 9.29604 101.945 19.5078 96.0958C19.7206 95.9737 19.992 96.0474 20.1142 96.2606C20.2363 96.4738 20.1621 96.7448 19.9494 96.867C9.97434 102.58 3.41523 112.28 1.47983 124.178C-1.11387 140.123 4.91352 158.14 17.604 172.374C40.4613 198.012 82.0392 198.062 112.26 172.485C117.488 168.061 121.945 163.498 126.256 159.085C136.509 148.589 145.365 139.524 158.799 139.187C171.349 138.872 177.582 145.352 180.603 150.844C180.722 151.059 180.643 151.329 180.428 151.447C180.213 151.566 179.942 151.487 179.825 151.272C176.923 145.996 170.929 139.773 158.822 140.075C145.748 140.403 137.01 149.348 126.891 159.706C122.566 164.133 118.094 168.711 112.834 173.162C98.1367 185.602 80.2952 192.415 62.4836 192.416Z" fill="#1AA9E8"/>
<path d="M10.1855 150.654C8.10397 144.734 6.99612 138.75 6.89307 132.868L9.11364 132.829C9.21269 138.473 10.2783 144.222 12.2808 149.917L10.1855 150.654Z" fill="#C7A0F6"/>
<path d="M78.3728 187.09L77.8877 184.923C83.08 183.76 88.2176 182.012 93.1581 179.727L94.0905 181.743C89.0074 184.095 83.7192 185.894 78.3728 187.09Z" fill="#00E2EC"/>
<path d="M19.7289 98.24C20.6999 98.24 21.487 97.4528 21.487 96.4818C21.487 95.5108 20.6999 94.7237 19.7289 94.7237C18.7579 94.7237 17.9707 95.5108 17.9707 96.4818C17.9707 97.4528 18.7579 98.24 19.7289 98.24Z" fill="#FDE1A7"/>
<path d="M80.5594 152.745L75.9473 153.279L78.963 150.036L80.5594 152.745Z" fill="#00E2EC"/>
<path d="M46.6167 159.048C46.0037 159.048 45.4125 159.038 44.8479 159.018C44.6031 159.01 44.4157 158.881 44.4294 158.731C44.4436 158.581 44.6586 158.467 44.8981 158.474C53.4641 158.772 68.1952 156.856 73.666 150.371C76.1144 147.468 76.8012 143.306 77.5275 138.9C78.7321 131.597 79.9777 124.046 89.2269 120.548C89.4357 120.469 89.7088 120.509 89.8381 120.637C89.9665 120.765 89.9021 120.933 89.6928 121.012C80.8177 124.369 79.5943 131.784 78.4119 138.955C77.6763 143.414 76.9811 147.627 74.4549 150.622C69.1533 156.906 55.5509 159.048 46.6167 159.048Z" fill="#1AA9E8"/>
<path d="M82.0722 147.469L79.9111 147.154C80.8178 144.811 81.2602 142.125 81.7297 139.282C81.8616 138.482 81.9944 137.676 82.1393 136.871L84.3474 137.021C84.2035 137.822 84.0707 138.623 83.9396 139.419C83.463 142.309 83.0126 145.038 82.0722 147.469Z" fill="#F95FC3"/>
<path d="M44.8724 159.825C45.8434 159.825 46.6306 159.342 46.6306 158.746C46.6306 158.15 45.8434 157.667 44.8724 157.667C43.9014 157.667 43.1143 158.15 43.1143 158.746C43.1143 159.342 43.9014 159.825 44.8724 159.825Z" fill="#C7A0F6"/>
<path d="M177.81 36.7676L182.485 36.3603L178.154 32.087L177.81 36.7676Z" fill="#F95FC3"/>
<path d="M194.331 51.0638C194.518 51.0638 194.692 50.9448 194.753 50.7578C197.032 43.7927 192.532 39.4763 185.076 32.3242C183.536 30.8477 181.791 29.1739 179.987 27.3558C169.371 16.655 171.444 5.78842 172.333 2.71276C172.401 2.47733 172.265 2.2308 172.029 2.16283C171.792 2.09576 171.547 2.2308 171.479 2.46667C170.557 5.6596 168.4 16.937 179.357 27.9813C181.168 29.8069 182.917 31.4851 184.461 32.9652C191.666 39.8757 196.014 44.0468 193.909 50.481C193.832 50.7142 193.959 50.9652 194.193 51.0412C194.238 51.0567 194.285 51.0638 194.331 51.0638Z" fill="#1AA9E8"/>
<path d="M173.249 30.2791L174.825 28.7151C170.791 24.6484 168.201 20.1193 167.127 15.2539L164.958 15.7328C166.124 21.0153 168.913 25.9095 173.249 30.2791Z" fill="#00E2EC"/>
<path d="M171.905 4.34834C170.934 4.34834 170.147 3.56119 170.147 2.59018C170.147 1.61918 170.934 0.832031 171.905 0.832031C172.876 0.832031 173.664 1.61918 173.664 2.59018C173.664 3.56119 172.876 4.34834 171.905 4.34834Z" fill="#FDE1A7"/>
<path d="M198.329 52.8408C198.398 52.8408 198.469 52.8244 198.535 52.7897C198.665 52.7213 201.716 51.0555 200.989 45.9667C200.577 43.083 198.698 40.6572 196.708 38.0893C194.12 34.7497 191.444 31.2965 191.812 26.5186C191.954 24.6677 192.904 23.041 194.636 21.683C203.91 14.4092 232.542 16.3677 239.817 17.5702C240.063 17.6079 240.288 17.4462 240.327 17.2041C240.368 16.962 240.204 16.7333 239.962 16.6933C232.602 15.4771 203.596 13.5266 194.088 20.9839C192.152 22.5017 191.089 24.3412 190.926 26.4507C190.532 31.5701 193.44 35.3227 196.006 38.6334C197.922 41.1058 199.731 43.4415 200.109 46.0925C200.744 50.5323 198.227 51.9466 198.12 52.0048C197.905 52.1212 197.823 52.3895 197.938 52.6054C198.017 52.7551 198.171 52.8408 198.329 52.8408Z" fill="#1AA9E8"/>
<path d="M206.07 22.7594C210.318 22.0611 215.385 21.7026 221.133 21.6946L221.129 19.4736C215.263 19.4821 210.075 19.8499 205.71 20.5677L206.07 22.7594Z" fill="#C7A0F6"/>
<path d="M239.89 18.8899C238.919 18.8899 238.132 18.1028 238.132 17.1318C238.132 16.1607 238.919 15.3736 239.89 15.3736C240.861 15.3736 241.648 16.1607 241.648 17.1318C241.648 18.1028 240.861 18.8899 239.89 18.8899Z" fill="#FDE1A7"/>
<path d="M297.115 182.144L298.723 186.553L301.725 181.262L297.115 182.144Z" fill="#F95FC3"/>
<path d="M251.097 219C251.448 219 251.798 218.997 252.149 218.992C269.9 218.724 285.7 211.819 296.639 199.549C309.506 185.118 315.613 166.826 312.977 150.62C310.998 138.452 304.284 128.53 294.072 122.68C293.86 122.558 293.588 122.632 293.466 122.845C293.344 123.058 293.418 123.329 293.631 123.452C303.606 129.165 310.165 138.865 312.1 150.763C314.694 166.708 308.667 184.725 295.976 198.959C273.119 224.597 231.541 224.646 201.32 199.07C196.093 194.645 191.635 190.083 187.325 185.67C177.071 175.174 168.216 166.108 154.781 165.771C142.231 165.457 135.999 171.937 132.978 177.428C132.859 177.643 132.938 177.914 133.153 178.032C133.368 178.151 133.638 178.072 133.756 177.857C136.658 172.581 142.651 166.358 154.759 166.659C167.833 166.988 176.571 175.933 186.689 186.29C191.014 190.718 195.487 195.296 200.746 199.747C215.444 212.187 233.285 219 251.097 219Z" fill="#1AA9E8"/>
<path d="M303.395 177.238C305.476 171.318 306.584 165.334 306.687 159.453L304.466 159.414C304.367 165.057 303.302 170.806 301.299 176.501L303.395 177.238Z" fill="#C7A0F6"/>
<path d="M235.208 213.675L235.693 211.507C230.501 210.345 225.363 208.597 220.423 206.311L219.49 208.327C224.573 210.679 229.861 212.478 235.208 213.675Z" fill="#00E2EC"/>
<path d="M293.851 124.825C292.88 124.825 292.093 124.037 292.093 123.066C292.093 122.095 292.88 121.308 293.851 121.308C294.822 121.308 295.609 122.095 295.609 123.066C295.609 124.037 294.822 124.825 293.851 124.825Z" fill="#FDE1A7"/>
<path d="M215.668 103.883L220.28 104.417L217.265 101.173L215.668 103.883Z" fill="#00E2EC"/>
<path d="M249.61 110.186C250.223 110.186 250.815 110.176 251.379 110.156C251.624 110.148 251.811 110.019 251.798 109.868C251.783 109.718 251.568 109.604 251.329 109.612C242.763 109.91 228.032 107.994 222.561 101.508C220.113 98.6057 219.426 94.4435 218.7 90.0371C217.495 82.7343 216.249 75.1835 207 71.6857C206.792 71.6064 206.518 71.6467 206.389 71.7749C206.261 71.903 206.325 72.0709 206.534 72.15C215.41 75.5063 216.633 82.9214 217.815 90.0922C218.551 94.5518 219.246 98.7644 221.772 101.759C227.074 108.044 240.676 110.186 249.61 110.186Z" fill="#1AA9E8"/>
<path d="M214.156 98.6065L216.317 98.2919C215.41 95.9484 214.968 93.2628 214.498 90.4191C214.366 89.6195 214.234 88.8139 214.089 88.0088L211.881 88.1585C212.025 88.9594 212.157 89.761 212.288 90.5565C212.765 93.4463 213.215 96.1753 214.156 98.6065Z" fill="#F95FC3"/>
<path d="M251.355 110.963C250.384 110.963 249.597 110.48 249.597 109.884C249.597 109.288 250.384 108.805 251.355 108.805C252.326 108.805 253.113 109.288 253.113 109.884C253.113 110.48 252.326 110.963 251.355 110.963Z" fill="#C7A0F6"/>
<defs>
<linearGradient id="paint0_linear" x1="94.7067" y1="118.481" x2="105.632" y2="117.108" gradientUnits="userSpaceOnUse">
<stop stop-color="#00E2EC"/>
<stop offset="1" stop-color="#0090B2"/>
</linearGradient>
<linearGradient id="paint1_linear" x1="103.613" y1="107.808" x2="143.562" y2="107.808" gradientUnits="userSpaceOnUse">
<stop stop-color="#A281FF"/>
<stop offset="1" stop-color="#FF57BD"/>
</linearGradient>
<linearGradient id="paint2_linear" x1="146.918" y1="81.0223" x2="176.049" y2="110.153" gradientUnits="userSpaceOnUse">
<stop stop-color="#00E2EC"/>
<stop offset="1" stop-color="#0090B2"/>
</linearGradient>
<linearGradient id="paint3_linear" x1="169.041" y1="102.467" x2="199.642" y2="102.467" gradientUnits="userSpaceOnUse">
<stop stop-color="#3EC6A8"/>
<stop offset="1" stop-color="#FFE2A8"/>
</linearGradient>
<linearGradient id="paint4_linear" x1="182.17" y1="101.922" x2="196.56" y2="101.922" gradientUnits="userSpaceOnUse">
<stop stop-color="#A281FF"/>
<stop offset="1" stop-color="#FF57BD"/>
</linearGradient>
<linearGradient id="paint5_linear" x1="120.476" y1="111.642" x2="175.894" y2="111.642" gradientUnits="userSpaceOnUse">
<stop stop-color="#3EC6A8"/>
<stop offset="1" stop-color="#FFE2A8"/>
</linearGradient>
<linearGradient id="paint6_linear" x1="132.543" y1="108.265" x2="165.119" y2="108.265" gradientUnits="userSpaceOnUse">
<stop stop-color="#A281FF"/>
<stop offset="1" stop-color="#FF57BD"/>
</linearGradient>
<linearGradient id="paint7_linear" x1="151.816" y1="47.3547" x2="185.89" y2="47.3547" gradientUnits="userSpaceOnUse">
<stop stop-color="#A281FF"/>
<stop offset="1" stop-color="#FF57BD"/>
</linearGradient>
<linearGradient id="paint8_linear" x1="137.305" y1="68.1876" x2="203.317" y2="68.1876" gradientUnits="userSpaceOnUse">
<stop stop-color="#3EC6A8"/>
<stop offset="1" stop-color="#FFE2A8"/>
</linearGradient>
<linearGradient id="paint9_linear" x1="151.413" y1="55.8759" x2="184.537" y2="55.8759" gradientUnits="userSpaceOnUse">
<stop stop-color="#7D59D0"/>
<stop offset="1" stop-color="#7C18A1"/>
</linearGradient>
<linearGradient id="paint10_linear" x1="146.008" y1="86.4129" x2="186.621" y2="86.4129" gradientUnits="userSpaceOnUse">
<stop stop-color="#A281FF"/>
<stop offset="1" stop-color="#FF57BD"/>
</linearGradient>
<linearGradient id="paint11_linear" x1="142.407" y1="52.5222" x2="179.152" y2="89.2672" gradientUnits="userSpaceOnUse">
<stop stop-color="white"/>
<stop offset="1" stop-color="#6EFFFB"/>
</linearGradient>
<linearGradient id="paint12_linear" x1="135.564" y1="70.9482" x2="185.584" y2="70.9482" gradientUnits="userSpaceOnUse">
<stop stop-color="#3EC6A8"/>
<stop offset="1" stop-color="#FFE2A8"/>
</linearGradient>
<linearGradient id="paint13_linear" x1="194.263" y1="69.3777" x2="203.317" y2="69.3777" gradientUnits="userSpaceOnUse">
<stop stop-color="#A281FF"/>
<stop offset="1" stop-color="#FF57BD"/>
</linearGradient>
<linearGradient id="paint14_linear" x1="144.789" y1="75.5037" x2="153.666" y2="70.3785" gradientUnits="userSpaceOnUse">
<stop stop-color="#3369FF"/>
<stop offset="0.1191" stop-color="#305DDB"/>
<stop offset="0.3562" stop-color="#2C4799"/>
<stop offset="0.5713" stop-color="#283665"/>
<stop offset="0.7571" stop-color="#25293F"/>
<stop offset="0.9062" stop-color="#242228"/>
<stop offset="1" stop-color="#231F20"/>
</linearGradient>
<linearGradient id="paint15_linear" x1="171.158" y1="76.4457" x2="180.035" y2="71.3205" gradientUnits="userSpaceOnUse">
<stop stop-color="#3369FF"/>
<stop offset="0.1191" stop-color="#305DDB"/>
<stop offset="0.3562" stop-color="#2C4799"/>
<stop offset="0.5713" stop-color="#283665"/>
<stop offset="0.7571" stop-color="#25293F"/>
<stop offset="0.9062" stop-color="#242228"/>
<stop offset="1" stop-color="#231F20"/>
</linearGradient>
<linearGradient id="paint16_linear" x1="183.461" y1="99.6193" x2="202.954" y2="119.112" gradientUnits="userSpaceOnUse">
<stop stop-color="#C91C91"/>
<stop offset="1" stop-color="#FE6A77"/>
</linearGradient>
<linearGradient id="paint17_linear" x1="182.879" y1="131.24" x2="198.051" y2="129.983" gradientUnits="userSpaceOnUse">
<stop stop-color="#00E2EC"/>
<stop offset="1" stop-color="#0090B2"/>
</linearGradient>
</defs>
</svg>
