<svg width="776" height="268" viewBox="0 0 776 268" fill="none" xmlns="http://www.w3.org/2000/svg">
<path d="M304.725 210.896L303.122 205.229L308.201 203.792C311.066 202.982 312.74 199.991 311.929 197.125C311.119 194.26 308.131 192.587 305.262 193.397L300.246 194.816L298.642 189.148L303.659 187.727C309.657 186.034 315.905 189.533 317.599 195.522C319.292 201.516 315.795 207.767 309.804 209.46L304.725 210.896Z" fill="url(#paint0_linear)"/>
<path d="M372.94 162.963C363.64 169.551 354.157 175.835 344.356 181.309C339.461 184.025 328.761 190.044 322.166 191.294C320.108 191.683 317.126 191.746 315.395 191.514V191.517C314.375 192.765 313.941 198.99 317.486 201.36C317.894 201.383 318.299 201.4 318.694 201.404C320.505 201.417 322.202 201.243 323.841 200.993C327.109 200.476 330.14 199.638 333.077 198.681C338.936 196.745 344.418 194.316 349.772 191.718C360.45 186.488 370.593 180.516 380.499 174.277L372.94 162.963Z" fill="url(#paint1_linear)"/>
<path d="M327.326 200.8C327.264 200.8 327.203 200.789 327.142 200.765C325.622 200.148 324.531 199.038 323.899 197.465C322.975 195.159 323.27 192.223 324.039 190.515C324.15 190.267 324.44 190.154 324.688 190.268C324.935 190.379 325.045 190.67 324.934 190.917C324.267 192.4 323.997 195.07 324.811 197.099C325.339 198.416 326.247 199.343 327.51 199.855C327.761 199.957 327.882 200.244 327.781 200.494C327.704 200.684 327.52 200.8 327.326 200.8Z" fill="#00CFFF"/>
<path d="M337.327 197.659C337.234 197.659 337.14 197.633 337.056 197.577C335.059 196.248 333.795 194.128 333.498 191.607C333.232 189.36 333.775 187.007 334.816 185.887C335 185.687 335.311 185.675 335.511 185.861C335.709 186.046 335.721 186.356 335.536 186.555C334.828 187.317 334.216 189.307 334.473 191.492C334.659 193.07 335.354 195.265 337.6 196.76C337.826 196.909 337.887 197.214 337.738 197.44C337.642 197.583 337.486 197.659 337.327 197.659Z" fill="#00CFFF"/>
<path d="M431.289 179.136L469.985 150.095C469.591 148.184 469.004 146.6 468.241 145.295C465.671 140.902 461.11 139.662 455.256 139.662H408.328C400.736 139.662 400.76 141.012 387.921 149.188L348.298 175.776L431.289 179.136Z" fill="url(#paint2_linear)"/>
<path d="M466.474 143.04L466.472 143.032L422.485 178.202L433.777 203.732L472.91 163.474L469.985 150.095C469.328 146.905 468.126 144.634 466.474 143.04Z" fill="url(#paint3_linear)"/>
<path d="M466.211 164.902C463.867 159.416 457.521 156.869 452.035 159.213L450.68 159.791C445.195 162.135 442.648 168.482 444.99 173.967L450.4 186.63L467.831 168.697L466.211 164.902Z" fill="url(#paint4_linear)"/>
<path d="M433.777 203.732V187.019C433.777 179.427 427.622 173.272 420.03 173.272H356.205C348.613 173.272 342.458 179.427 342.458 187.019V203.732H433.777Z" fill="url(#paint5_linear)"/>
<path d="M376.089 192.604H402.274C409.866 192.604 416.021 186.449 416.021 178.857V173.272H362.342V178.857C362.342 186.449 368.497 192.604 376.089 192.604Z" fill="url(#paint6_linear)"/>
<path d="M450.248 95.5987C449.628 94.7307 449.072 93.9608 448.615 93.3413C441.448 83.6311 436.968 76.8804 433.041 73.1982C429.27 69.6633 424.654 69.5367 422.485 69.5367H398.551C394.623 69.5367 393.457 73.3818 394.419 75.6727L406.349 95.5977H450.248V95.5987Z" fill="url(#paint7_linear)"/>
<path d="M370.19 102.01C375.762 98.3402 401.984 89.7592 436.477 91.9577C466.016 93.8401 476.53 104.125 478.209 108.978C479.681 113.234 478.945 117.57 476.498 120.637C473.971 123.804 459.868 137.596 448.582 141.698C437.296 145.799 458.08 123.214 450.879 114.705C443.678 106.196 434.358 97.9425 402.274 99.9761C370.19 102.01 370.19 102.01 370.19 102.01Z" fill="url(#paint8_linear)"/>
<path d="M448.018 93.247C444.537 92.6735 440.708 92.2268 436.477 91.9577C424.764 91.2115 414.008 91.7103 404.688 92.8356L393.437 98.8321L407.12 99.7463C415.898 99.4556 422.799 100.012 428.333 101.163L435.087 101.614L448.018 93.247Z" fill="url(#paint9_linear)"/>
<path d="M384.53 138.926C385.13 147.864 392.55 154.932 401.64 154.932H434.342C443.432 154.932 450.852 147.864 451.452 138.926H384.53Z" fill="url(#paint10_linear)"/>
<path d="M456.936 129.025C453.661 138.927 449.384 142.117 444.415 143.508C436.233 145.799 427.396 146.373 408.578 146.373C393.212 146.373 376.581 142.526 376.581 142.526C364.962 139.745 363.264 135.735 361.035 126.325C361.035 126.325 360.262 121.592 360.053 119.216C358.907 106.196 366.082 103.095 374.945 100.387C383.783 97.6862 390.492 96.1319 407.022 96.0494C425.678 95.9561 442.698 101.122 442.698 101.122C452.732 104.743 457.759 108.552 458.3 117.821C458.489 121.087 457.775 126.486 456.936 129.025Z" fill="url(#paint11_linear)"/>
<path d="M369.952 110.327C372.973 108.181 388.527 102.924 409.147 103.087C429.768 103.25 446.46 108.24 448.915 113.804C451.37 119.369 447.905 131.74 444.632 135.013C441.359 138.286 427.64 140.399 410.456 139.662C393.273 138.926 374.51 136.259 371.344 132.216C367.497 127.307 365.288 113.641 369.952 110.327Z" fill="url(#paint12_linear)"/>
<path d="M476.498 120.637C478.945 117.57 479.681 113.234 478.209 108.978C477.892 108.064 477.263 106.958 476.254 105.754C469.265 107.346 464.044 113.587 464.044 121.059V128.587C464.044 129.748 464.179 130.875 464.418 131.963C470.324 127.223 475.123 122.359 476.498 120.637Z" fill="url(#paint13_linear)"/>
<path d="M411.684 133.936C407.461 133.936 403.819 136.066 402.071 139.155C404.858 139.373 407.678 139.543 410.456 139.662C414.383 139.831 418.124 139.848 421.605 139.739C420.007 136.335 416.169 133.936 411.684 133.936Z" fill="white"/>
<path d="M397.036 120.308L394.258 117.531L389.836 121.953L385.415 117.531L382.637 120.308L387.059 124.73L382.637 129.152L385.415 131.929L389.836 127.507L394.258 131.929L397.036 129.152L392.613 124.73L397.036 120.308Z" fill="url(#paint14_linear)"/>
<path d="M394.258 132.42C394.132 132.42 394.006 132.371 393.91 132.276L389.835 128.202L385.76 132.276C385.569 132.468 385.257 132.468 385.066 132.276L382.289 129.499C382.197 129.407 382.146 129.282 382.146 129.152C382.146 129.021 382.198 128.896 382.289 128.804L386.364 124.73L382.289 120.655C382.098 120.464 382.098 120.153 382.289 119.961L385.066 117.184C385.251 117 385.577 117 385.76 117.184L389.835 121.259L393.91 117.184C394.095 117 394.421 117 394.604 117.184L397.381 119.961C397.573 120.153 397.573 120.464 397.381 120.655L393.306 124.73L397.381 128.804C397.473 128.896 397.525 129.021 397.525 129.152C397.525 129.282 397.472 129.407 397.381 129.499L394.604 132.276C394.509 132.371 394.383 132.42 394.258 132.42ZM389.836 127.016C389.962 127.016 390.088 127.064 390.184 127.159L394.259 131.233L396.341 129.151L392.266 125.077C392.075 124.885 392.075 124.574 392.266 124.383L396.341 120.308L394.259 118.225L390.184 122.3C389.999 122.485 389.673 122.485 389.49 122.3L385.415 118.225L383.332 120.308L387.407 124.383C387.499 124.475 387.55 124.6 387.55 124.73C387.55 124.861 387.498 124.985 387.407 125.078L383.332 129.152L385.415 131.234L389.49 127.16C389.585 127.064 389.71 127.016 389.836 127.016Z" fill="#7E59D1"/>
<path d="M440.485 121.861L437.707 119.084L433.286 123.507L428.864 119.084L426.086 121.861L430.509 126.284L426.086 130.705L428.864 133.482L433.286 129.06L437.707 133.482L440.485 130.705L436.063 126.284L440.485 121.861Z" fill="url(#paint15_linear)"/>
<path d="M437.707 133.973C437.582 133.973 437.456 133.925 437.36 133.83L433.285 129.756L429.21 133.83C429.018 134.021 428.707 134.021 428.516 133.83L425.739 131.053C425.647 130.96 425.595 130.836 425.595 130.705C425.595 130.575 425.648 130.45 425.739 130.358L429.814 126.284L425.739 122.209C425.547 122.017 425.547 121.706 425.739 121.514L428.516 118.738C428.7 118.553 429.026 118.553 429.21 118.738L433.285 122.813L437.36 118.738C437.544 118.553 437.87 118.553 438.054 118.738L440.831 121.514C441.022 121.706 441.022 122.017 440.831 122.209L436.756 126.284L440.831 130.358C440.923 130.45 440.974 130.575 440.974 130.705C440.974 130.836 440.922 130.96 440.831 131.053L438.054 133.83C437.959 133.925 437.833 133.973 437.707 133.973ZM433.286 128.569C433.412 128.569 433.537 128.618 433.633 128.713L437.708 132.787L439.791 130.704L435.716 126.63C435.525 126.439 435.525 126.127 435.716 125.936L439.791 121.861L437.708 119.778L433.633 123.853C433.449 124.038 433.123 124.038 432.939 123.853L428.864 119.778L426.782 121.861L430.857 125.936C430.949 126.028 431 126.153 431 126.284C431 126.414 430.948 126.539 430.857 126.631L426.782 130.705L428.864 132.788L432.939 128.714C433.034 128.618 433.16 128.569 433.286 128.569Z" fill="#7E59D1"/>
<path d="M448.387 93.032C441.355 83.4907 436.925 76.8411 433.04 73.1992C430.432 70.7552 427.422 69.9412 425.095 69.6712L445.253 94.8623L448.387 93.032Z" fill="#00CFFF"/>
<path d="M479.199 177.033C478.502 173.677 476.75 170.155 474.042 167.522C471.352 164.866 467.977 163.169 464.553 162.344C462.83 161.927 461.074 161.716 459.263 161.721C458.356 161.727 455.139 162.034 454.652 162.141C454.636 162.144 454.62 162.152 454.605 162.156C451.223 162.766 448.655 165.718 448.655 169.276C448.655 173.275 451.898 176.517 455.897 176.517C456.907 176.517 457.869 176.309 458.742 175.935C459.62 175.644 460.697 175.406 461.81 175.546C463.194 175.713 464.43 176.198 465.35 176.9C466.275 177.603 466.992 178.57 467.475 179.983C467.95 181.404 468.126 183.152 468.001 185.179C467.767 189.192 466.524 193.451 464.704 197.553C463.792 199.609 462.737 201.636 461.567 203.61C460.983 204.596 460.371 205.57 459.734 206.523L458.762 207.932C458.447 208.377 458.07 208.88 457.81 209.222L464.241 214.939C464.79 214.355 465.19 213.905 465.639 213.388C466.075 212.886 466.499 212.381 466.915 211.87C467.747 210.851 468.548 209.81 469.322 208.748C470.87 206.622 472.311 204.403 473.623 202.071C476.229 197.411 478.39 192.272 479.317 186.497C479.766 183.648 479.92 180.393 479.199 177.033Z" fill="url(#paint16_linear)"/>
<path d="M460.658 176.016C460.426 176.016 460.22 175.851 460.176 175.615C459.924 174.259 460.065 169.565 462.75 166.439C464.393 164.525 466.646 163.607 469.462 163.69C469.733 163.698 469.946 163.925 469.936 164.196C469.927 164.467 469.675 164.653 469.429 164.672C466.938 164.59 464.935 165.4 463.494 167.078C461.072 169.898 460.92 174.252 461.141 175.434C461.19 175.701 461.014 175.958 460.748 176.007C460.718 176.014 460.687 176.016 460.658 176.016Z" fill="#00CFFF"/>
<path d="M467.66 181.112C467.615 181.112 467.569 181.106 467.524 181.092C467.264 181.017 467.113 180.745 467.189 180.483C467.691 178.754 470.171 176.41 473.065 175.676C474.818 175.23 477.397 175.19 479.705 177.525C479.896 177.717 479.894 178.029 479.702 178.219C479.508 178.411 479.197 178.408 479.007 178.215C477.026 176.211 474.814 176.246 473.306 176.627C470.777 177.27 468.55 179.32 468.132 180.758C468.07 180.972 467.873 181.112 467.66 181.112Z" fill="#00CFFF"/>
<path d="M477.265 194.748C477.055 194.748 476.861 194.612 476.796 194.401C476.28 192.735 475.189 191.552 473.552 190.886C471.293 189.965 468.485 190.307 467.406 190.896C467.166 191.024 466.869 190.936 466.74 190.699C466.61 190.461 466.699 190.163 466.936 190.032C468.165 189.363 471.235 188.882 473.923 189.976C475.818 190.746 477.135 192.177 477.733 194.111C477.814 194.371 477.669 194.646 477.409 194.725C477.361 194.741 477.312 194.748 477.265 194.748Z" fill="#00CFFF"/>
<path d="M472.748 204.776C472.545 204.776 472.357 204.65 472.285 204.449C471.352 201.819 469.582 200.74 468.26 200.296C466.268 199.628 464.362 200.026 463.83 200.377C463.605 200.526 463.299 200.463 463.15 200.237C463.002 200.01 463.064 199.705 463.291 199.556C464.086 199.033 466.318 198.609 468.573 199.366C470.1 199.877 472.145 201.118 473.21 204.121C473.3 204.376 473.167 204.657 472.912 204.748C472.857 204.767 472.802 204.776 472.748 204.776Z" fill="#00CFFF"/>
<path d="M469.349 229.105L463.538 228.138L464.482 222.472C464.751 220.855 464.374 219.229 463.421 217.896C462.468 216.563 461.053 215.679 459.436 215.41C456.101 214.857 452.93 217.118 452.374 220.457L451.443 226.054L445.631 225.086L446.563 219.49C447.653 212.947 453.857 208.508 460.404 209.6C463.573 210.128 466.347 211.859 468.215 214.472C470.084 217.087 470.821 220.272 470.294 223.441L469.349 229.105Z" fill="url(#paint17_linear)"/>
<path d="M339.068 145.639L331.364 144.968L338.501 137.926L339.068 145.639Z" fill="#F95FC3"/>
<path d="M311.844 169.197C311.536 169.197 311.249 169 311.148 168.692C307.392 157.215 314.808 150.102 327.094 138.317C329.631 135.884 332.507 133.126 335.479 130.13C352.972 112.497 349.557 94.591 348.093 89.5229C347.981 89.135 348.205 88.7287 348.594 88.6167C348.984 88.5062 349.388 88.7287 349.5 89.1174C351.019 94.3788 354.574 112.962 336.518 131.161C333.533 134.169 330.651 136.934 328.108 139.373C316.236 150.761 309.07 157.634 312.539 168.236C312.665 168.62 312.456 169.034 312.071 169.159C311.996 169.185 311.919 169.197 311.844 169.197Z" fill="#1AA9E8"/>
<path d="M346.584 134.947L343.986 132.37C350.634 125.669 354.901 118.206 356.671 110.188L360.245 110.978C358.324 119.682 353.728 127.747 346.584 134.947Z" fill="#00E2EC"/>
<path d="M348.797 92.218C350.397 92.218 351.694 90.9209 351.694 89.3209C351.694 87.7208 350.397 86.4238 348.797 86.4238C347.197 86.4238 345.9 87.7208 345.9 89.3209C345.9 90.9209 347.197 92.218 348.797 92.218Z" fill="#FDE1A7"/>
<path d="M305.254 172.124C305.14 172.124 305.024 172.097 304.916 172.04C304.701 171.928 299.672 169.183 300.871 160.797C301.55 156.045 304.647 152.048 307.926 147.817C312.19 142.314 316.599 136.623 315.993 128.75C315.759 125.7 314.193 123.02 311.34 120.782C296.058 108.796 248.877 112.024 236.89 114.005C236.485 114.067 236.114 113.801 236.049 113.402C235.982 113.003 236.252 112.626 236.651 112.56C248.779 110.556 296.576 107.342 312.243 119.63C315.432 122.131 317.185 125.162 317.453 128.638C318.102 137.074 313.31 143.258 309.083 148.713C305.926 152.787 302.944 156.636 302.321 161.004C301.275 168.32 305.423 170.651 305.599 170.747C305.954 170.939 306.089 171.381 305.899 171.737C305.768 171.983 305.515 172.124 305.254 172.124Z" fill="#1AA9E8"/>
<path d="M292.5 122.556C285.5 121.405 277.15 120.814 267.679 120.801L267.685 117.141C277.352 117.155 285.9 117.761 293.093 118.944L292.5 122.556Z" fill="#C7A0F6"/>
<path d="M236.77 116.18C238.37 116.18 239.667 114.883 239.667 113.283C239.667 111.683 238.37 110.385 236.77 110.385C235.17 110.385 233.873 111.683 233.873 113.283C233.873 114.883 235.17 116.18 236.77 116.18Z" fill="#FDE1A7"/>
<path d="M27.1312 180.762L24.4815 188.028L19.5356 179.309L27.1312 180.762Z" fill="#F95FC3"/>
<path d="M102.961 241.494C102.382 241.494 101.806 241.49 101.227 241.481C71.9766 241.039 45.9406 229.661 27.9153 209.443C6.7139 185.662 -3.34988 155.521 0.993596 128.816C4.25523 108.766 15.3182 92.4157 32.1453 82.7772C32.4959 82.5759 32.9431 82.6974 33.1444 83.0487C33.3457 83.4001 33.2235 83.8466 32.8729 84.0479C16.4359 93.4624 5.62766 109.446 2.43849 129.052C-1.83545 155.326 8.09658 185.014 29.0081 208.469C66.6728 250.716 135.185 250.798 184.984 208.652C193.598 201.362 200.943 193.843 208.046 186.572C224.942 169.276 239.534 154.338 261.672 153.783C282.352 153.265 292.622 163.943 297.6 172.992C297.796 173.346 297.666 173.791 297.312 173.986C296.957 174.182 296.512 174.052 296.318 173.697C291.536 165.004 281.66 154.75 261.709 155.246C240.165 155.787 225.767 170.527 209.093 187.595C201.966 194.89 194.597 202.434 185.93 209.769C161.711 230.267 132.312 241.493 102.961 241.494Z" fill="#1AA9E8"/>
<path d="M16.7837 172.679C13.3537 162.924 11.5282 153.063 11.3584 143.371L15.0175 143.307C15.1807 152.607 16.9367 162.08 20.2364 171.464L16.7837 172.679Z" fill="#C7A0F6"/>
<path d="M129.143 232.719L128.344 229.147C136.9 227.232 145.366 224.352 153.507 220.586L155.043 223.907C146.667 227.783 137.953 230.748 129.143 232.719Z" fill="#00E2EC"/>
<path d="M32.5099 86.3104C34.1099 86.3104 35.407 85.0133 35.407 83.4133C35.407 81.8132 34.1099 80.5161 32.5099 80.5161C30.9099 80.5161 29.6128 81.8132 29.6128 83.4133C29.6128 85.0133 30.9099 86.3104 32.5099 86.3104Z" fill="#FDE1A7"/>
<path d="M276.683 256.232L269.083 257.113L274.053 251.768L276.683 256.232Z" fill="#00E2EC"/>
<path d="M220.752 266.618C219.742 266.618 218.768 266.602 217.837 266.569C217.434 266.556 217.125 266.343 217.148 266.095C217.171 265.848 217.525 265.661 217.92 265.673C232.035 266.164 256.309 263.007 265.324 252.32C269.359 247.537 270.49 240.678 271.687 233.417C273.672 221.384 275.725 208.941 290.966 203.178C291.31 203.047 291.76 203.113 291.973 203.324C292.184 203.536 292.078 203.812 291.733 203.943C277.109 209.473 275.093 221.692 273.144 233.508C271.932 240.857 270.787 247.798 266.624 252.733C257.888 263.089 235.474 266.618 220.752 266.618Z" fill="#1AA9E8"/>
<path d="M279.175 247.538L275.614 247.02C277.108 243.158 277.837 238.733 278.611 234.047C278.828 232.729 279.047 231.402 279.286 230.075L282.924 230.322C282.687 231.641 282.468 232.962 282.252 234.273C281.467 239.035 280.725 243.532 279.175 247.538Z" fill="#F95FC3"/>
<path d="M217.878 267.899C219.478 267.899 220.775 267.103 220.775 266.121C220.775 265.139 219.478 264.343 217.878 264.343C216.278 264.343 214.98 265.139 214.98 266.121C214.98 267.103 216.278 267.899 217.878 267.899Z" fill="#C7A0F6"/>
<path d="M436.933 65.1229L444.637 64.4516L437.501 57.4101L436.933 65.1229Z" fill="#F95FC3"/>
<path d="M464.157 88.6804C464.465 88.6804 464.752 88.4843 464.852 88.1761C468.609 76.6989 461.193 69.5864 448.907 57.801C446.37 55.368 443.494 52.6099 440.522 49.614C423.029 31.9809 426.444 14.0749 427.908 9.00677C428.02 8.61883 427.796 8.21258 427.408 8.10059C427.017 7.99006 426.613 8.21258 426.501 8.60126C424.982 13.8626 421.427 32.4458 439.483 50.6446C442.468 53.653 445.35 56.4183 447.893 58.8572C459.765 70.2444 466.931 77.1176 463.462 87.7201C463.336 88.1043 463.545 88.5179 463.93 88.6431C464.005 88.6687 464.082 88.6804 464.157 88.6804Z" fill="#1AA9E8"/>
<path d="M429.417 54.4311L432.015 51.8538C425.367 45.1526 421.1 37.6895 419.33 29.6723L415.756 30.4614C417.677 39.1659 422.273 47.2307 429.417 54.4311Z" fill="#00E2EC"/>
<path d="M427.204 11.7019C425.604 11.7019 424.307 10.4048 424.307 8.80475C424.307 7.20472 425.604 5.90764 427.204 5.90764C428.804 5.90764 430.101 7.20472 430.101 8.80475C430.101 10.4048 428.804 11.7019 427.204 11.7019Z" fill="#FDE1A7"/>
<path d="M470.747 91.6083C470.86 91.6083 470.977 91.5812 471.085 91.5242C471.3 91.4114 476.328 88.6666 475.129 80.2812C474.451 75.5292 471.354 71.532 468.075 67.3005C463.811 61.7976 459.402 56.1073 460.008 48.2343C460.242 45.1842 461.808 42.5037 464.661 40.2661C479.943 28.2802 527.123 31.5074 539.111 33.4888C539.516 33.5511 539.887 33.2846 539.952 32.8857C540.018 32.4868 539.748 32.1098 539.349 32.0439C527.222 30.0398 479.425 26.8258 463.757 39.114C460.568 41.6151 458.815 44.6462 458.548 48.1223C457.899 56.5582 462.69 62.7418 466.918 68.1971C470.075 72.2713 473.057 76.12 473.68 80.4883C474.726 87.8043 470.578 90.1349 470.401 90.2308C470.047 90.4226 469.912 90.8646 470.101 91.2204C470.232 91.4671 470.486 91.6083 470.747 91.6083Z" fill="#1AA9E8"/>
<path d="M483.501 42.0397C490.501 40.889 498.851 40.2983 508.322 40.2851L508.316 36.6253C498.649 36.6392 490.101 37.2453 482.908 38.4282L483.501 42.0397Z" fill="#C7A0F6"/>
<path d="M539.231 35.6635C537.631 35.6635 536.334 34.3664 536.334 32.7664C536.334 31.1664 537.631 29.8693 539.231 29.8693C540.831 29.8693 542.128 31.1664 542.128 32.7664C542.128 34.3664 540.831 35.6635 539.231 35.6635Z" fill="#FDE1A7"/>
<path d="M748.869 100.246L751.518 107.512L756.464 98.7926L748.869 100.246Z" fill="#F95FC3"/>
<path d="M673.039 160.978C673.618 160.978 674.195 160.974 674.774 160.965C704.024 160.523 730.06 149.145 748.085 128.927C769.286 105.146 779.35 75.0052 775.006 48.3002C771.745 28.2495 760.682 11.8995 743.855 2.26103C743.504 2.05974 743.057 2.18125 742.856 2.53259C742.654 2.88393 742.777 3.33044 743.127 3.53173C759.564 12.9463 770.372 28.9294 773.562 48.5359C777.835 74.8097 767.903 104.498 746.992 127.953C709.327 170.2 640.815 170.282 591.017 128.136C582.402 120.846 575.058 113.327 567.955 106.056C551.059 88.7603 536.466 73.8223 514.329 73.2667C493.649 72.7485 483.379 83.4264 478.401 92.4757C478.205 92.83 478.335 93.275 478.689 93.4697C479.044 93.6659 479.489 93.5356 479.683 93.1813C484.465 84.4878 494.341 74.2337 514.292 74.73C535.835 75.2709 550.234 90.0112 566.907 107.078C574.034 114.374 581.404 121.918 590.071 129.253C614.289 149.75 643.689 160.977 673.039 160.978Z" fill="#1AA9E8"/>
<path d="M759.216 92.1624C762.646 82.4075 764.472 72.5472 764.642 62.8553L760.983 62.7909C760.819 72.0905 759.063 81.5636 755.764 90.9481L759.216 92.1624Z" fill="#C7A0F6"/>
<path d="M646.857 152.203L647.657 148.631C639.101 146.716 630.635 143.835 622.494 140.07L620.958 143.391C629.334 147.267 638.048 150.231 646.857 152.203Z" fill="#00E2EC"/>
<path d="M743.49 5.79422C741.89 5.79422 740.593 4.49715 740.593 2.89711C740.593 1.29708 741.89 0 743.49 0C745.09 0 746.387 1.29708 746.387 2.89711C746.387 4.49715 745.09 5.79422 743.49 5.79422Z" fill="#FDE1A7"/>
<path d="M499.317 175.716L506.917 176.596L501.948 171.252L499.317 175.716Z" fill="#00E2EC"/>
<path d="M555.248 186.102C556.258 186.102 557.232 186.086 558.163 186.053C558.566 186.04 558.875 185.827 558.852 185.579C558.829 185.332 558.475 185.144 558.08 185.157C543.965 185.648 519.691 182.491 510.676 171.804C506.641 167.021 505.51 160.162 504.313 152.901C502.328 140.868 500.276 128.425 485.035 122.661C484.691 122.531 484.24 122.597 484.027 122.808C483.816 123.019 483.922 123.296 484.267 123.426C498.891 128.957 500.907 141.176 502.856 152.992C504.068 160.34 505.213 167.282 509.376 172.217C518.112 182.573 540.526 186.102 555.248 186.102Z" fill="#1AA9E8"/>
<path d="M496.825 167.022L500.386 166.504C498.892 162.642 498.163 158.216 497.39 153.531C497.172 152.213 496.953 150.885 496.715 149.559L493.076 149.805C493.313 151.125 493.532 152.446 493.748 153.757C494.533 158.519 495.276 163.016 496.825 167.022Z" fill="#F95FC3"/>
<path d="M558.123 187.383C556.523 187.383 555.226 186.587 555.226 185.605C555.226 184.623 556.523 183.827 558.123 183.827C559.723 183.827 561.02 184.623 561.02 185.605C561.02 186.587 559.723 187.383 558.123 187.383Z" fill="#C7A0F6"/>
<defs>
<linearGradient id="paint0_linear" x1="299.994" y1="199.77" x2="317.996" y2="197.508" gradientUnits="userSpaceOnUse">
<stop stop-color="#00E2EC"/>
<stop offset="1" stop-color="#0090B2"/>
</linearGradient>
<linearGradient id="paint1_linear" x1="314.669" y1="182.184" x2="380.499" y2="182.184" gradientUnits="userSpaceOnUse">
<stop stop-color="#A281FF"/>
<stop offset="1" stop-color="#FF57BD"/>
</linearGradient>
<linearGradient id="paint2_linear" x1="386.03" y1="138.046" x2="434.032" y2="186.049" gradientUnits="userSpaceOnUse">
<stop stop-color="#00E2EC"/>
<stop offset="1" stop-color="#0090B2"/>
</linearGradient>
<linearGradient id="paint3_linear" x1="422.485" y1="173.383" x2="472.91" y2="173.383" gradientUnits="userSpaceOnUse">
<stop stop-color="#3EC6A8"/>
<stop offset="1" stop-color="#FFE2A8"/>
</linearGradient>
<linearGradient id="paint4_linear" x1="444.12" y1="172.485" x2="467.832" y2="172.485" gradientUnits="userSpaceOnUse">
<stop stop-color="#A281FF"/>
<stop offset="1" stop-color="#FF57BD"/>
</linearGradient>
<linearGradient id="paint5_linear" x1="342.458" y1="188.502" x2="433.777" y2="188.502" gradientUnits="userSpaceOnUse">
<stop stop-color="#3EC6A8"/>
<stop offset="1" stop-color="#FFE2A8"/>
</linearGradient>
<linearGradient id="paint6_linear" x1="362.342" y1="182.937" x2="416.021" y2="182.937" gradientUnits="userSpaceOnUse">
<stop stop-color="#A281FF"/>
<stop offset="1" stop-color="#FF57BD"/>
</linearGradient>
<linearGradient id="paint7_linear" x1="394.1" y1="82.5682" x2="450.248" y2="82.5682" gradientUnits="userSpaceOnUse">
<stop stop-color="#A281FF"/>
<stop offset="1" stop-color="#FF57BD"/>
</linearGradient>
<linearGradient id="paint8_linear" x1="370.19" y1="116.897" x2="478.964" y2="116.897" gradientUnits="userSpaceOnUse">
<stop stop-color="#3EC6A8"/>
<stop offset="1" stop-color="#FFE2A8"/>
</linearGradient>
<linearGradient id="paint9_linear" x1="393.437" y1="96.6094" x2="448.018" y2="96.6094" gradientUnits="userSpaceOnUse">
<stop stop-color="#7D59D0"/>
<stop offset="1" stop-color="#7C18A1"/>
</linearGradient>
<linearGradient id="paint10_linear" x1="384.53" y1="146.929" x2="451.453" y2="146.929" gradientUnits="userSpaceOnUse">
<stop stop-color="#A281FF"/>
<stop offset="1" stop-color="#FF57BD"/>
</linearGradient>
<linearGradient id="paint11_linear" x1="378.596" y1="91.0833" x2="439.145" y2="151.632" gradientUnits="userSpaceOnUse">
<stop stop-color="white"/>
<stop offset="1" stop-color="#6EFFFB"/>
</linearGradient>
<linearGradient id="paint12_linear" x1="367.319" y1="121.446" x2="449.743" y2="121.446" gradientUnits="userSpaceOnUse">
<stop stop-color="#3EC6A8"/>
<stop offset="1" stop-color="#FFE2A8"/>
</linearGradient>
<linearGradient id="paint13_linear" x1="464.044" y1="118.858" x2="478.964" y2="118.858" gradientUnits="userSpaceOnUse">
<stop stop-color="#A281FF"/>
<stop offset="1" stop-color="#FF57BD"/>
</linearGradient>
<linearGradient id="paint14_linear" x1="382.522" y1="128.952" x2="397.15" y2="120.507" gradientUnits="userSpaceOnUse">
<stop stop-color="#3369FF"/>
<stop offset="0.1191" stop-color="#305DDB"/>
<stop offset="0.3562" stop-color="#2C4799"/>
<stop offset="0.5713" stop-color="#283665"/>
<stop offset="0.7571" stop-color="#25293F"/>
<stop offset="0.9062" stop-color="#242228"/>
<stop offset="1" stop-color="#231F20"/>
</linearGradient>
<linearGradient id="paint15_linear" x1="425.971" y1="130.505" x2="440.599" y2="122.059" gradientUnits="userSpaceOnUse">
<stop stop-color="#3369FF"/>
<stop offset="0.1191" stop-color="#305DDB"/>
<stop offset="0.3562" stop-color="#2C4799"/>
<stop offset="0.5713" stop-color="#283665"/>
<stop offset="0.7571" stop-color="#25293F"/>
<stop offset="0.9062" stop-color="#242228"/>
<stop offset="1" stop-color="#231F20"/>
</linearGradient>
<linearGradient id="paint16_linear" x1="446.246" y1="168.69" x2="478.367" y2="200.811" gradientUnits="userSpaceOnUse">
<stop stop-color="#C91C91"/>
<stop offset="1" stop-color="#FE6A77"/>
</linearGradient>
<linearGradient id="paint17_linear" x1="445.288" y1="220.796" x2="470.289" y2="218.723" gradientUnits="userSpaceOnUse">
<stop stop-color="#00E2EC"/>
<stop offset="1" stop-color="#0090B2"/>
</linearGradient>
</defs>
</svg>
