<svg width="414" height="896" viewBox="0 0 414 896" fill="none" xmlns="http://www.w3.org/2000/svg">
<path d="M-65.4839 922.41V868.466L55.7758 747.206L55.7758 681.274" stroke="white" stroke-opacity="0.2"/>
<path d="M337.778 915.033V861.089L459.038 739.829V673.897" stroke="white" stroke-opacity="0.2"/>
<path d="M261.263 917.197V790.866H324.428V722.167L361.775 683.438" stroke="white" stroke-opacity="0.2"/>
<path d="M391.484 686.495V731.679L350.91 772.252H324.168" stroke="white" stroke-opacity="0.2"/>
<path d="M-98.6621 924.375V857.521L23.0586 734.878L23.0586 689.694" stroke="white" stroke-opacity="0.2"/>
<path d="M304.601 916.999V850.144L426.322 727.501V682.317" stroke="white" stroke-opacity="0.2"/>
<path d="M-25.4883 924.711V909.496L18.3127 866.156L18.3127 924.711" stroke="white" stroke-opacity="0.2"/>
<path d="M-25.4883 924.711V909.496L18.3127 866.156L18.3127 924.711" stroke="white" stroke-opacity="0.2"/>
<path d="M377.774 917.334V902.119L421.575 858.779V917.334" stroke="white" stroke-opacity="0.2"/>
<path d="M47.5757 827.617L47.5757 880.178H92.2988V776.9" stroke="white" stroke-opacity="0.2"/>
<path d="M47.5757 827.617L47.5757 880.178H92.2988V776.9" stroke="white" stroke-opacity="0.2"/>
<path d="M69.8208 879.718V839.606" stroke="white" stroke-opacity="0.2"/>
<path d="M85.731 924.32L126.766 885.13L126.766 779.085L78.354 730.674L78.354 671.658" stroke="white" stroke-opacity="0.2"/>
<path d="M232.189 923.93V879.668L185.16 923.93V834.484" stroke="white" stroke-opacity="0.2"/>
<path d="M263.476 822.59H223.363L102.104 699.947V650.153" stroke="white" stroke-opacity="0.2"/>
<path d="M264.287 780.129H243.078L155.937 692.988V663.48L125.045 632.127" stroke="white" stroke-opacity="0.2"/>
<path d="M264.571 719.689H227.686V665.745H177.891L146.539 633.47V597.046" stroke="white" stroke-opacity="0.2"/>
<circle cx="289.21" cy="752.218" r="5.99382" transform="rotate(-90 289.21 752.218)" fill="white" fill-opacity="0.2"/>
<circle cx="69.7482" cy="840.067" r="5.99382" transform="rotate(-90 69.7482 840.067)" fill="white" fill-opacity="0.2"/>
<circle cx="69.7482" cy="840.067" r="5.99382" transform="rotate(-90 69.7482 840.067)" fill="white" fill-opacity="0.2"/>
<circle cx="184.996" cy="835.032" r="5.99382" transform="rotate(-90 184.996 835.032)" fill="white" fill-opacity="0.2"/>
<circle cx="90.7194" cy="775.44" r="5.99382" transform="rotate(-90 90.7194 775.44)" fill="white" fill-opacity="0.2"/>
<circle cx="90.7194" cy="775.44" r="5.99382" transform="rotate(-90 90.7194 775.44)" fill="white" fill-opacity="0.2"/>
<circle cx="23.0886" cy="689.93" r="5.99382" transform="rotate(-90 23.0886 689.93)" fill="white" fill-opacity="0.2"/>
<circle cx="391.325" cy="686.371" r="5.99382" transform="rotate(-90 391.325 686.371)" fill="white" fill-opacity="0.2"/>
<circle cx="360.882" cy="682.795" r="5.99382" transform="rotate(-90 360.882 682.795)" fill="white" fill-opacity="0.2"/>
<circle cx="46.6413" cy="825.398" r="5.99382" transform="rotate(-90 46.6413 825.398)" fill="white" fill-opacity="0.2"/>
<circle cx="46.6413" cy="825.398" r="5.99382" transform="rotate(-90 46.6413 825.398)" fill="white" fill-opacity="0.2"/>
<path d="M-65.4839 608.887V554.943L55.7758 433.683L55.7758 367.751" stroke="white" stroke-opacity="0.2"/>
<path d="M337.778 601.51V547.566L459.038 426.306V360.374" stroke="white" stroke-opacity="0.2"/>
<path d="M261.263 603.674V477.343H324.428V408.644L361.775 369.915" stroke="white" stroke-opacity="0.2"/>
<path d="M391.484 372.971V418.156L350.91 458.729H324.168" stroke="white" stroke-opacity="0.2"/>
<path d="M-98.6621 610.853V543.998L23.0586 421.355L23.0586 376.171" stroke="white" stroke-opacity="0.2"/>
<path d="M304.601 603.476V536.621L426.322 413.979V368.794" stroke="white" stroke-opacity="0.2"/>
<path d="M-25.4883 611.188V595.973L18.3127 552.633L18.3127 611.188" stroke="white" stroke-opacity="0.2"/>
<path d="M-25.4883 611.188V595.973L18.3127 552.633L18.3127 611.188" stroke="white" stroke-opacity="0.2"/>
<path d="M377.774 603.811V588.596L421.575 545.256V603.811" stroke="white" stroke-opacity="0.2"/>
<path d="M47.5757 514.094L47.5757 566.655H92.2988V463.377" stroke="white" stroke-opacity="0.2"/>
<path d="M47.5757 514.094L47.5757 566.655H92.2988V463.377" stroke="white" stroke-opacity="0.2"/>
<path d="M69.8208 566.195V526.082" stroke="white" stroke-opacity="0.2"/>
<path d="M85.731 610.797L126.766 571.607L126.766 465.562L78.354 417.15L78.354 358.134" stroke="white" stroke-opacity="0.2"/>
<path d="M232.189 610.407V566.145L185.16 610.407V520.961" stroke="white" stroke-opacity="0.2"/>
<path d="M263.476 509.067H223.363L102.104 386.425V336.63" stroke="white" stroke-opacity="0.2"/>
<path d="M264.287 466.606H243.078L155.937 379.465V349.957L125.045 318.604" stroke="white" stroke-opacity="0.2"/>
<path d="M264.571 406.166H227.686V352.221H177.891L146.539 319.947V283.523" stroke="white" stroke-opacity="0.2"/>
<circle cx="289.21" cy="438.695" r="5.99382" transform="rotate(-90 289.21 438.695)" fill="white" fill-opacity="0.2"/>
<circle cx="69.7482" cy="526.544" r="5.99382" transform="rotate(-90 69.7482 526.544)" fill="white" fill-opacity="0.2"/>
<circle cx="69.7482" cy="526.544" r="5.99382" transform="rotate(-90 69.7482 526.544)" fill="white" fill-opacity="0.2"/>
<circle cx="147.501" cy="606.483" r="5.99382" transform="rotate(-90 147.501 606.483)" fill="white" fill-opacity="0.2"/>
<circle cx="184.996" cy="521.509" r="5.99382" transform="rotate(-90 184.996 521.509)" fill="white" fill-opacity="0.2"/>
<circle cx="90.7194" cy="461.917" r="5.99382" transform="rotate(-90 90.7194 461.917)" fill="white" fill-opacity="0.2"/>
<circle cx="90.7194" cy="461.917" r="5.99382" transform="rotate(-90 90.7194 461.917)" fill="white" fill-opacity="0.2"/>
<circle cx="23.0886" cy="376.408" r="5.99382" transform="rotate(-90 23.0886 376.408)" fill="white" fill-opacity="0.2"/>
<circle cx="391.325" cy="372.848" r="5.99382" transform="rotate(-90 391.325 372.848)" fill="white" fill-opacity="0.2"/>
<circle cx="360.882" cy="369.271" r="5.99382" transform="rotate(-90 360.882 369.271)" fill="white" fill-opacity="0.2"/>
<circle cx="46.6413" cy="511.874" r="5.99382" transform="rotate(-90 46.6413 511.874)" fill="white" fill-opacity="0.2"/>
<circle cx="46.6413" cy="511.874" r="5.99382" transform="rotate(-90 46.6413 511.874)" fill="white" fill-opacity="0.2"/>
<path d="M-65.4839 295.364V241.419L55.7758 120.16L55.7758 54.2278" stroke="white" stroke-opacity="0.2"/>
<path d="M337.778 287.987V234.043L459.038 112.783V46.8508" stroke="white" stroke-opacity="0.2"/>
<path d="M261.263 290.151V163.819H324.428V95.1209L361.775 56.3916" stroke="white" stroke-opacity="0.2"/>
<path d="M391.484 59.4484V104.633L350.91 145.206H324.168" stroke="white" stroke-opacity="0.2"/>
<path d="M-98.6621 297.33V230.475L23.0586 107.833L23.0586 62.6483" stroke="white" stroke-opacity="0.2"/>
<path d="M304.601 289.953V223.098L426.322 100.455V55.2713" stroke="white" stroke-opacity="0.2"/>
<path d="M-25.4883 297.665V282.45L18.3127 239.11L18.3127 297.665" stroke="white" stroke-opacity="0.2"/>
<path d="M-25.4883 297.665V282.45L18.3127 239.11L18.3127 297.665" stroke="white" stroke-opacity="0.2"/>
<path d="M377.774 290.288V275.073L421.575 231.733V290.288" stroke="white" stroke-opacity="0.2"/>
<path d="M47.5757 200.571L47.5757 253.132H92.2988V149.854" stroke="white" stroke-opacity="0.2"/>
<path d="M47.5757 200.571L47.5757 253.132H92.2988V149.854" stroke="white" stroke-opacity="0.2"/>
<path d="M69.8208 252.672V212.559" stroke="white" stroke-opacity="0.2"/>
<path d="M85.731 297.274L126.766 258.083L126.766 152.039L78.354 103.627L78.354 44.6111" stroke="white" stroke-opacity="0.2"/>
<path d="M232.189 296.884V252.622L185.16 296.884V207.438" stroke="white" stroke-opacity="0.2"/>
<path d="M263.476 195.544L223.363 195.544L102.104 72.9014V23.1066" stroke="white" stroke-opacity="0.2"/>
<path d="M264.287 153.082H243.078L155.937 65.9414V36.4334L125.045 5.08105" stroke="white" stroke-opacity="0.2"/>
<path d="M264.571 92.6428H227.686V38.6984L177.891 38.6984L146.539 6.42397V-30" stroke="white" stroke-opacity="0.2"/>
<circle cx="289.21" cy="125.172" r="5.99382" transform="rotate(-90 289.21 125.172)" fill="white" fill-opacity="0.2"/>
<circle cx="69.7482" cy="213.02" r="5.99382" transform="rotate(-90 69.7482 213.02)" fill="white" fill-opacity="0.2"/>
<circle cx="69.7482" cy="213.02" r="5.99382" transform="rotate(-90 69.7482 213.02)" fill="white" fill-opacity="0.2"/>
<circle cx="147.501" cy="292.96" r="5.99382" transform="rotate(-90 147.501 292.96)" fill="white" fill-opacity="0.2"/>
<circle cx="184.996" cy="207.986" r="5.99382" transform="rotate(-90 184.996 207.986)" fill="white" fill-opacity="0.2"/>
<circle cx="90.7194" cy="148.394" r="5.99382" transform="rotate(-90 90.7194 148.394)" fill="white" fill-opacity="0.2"/>
<circle cx="90.7194" cy="148.394" r="5.99382" transform="rotate(-90 90.7194 148.394)" fill="white" fill-opacity="0.2"/>
<circle cx="23.0886" cy="62.8843" r="5.99382" transform="rotate(-90 23.0886 62.8843)" fill="white" fill-opacity="0.2"/>
<circle cx="391.325" cy="59.3247" r="5.99382" transform="rotate(-90 391.325 59.3247)" fill="white" fill-opacity="0.2"/>
<circle cx="360.882" cy="55.7482" r="5.99382" transform="rotate(-90 360.882 55.7482)" fill="white" fill-opacity="0.2"/>
<circle cx="46.6413" cy="198.351" r="5.99382" transform="rotate(-90 46.6413 198.351)" fill="white" fill-opacity="0.2"/>
<circle cx="46.6413" cy="198.351" r="5.99382" transform="rotate(-90 46.6413 198.351)" fill="white" fill-opacity="0.2"/>
</svg>
