<svg width="617" height="511" viewBox="0 0 617 511" fill="none" xmlns="http://www.w3.org/2000/svg">
<path d="M606.9 357C607 351.8 604.4 346.5 599.3 343.5L422 241.3C414.9 237.2 406.1 237.2 399 241.3L223 343.6C217.9 346.6 215.4 351.7 215.4 356.9C215.4 362.1 215.4 383.7 215.4 388.8C215.4 393.9 218 399.1 223.1 402L392.7 499.9C404.6 506.8 419.2 506.7 431 499.8L599.3 402C604.4 399 606.9 393.9 606.9 388.7C606.9 383.6 606.8 362.1 606.9 357Z" fill="url(#paint0_linear)"/>
<path d="M399 241.3L223 343.6C212.8 349.5 212.9 364.2 223 370.1L392.6 468C404.5 474.9 419.1 474.8 430.9 467.9L599.2 370.1C609.4 364.2 609.3 349.5 599.2 343.6L422 241.3C414.9 237.1 406.1 237.2 399 241.3Z" fill="url(#paint1_linear)"/>
<path d="M376.9 471.2L305.3 429.8C304.2 429.2 303.4 429.7 303.4 430.9V435.2C303.4 436.4 304.3 437.9 305.3 438.5L376.9 479.9C378 480.5 378.8 480 378.8 478.8V474.5C378.9 473.3 378 471.8 376.9 471.2Z" fill="url(#paint2_linear)"/>
<path d="M376.9 471.2L308.3 431.6V432.5C308.3 433.7 309.2 435.2 310.2 435.8L378.8 475.4V474.5C378.9 473.3 378 471.8 376.9 471.2Z" fill="white"/>
<path d="M458.7 469.2L530.3 427.8C531.4 427.2 532.2 427.7 532.2 428.9V433.2C532.2 434.4 531.3 435.9 530.3 436.5L458.7 477.9C457.6 478.5 456.8 478 456.8 476.8V472.5C456.7 471.3 457.6 469.8 458.7 469.2Z" fill="url(#paint3_linear)"/>
<path d="M458.7 469.2L527.3 429.6V430.5C527.3 431.7 526.4 433.2 525.4 433.8L456.8 473.4V472.5C456.7 471.3 457.6 469.8 458.7 469.2Z" fill="white"/>
<path opacity="0.85" d="M557.8 454.6C557.8 454.1 557.6 453.7 557.4 453.5L524.9 420.9C524.5 420.6 524 420.5 523.3 420.9L451.7 462.3C451.2 462.6 450.8 463.1 450.4 463.6C450 464.2 449.8 465 449.8 465.6V469.9C449.8 470.4 450 470.8 450.3 471.1L482.7 503.6C482.7 503.6 482.7 503.6 482.8 503.7L482.9 503.8C483.3 504 483.8 504 484.3 503.7L555.9 462.3C557 461.7 557.8 460.2 557.8 459V454.6Z" fill="url(#paint4_linear)"/>
<path opacity="0.85" d="M272.8 461.6C272.8 461.1 273 460.7 273.2 460.5L305.7 427.9C306.1 427.6 306.6 427.5 307.3 427.9L378.9 469.3C379.4 469.6 379.8 470.1 380.2 470.6C380.6 471.2 380.8 472 380.8 472.6V476.9C380.8 477.4 380.6 477.8 380.3 478.1L347.9 510.6C347.9 510.6 347.9 510.6 347.8 510.7L347.7 510.8C347.3 511 346.8 511 346.3 510.7L274.7 469.3C273.6 468.7 272.8 467.2 272.8 466V461.6Z" fill="url(#paint5_linear)"/>
<path d="M587.699 350C587.699 349.4 587.399 348.9 586.899 348.5L567.299 337.2C566.499 336.7 565.499 336.7 564.799 337.2L545.199 348.5C544.599 348.8 544.399 349.4 544.399 350V360.2C544.399 360.8 544.699 361.3 545.199 361.7L563.999 372.5C565.299 373.3 566.899 373.3 568.199 372.5L586.799 361.7C587.399 361.4 587.599 360.8 587.599 360.2L587.699 350Z" fill="url(#paint6_linear)"/>
<path d="M564.7 337.2L545.2 348.5C544.1 349.2 544.1 350.8 545.2 351.4L564 362.2C565.3 363 566.9 363 568.2 362.2L586.8 351.4C587.9 350.7 587.9 349.1 586.8 348.5L567.2 337.2C566.4 336.8 565.5 336.8 564.7 337.2Z" fill="url(#paint7_linear)"/>
<path d="M471.4 417.4C471.4 416.8 471.1 416.3 470.6 415.9L451 404.6C450.2 404.1 449.2 404.1 448.5 404.6L429 415.9C428.4 416.2 428.2 416.8 428.2 417.4V427.6C428.2 428.2 428.5 428.7 429 429.1L447.8 439.9C449.1 440.7 450.7 440.7 452 439.9L470.6 429.1C471.2 428.8 471.4 428.2 471.4 427.6V417.4Z" fill="url(#paint8_linear)"/>
<path d="M448.4 404.6L428.9 415.9C427.8 416.6 427.8 418.2 428.9 418.8L447.7 429.6C449 430.4 450.6 430.4 451.9 429.6L470.5 418.8C471.6 418.1 471.6 416.5 470.5 415.9L450.9 404.6C450.2 404.2 449.2 404.2 448.4 404.6Z" fill="url(#paint9_linear)"/>
<path d="M236.9 350C236.9 349.4 237.2 348.9 237.7 348.5L257.3 337.2C258.1 336.7 259.1 336.7 259.8 337.2L279.3 348.5C279.9 348.8 280.1 349.4 280.1 350V360.2C280.1 360.8 279.8 361.3 279.3 361.7L260.6 372.5C259.3 373.3 257.7 373.3 256.4 372.5L237.8 361.7C237.2 361.4 237 360.8 237 360.2L236.9 350Z" fill="url(#paint10_linear)"/>
<path d="M259.9 337.2L279.4 348.5C280.5 349.2 280.5 350.8 279.4 351.4L260.6 362.2C259.3 363 257.7 363 256.4 362.2L237.8 351.5C236.7 350.8 236.7 349.2 237.8 348.6L257.4 337.3C258.2 336.8 259.1 336.8 259.9 337.2Z" fill="url(#paint11_linear)"/>
<path d="M353.2 417.4C353.2 416.8 353.5 416.3 354 415.9L373.6 404.6C374.4 404.1 375.4 404.1 376.1 404.6L395.6 415.9C396.2 416.2 396.4 416.8 396.4 417.4V427.6C396.4 428.2 396.1 428.7 395.6 429.1L376.8 439.9C375.5 440.7 373.9 440.7 372.6 439.9L354 429.1C353.4 428.8 353.2 428.2 353.2 427.6V417.4Z" fill="url(#paint12_linear)"/>
<path d="M376.2 404.6L395.7 415.9C396.8 416.6 396.8 418.2 395.7 418.8L376.9 429.6C375.6 430.4 374 430.4 372.7 429.6L354.1 418.8C353 418.1 353 416.5 354.1 415.9L373.7 404.6C374.4 404.2 375.4 404.2 376.2 404.6Z" fill="url(#paint13_linear)"/>
<path d="M606.9 300C607 294.8 604.4 289.5 599.3 286.5L422 184.2C414.9 180.1 406.1 180.1 399 184.2L223 286.5C217.9 289.5 215.4 294.6 215.4 299.8C215.4 305 215.4 326.6 215.4 331.7C215.4 336.8 218 342 223.1 344.9L392.7 442.8C404.6 449.7 419.2 449.6 431 442.7L599.3 344.9C604.4 341.9 606.9 336.8 606.9 331.6C606.9 326.5 606.8 305 606.9 300Z" fill="url(#paint14_linear)"/>
<path d="M399 184.2L223 286.5C212.8 292.4 212.9 307.1 223 313L392.6 410.9C404.5 417.8 419.1 417.7 430.9 410.8L599.2 313C609.4 307.1 609.3 292.4 599.2 286.5L422 184.2C414.9 180.1 406.1 180.1 399 184.2Z" fill="url(#paint15_linear)"/>
<path d="M510.7 372.1L582.3 330.7C583.4 330.1 584.2 330.6 584.2 331.8V336.1C584.2 337.3 583.3 338.8 582.3 339.4L510.7 380.8C509.6 381.4 508.8 380.9 508.8 379.7V375.4C508.7 374.2 509.6 372.7 510.7 372.1Z" fill="url(#paint16_linear)"/>
<path d="M510.7 372.1L579.3 332.5V333.4C579.3 334.6 578.4 336.1 577.4 336.7L508.8 376.3V375.4C508.7 374.2 509.6 372.7 510.7 372.1Z" fill="white"/>
<path opacity="0.85" d="M616.8 364.5C616.8 364 616.6 363.6 616.4 363.4L583.9 330.8C583.5 330.5 583 330.4 582.3 330.8L510.7 372.2C510.2 372.5 509.8 373 509.4 373.5C509 374.1 508.8 374.9 508.8 375.5V379.8C508.8 380.3 509 380.7 509.3 381L541.7 413.5C541.7 413.5 541.7 413.5 541.8 413.6L541.9 413.7C542.3 413.9 542.8 413.9 543.3 413.6L614.9 372.2C616 371.6 616.8 370.1 616.8 368.9V364.5Z" fill="url(#paint17_linear)"/>
<path d="M308.9 372.1L237.3 330.7C236.2 330.1 235.4 330.6 235.4 331.8V336.1C235.4 337.3 236.3 338.8 237.3 339.4L308.9 380.8C310 381.4 310.8 380.9 310.8 379.7V375.4C310.9 374.2 310 372.7 308.9 372.1Z" fill="url(#paint18_linear)"/>
<path d="M308.9 372.1L240.3 332.5V333.4C240.3 334.6 241.2 336.1 242.2 336.7L310.8 376.3V375.4C310.9 374.2 310 372.7 308.9 372.1Z" fill="white"/>
<path opacity="0.85" d="M202.8 364.5C202.8 364 203 363.6 203.2 363.4L235.7 330.8C236.1 330.5 236.6 330.4 237.3 330.8L308.9 372.2C309.4 372.5 309.8 373 310.2 373.5C310.6 374.1 310.8 374.9 310.8 375.5V379.8C310.8 380.3 310.6 380.7 310.3 381L277.9 413.5C277.9 413.5 277.9 413.5 277.8 413.6L277.7 413.7C277.3 413.9 276.8 413.9 276.3 413.6L204.7 372.2C203.6 371.6 202.8 370.1 202.8 368.9V364.5Z" fill="url(#paint19_linear)"/>
<path d="M446.899 227.1C446.899 226.2 446.399 225.2 445.499 224.7L413.099 206C411.799 205.2 410.199 205.3 408.899 206L376.799 224.7C375.899 225.2 375.399 226.2 375.399 227.1V243.9C375.399 244.8 375.899 245.8 376.799 246.3L407.799 264.2C409.999 265.5 412.599 265.4 414.799 264.2L445.499 246.3C446.399 245.8 446.899 244.8 446.899 243.9V227.1Z" fill="url(#paint20_linear)"/>
<path d="M408.899 206L376.8 224.7C374.9 225.8 374.9 228.5 376.8 229.5L407.8 247.4C410 248.7 412.6 248.6 414.8 247.4L445.5 229.5C447.4 228.4 447.4 225.7 445.5 224.7L413.099 206C411.799 205.3 410.199 205.3 408.899 206Z" fill="url(#paint21_linear)"/>
<path d="M454.299 213.3C454.299 212.2 453.699 211 452.599 210.4L413.499 187.8C411.899 186.9 409.999 186.9 408.399 187.8L369.599 210.4C368.499 211.1 367.899 212.2 367.899 213.3V233.6C367.899 234.7 368.499 235.9 369.599 236.5L406.999 258.1C409.599 259.6 412.799 259.6 415.499 258.1L452.599 236.5C453.699 235.8 454.299 234.7 454.299 233.6V213.3Z" fill="url(#paint22_linear)"/>
<path d="M408.499 187.8L369.699 210.4C367.499 211.7 367.499 214.9 369.699 216.2L407.099 237.8C409.699 239.3 412.899 239.3 415.599 237.8L452.699 216.2C454.899 214.9 454.899 211.7 452.699 210.4L413.599 187.8C411.999 186.9 409.999 186.9 408.499 187.8Z" fill="url(#paint23_linear)"/>
<path d="M446.899 194C446.899 193.1 446.399 192.1 445.499 191.6L413.099 172.9C411.799 172.1 410.199 172.2 408.899 172.9L376.799 191.6C375.899 192.1 375.399 193.1 375.399 194V210.8C375.399 211.7 375.899 212.7 376.799 213.2L407.799 231.1C409.999 232.4 412.599 232.3 414.799 231.1L445.499 213.2C446.399 212.7 446.899 211.7 446.899 210.8V194Z" fill="url(#paint24_linear)"/>
<path d="M408.899 172.9L376.8 191.6C374.9 192.7 374.9 195.4 376.8 196.4L407.8 214.3C410 215.6 412.6 215.5 414.8 214.3L445.5 196.4C447.4 195.3 447.4 192.6 445.5 191.6L413.099 172.9C411.799 172.2 410.199 172.2 408.899 172.9Z" fill="url(#paint25_linear)"/>
<path d="M454.299 180.2C454.299 179.1 453.699 177.9 452.599 177.3L413.499 154.7C411.899 153.8 409.999 153.8 408.399 154.7L369.599 177.3C368.499 178 367.899 179.1 367.899 180.2V200.5C367.899 201.6 368.499 202.8 369.599 203.4L406.999 225C409.599 226.5 412.799 226.5 415.499 225L452.599 203.4C453.699 202.7 454.299 201.6 454.299 200.5V180.2Z" fill="url(#paint26_linear)"/>
<path d="M408.499 154.7L369.699 177.3C367.499 178.6 367.499 181.8 369.699 183.1L407.099 204.7C409.699 206.2 412.899 206.2 415.599 204.7L452.699 183.1C454.899 181.8 454.899 178.6 452.699 177.3L413.599 154.7C411.999 153.8 409.999 153.8 408.499 154.7Z" fill="url(#paint27_linear)"/>
<path d="M446.899 160.9C446.899 160 446.399 159 445.499 158.5L413.099 139.8C411.799 139 410.199 139.1 408.899 139.8L376.799 158.5C375.899 159 375.399 160 375.399 160.9V177.7C375.399 178.6 375.899 179.6 376.799 180.1L407.799 198C409.999 199.3 412.599 199.2 414.799 198L445.499 180.1C446.399 179.6 446.899 178.6 446.899 177.7V160.9Z" fill="url(#paint28_linear)"/>
<path d="M408.899 139.8L376.8 158.5C374.9 159.6 374.9 162.3 376.8 163.3L407.8 181.2C410 182.5 412.6 182.4 414.8 181.2L445.5 163.3C447.4 162.2 447.4 159.5 445.5 158.5L413.099 139.8C411.799 139.1 410.199 139.1 408.899 139.8Z" fill="url(#paint29_linear)"/>
<path d="M454.299 147.1C454.299 146 453.699 144.8 452.599 144.2L413.499 121.6C411.899 120.7 409.999 120.7 408.399 121.6L369.599 144.2C368.499 144.9 367.899 146 367.899 147.1V167.4C367.899 168.5 368.499 169.7 369.599 170.3L406.999 191.9C409.599 193.4 412.799 193.4 415.499 191.9L452.599 170.3C453.699 169.6 454.299 168.5 454.299 167.4V147.1Z" fill="url(#paint30_linear)"/>
<path d="M408.499 121.6L369.699 144.2C367.499 145.5 367.499 148.7 369.699 150L407.099 171.6C409.699 173.1 412.899 173.1 415.599 171.6L452.699 150C454.899 148.7 454.899 145.5 452.699 144.2L413.599 121.6C411.999 120.7 409.999 120.7 408.499 121.6Z" fill="url(#paint31_linear)"/>
<path d="M409.8 134.2L390.3 145.5C389.2 146.2 389.2 147.8 390.3 148.4L409.1 159.3C410.4 160.1 412 160.1 413.4 159.3L432.1 148.4C433.2 147.7 433.2 146.1 432.1 145.5L412.4 134.1C411.6 133.7 410.6 133.7 409.8 134.2Z" fill="url(#paint32_linear)"/>
<path d="M432.9 52H389.5V146.9C389.5 147.5 389.7 148.1 390.3 148.5L409.1 159.4C410.4 160.2 412 160.2 413.4 159.4L432.1 148.5C432.7 148.1 433 147.5 432.9 146.9V52Z" fill="url(#paint33_linear)"/>
<path d="M533.2 277.3C533.2 276.4 532.7 275.4 531.8 274.9L499.4 256.2C498.1 255.4 496.5 255.5 495.2 256.2L463.1 274.9C462.2 275.4 461.7 276.4 461.7 277.3V294.1C461.7 295 462.2 296 463.1 296.5L494.1 314.4C496.3 315.7 498.9 315.6 501.1 314.4L531.8 296.5C532.7 296 533.2 295 533.2 294.1V277.3Z" fill="url(#paint34_linear)"/>
<path d="M495.3 256.2L463.2 274.9C461.3 276 461.3 278.7 463.2 279.7L494.2 297.6C496.4 298.9 499 298.8 501.2 297.6L531.9 279.7C533.8 278.6 533.8 275.9 531.9 274.9L499.5 256.2C498.2 255.5 496.6 255.5 495.3 256.2Z" fill="url(#paint35_linear)"/>
<path d="M540.7 263.5C540.7 262.4 540.1 261.2 539 260.6L499.9 238C498.3 237.1 496.4 237.1 494.8 238L456 260.6C454.9 261.3 454.3 262.4 454.3 263.5V283.8C454.3 284.9 454.9 286.1 456 286.7L493.4 308.3C496 309.8 499.2 309.8 501.9 308.3L539 286.7C540.1 286 540.7 284.9 540.7 283.8V263.5Z" fill="url(#paint36_linear)"/>
<path d="M494.8 238L456 260.6C453.8 261.9 453.8 265.1 456 266.4L493.4 288C496 289.5 499.2 289.5 501.9 288L539 266.4C541.2 265.1 541.2 261.9 539 260.6L499.9 238C498.3 237.1 496.4 237.1 494.8 238Z" fill="url(#paint37_linear)"/>
<path d="M533.2 244.2C533.2 243.3 532.7 242.3 531.8 241.8L499.4 223.1C498.1 222.3 496.5 222.4 495.2 223.1L463.1 241.8C462.2 242.3 461.7 243.3 461.7 244.2V261C461.7 261.9 462.2 262.9 463.1 263.4L494.1 281.3C496.3 282.6 498.9 282.5 501.1 281.3L531.8 263.4C532.7 262.9 533.2 261.9 533.2 261V244.2Z" fill="url(#paint38_linear)"/>
<path d="M495.3 223.1L463.2 241.8C461.3 242.9 461.3 245.6 463.2 246.6L494.2 264.5C496.4 265.8 499 265.7 501.2 264.5L531.9 246.6C533.8 245.5 533.8 242.8 531.9 241.8L499.5 223.1C498.2 222.4 496.6 222.4 495.3 223.1Z" fill="url(#paint39_linear)"/>
<path d="M540.7 230.4C540.7 229.3 540.1 228.1 539 227.5L499.9 204.9C498.3 204 496.4 204 494.8 204.9L456 227.5C454.9 228.2 454.3 229.3 454.3 230.4V250.7C454.3 251.8 454.9 253 456 253.6L493.4 275.2C496 276.7 499.2 276.7 501.9 275.2L539 253.6C540.1 252.9 540.7 251.8 540.7 250.7V230.4Z" fill="url(#paint40_linear)"/>
<path d="M494.8 204.9L456 227.5C453.8 228.8 453.8 232 456 233.3L493.4 254.9C496 256.4 499.2 256.4 501.9 254.9L539 233.3C541.2 232 541.2 228.8 539 227.5L499.9 204.9C498.3 204 496.4 204 494.8 204.9Z" fill="url(#paint41_linear)"/>
<path d="M496.2 217.5L476.7 228.8C475.6 229.5 475.6 231.1 476.7 231.7L495.5 242.6C496.8 243.4 498.4 243.4 499.8 242.6L518.5 231.7C519.6 231 519.6 229.4 518.5 228.8L498.7 217.5C497.9 217 496.9 217 496.2 217.5Z" fill="url(#paint42_linear)"/>
<path d="M519.2 135.3H475.8V230.2C475.8 230.8 476 231.4 476.6 231.8L495.4 242.7C496.7 243.5 498.3 243.5 499.7 242.7L518.4 231.8C519 231.4 519.3 230.8 519.2 230.2V135.3Z" fill="url(#paint43_linear)"/>
<path d="M360.5 277.3C360.5 276.4 360 275.4 359.1 274.9L326.7 256.2C325.4 255.4 323.8 255.5 322.5 256.2L290.4 274.9C289.5 275.4 289 276.4 289 277.3V294.1C289 295 289.5 296 290.4 296.5L321.4 314.4C323.6 315.7 326.2 315.6 328.4 314.4L359.1 296.5C360 296 360.5 295 360.5 294.1V277.3Z" fill="url(#paint44_linear)"/>
<path d="M322.6 256.2L290.5 274.9C288.6 276 288.6 278.7 290.5 279.7L321.5 297.6C323.7 298.9 326.3 298.8 328.5 297.6L359.2 279.7C361.1 278.6 361.1 275.9 359.2 274.9L326.8 256.2C325.5 255.5 323.9 255.5 322.6 256.2Z" fill="url(#paint45_linear)"/>
<path d="M368 263.5C368 262.4 367.4 261.2 366.3 260.6L327.2 238C325.6 237.1 323.7 237.1 322.1 238L283.3 260.6C282.2 261.3 281.6 262.4 281.6 263.5V283.8C281.6 284.9 282.2 286.1 283.3 286.7L320.7 308.3C323.3 309.8 326.5 309.8 329.2 308.3L366.3 286.7C367.4 286 368 284.9 368 283.8V263.5Z" fill="url(#paint46_linear)"/>
<path d="M322.099 238L283.299 260.6C281.099 261.9 281.099 265.1 283.299 266.4L320.699 288C323.299 289.5 326.499 289.5 329.199 288L366.299 266.4C368.499 265.1 368.499 261.9 366.299 260.6L327.199 238C325.599 237.1 323.699 237.1 322.099 238Z" fill="url(#paint47_linear)"/>
<path d="M323.5 250.6L304 261.9C302.9 262.6 302.9 264.2 304 264.8L322.8 275.7C324.1 276.5 325.7 276.5 327.1 275.7L345.8 264.8C346.9 264.1 346.9 262.5 345.8 261.9L326.1 250.5C325.2 250.1 324.2 250.1 323.5 250.6Z" fill="url(#paint48_linear)"/>
<path d="M346.5 168.4H303.1V263.3C303.1 263.9 303.3 264.5 303.9 264.9L322.7 275.8C324 276.6 325.6 276.6 327 275.8L345.7 264.9C346.3 264.5 346.6 263.9 346.5 263.3V168.4Z" fill="url(#paint49_linear)"/>
<path d="M411.8 345.7C404.9 345.7 398 343.9 392 340.4L222.4 242.5C217.2 239.5 214.1 234.1 214.1 228.1C214.1 222.1 217.2 216.7 222.4 213.7L398.4 111.4C402.1 109.2 406.3 108.1 410.6 108.1C414.9 108.1 419.1 109.2 422.8 111.4L600.1 213.7C605.3 216.7 608.4 222.1 608.4 228.1C608.4 234.1 605.3 239.5 600.1 242.5L431.8 340.3C425.6 343.8 418.7 345.7 411.8 345.7ZM410.5 110.8C406.7 110.8 402.9 111.8 399.7 113.7L223.7 216C219.4 218.5 216.8 223 216.8 228.1C216.8 233.1 219.4 237.6 223.8 240.1L393.4 338C399 341.2 405.4 342.9 411.8 342.9C418.3 342.9 424.7 341.2 430.3 337.9L598.6 240.1C602.9 237.6 605.5 233.1 605.5 228C605.5 223 602.9 218.5 598.5 216L421.3 113.7C418 111.8 414.3 110.8 410.5 110.8Z" fill="url(#paint50_linear)"/>
<path d="M99.5998 79C99.4998 79 99.3998 78.9 99.3998 78.9C99.3998 78.9 99.2998 78.9 99.2998 78.8H99.1998H99.0998C98.9998 78.8 98.9998 78.8 98.8998 78.7H98.7998C98.6998 78.7 98.5998 78.7 98.4998 78.7H98.3998C98.2998 78.7 98.1998 78.7 98.0998 78.7H97.9998C97.8998 78.7 97.8998 78.7 97.7998 78.7H97.6998C97.5998 78.7 97.5998 78.7 97.4998 78.7C97.3998 78.7 97.2998 78.7 97.2998 78.7H97.1998H97.0998C96.9998 78.7 96.7998 78.8 96.6998 78.8C96.6998 78.8 96.5998 78.8 96.5998 78.9H96.4998C96.2998 79 95.9998 79.1 95.7998 79.3L5.7998 131.3L16.9998 137.8L107 85.8C107.2 85.7 107.5 85.5 107.7 85.4H107.8H107.9C108 85.3 108.2 85.3 108.3 85.3H108.4H108.5C108.6 85.3 108.7 85.3 108.7 85.3H108.8C108.9 85.3 108.9 85.3 109 85.3C109.1 85.3 109.1 85.3 109.2 85.3H109.3C109.4 85.3 109.5 85.3 109.6 85.3H109.7C109.8 85.3 109.9 85.3 110 85.3C110 85.3 110 85.3 110.1 85.3H110.2C110.3 85.3 110.3 85.3 110.4 85.3C110.5 85.3 110.5 85.3 110.5 85.4H110.6C110.6 85.4 110.6 85.4 110.7 85.4C110.8 85.4 110.9 85.5 111 85.5L99.5998 79Z" fill="url(#paint51_linear)"/>
<path d="M11.5999 361.1L0.399902 354.6C0.399902 356.4 0.999901 357.6 1.9999 358.2L13.1999 364.7C12.2999 364.2 11.5999 362.9 11.5999 361.1Z" fill="url(#paint52_linear)"/>
<path d="M5.5 131.4C5.1 131.6 4.8 131.9 4.4 132.1C4.3 132.2 4.2 132.3 4.1 132.4C3.9 132.5 3.8 132.7 3.6 132.8C3.5 132.9 3.4 132.9 3.4 133C3.3 133.1 3.3 133.1 3.2 133.2C3.1 133.3 3.1 133.4 3 133.4C2.8 133.6 2.7 133.8 2.5 134C2.4 134.1 2.4 134.1 2.3 134.2L2.2 134.3C2.2 134.4 2.1 134.4 2.1 134.5C2 134.7 1.9 134.8 1.8 135C1.7 135.2 1.6 135.3 1.5 135.5C1.4 135.6 1.4 135.8 1.3 135.9C1.2 136.1 1.1 136.2 1.1 136.4C0.999998 136.5 0.900002 136.7 0.900002 136.8C0.800002 137 0.799997 137.1 0.699997 137.3C0.599997 137.5 0.6 137.7 0.5 137.8C0.5 137.9 0.400002 138 0.400002 138.1V138.2C0.400002 138.3 0.400002 138.3 0.400002 138.4C0.300002 138.6 0.299997 138.8 0.199997 139.1C0.199997 139.2 0.0999985 139.4 0.0999985 139.5C0.0999985 139.6 0.0999985 139.6 0.0999985 139.7C0.0999985 139.8 0.0999985 139.8 0.0999985 139.9C0.0999985 140.3 0 140.6 0 141L0.5 354.5L11.7 361L11.1 147.6C11.1 147.2 11.1 146.9 11.2 146.5C11.2 146.4 11.2 146.4 11.2 146.3C11.2 146.2 11.2 146.2 11.2 146.1C11.2 146 11.2 145.8 11.3 145.7C11.3 145.5 11.4 145.3 11.5 145.1C11.5 145 11.5 145 11.6 144.9V144.8C11.6 144.7 11.7 144.6 11.7 144.5C11.8 144.3 11.8 144.1 11.9 144C12 143.8 12 143.7 12.1 143.5C12.2 143.4 12.2 143.2 12.3 143.1C12.4 142.9 12.5 142.8 12.5 142.6C12.6 142.5 12.6 142.3 12.7 142.2C12.8 142 12.9 141.9 13 141.7C13.1 141.5 13.2 141.4 13.3 141.2C13.3 141.1 13.4 141.1 13.4 141L13.5 140.9C13.6 140.8 13.6 140.8 13.7 140.7C13.8 140.5 14 140.3 14.2 140.1C14.3 140 14.3 140 14.4 139.9C14.5 139.8 14.5 139.8 14.6 139.7C14.7 139.6 14.7 139.5 14.8 139.5C15 139.3 15.1 139.2 15.3 139.1C15.4 139 15.5 138.9 15.6 138.8C15.9 138.5 16.3 138.3 16.7 138.1L5.5 131.4Z" fill="url(#paint53_linear)"/>
<path d="M106.7 85.9C109.8 84.1 112.3 85.6 112.3 89.1L112.8 302.6C112.8 306.2 110.3 310.5 107.2 312.3L17.2001 364.3C14.1001 366.1 11.6001 364.7 11.6001 361.1L11.1001 147.6C11.1001 144 13.6001 139.7 16.7001 137.9L106.7 85.9Z" fill="url(#paint54_linear)"/>
<path d="M7 192.2L2.1 189.3L2 167.3L6.9 170.2L7 192.2Z" fill="#FD8F0A"/>
<path d="M6.9 170.2L2 167.3L4 166.2L8.9 169L6.9 170.2Z" fill="#FD8F0A"/>
<path d="M8.8999 169L8.9999 191L6.9999 192.2L6.8999 170.2L8.8999 169Z" fill="#FD8F0A"/>
<path d="M7.1001 220.9L2.2001 218.1L2.1001 196.1L7.0001 199L7.1001 220.9Z" fill="#FD8F0A"/>
<path d="M7.0001 199L2.1001 196.1L4.1001 195L9.0001 197.8L7.0001 199Z" fill="#FD8F0A"/>
<path d="M9 197.8L9.1 219.8L7.1 220.9L7 199L9 197.8Z" fill="#FD8F0A"/>
<path d="M102.3 102.7C102.9 102.3 103.4 102.6 103.4 103.3L103.9 296.1C103.9 296.8 103.4 297.7 102.8 298L19.4999 346.1C18.8999 346.5 18.3999 346.2 18.3999 345.5L17.8999 152.7C17.8999 152 18.3999 151.1 18.9999 150.8L42.9999 137C43.4999 136.7 43.8999 136.8 44.0999 137.2L45.5999 140.9C45.7999 141.3 46.1999 141.4 46.6999 141.1L74.7999 124.9C75.2999 124.6 75.6999 124.1 75.8999 123.5L77.3999 118C77.5999 117.4 77.9999 116.8 78.4999 116.6L102.3 102.7Z" fill="url(#paint55_linear)"/>
<path d="M169 141.6C151 131.6 121.5 113.8 102.3 102.8L78.3002 116.6C77.8002 116.9 77.4002 117.4 77.2002 118L75.7002 123.5C75.5002 124.1 75.1002 124.7 74.6002 124.9L46.5002 141.1C46.0002 141.4 45.6002 141.3 45.4002 140.9L43.9002 137.2C43.7002 136.8 43.3002 136.7 42.8002 137L18.8002 150.8C18.2002 151.2 17.7002 152 17.7002 152.7L18.2002 345.5C18.2002 345.9 18.3002 346.1 18.5002 346.2C18.7002 346.3 83.8002 385.1 84.4002 384.8L167.7 337.6C168.3 337.2 168.8 336.4 168.8 335.7V141.6H169Z" fill="url(#paint56_linear)"/>
<path d="M43.5002 137.2L45.0002 140.9C45.2002 141.2 45.5002 141.4 45.9002 141.2C45.8002 141.1 45.7002 141 45.6002 140.9L44.1002 137.2C44.0002 136.8 43.6002 136.8 43.2002 136.9C43.3002 137 43.4002 137 43.5002 137.2Z" fill="url(#paint57_linear)"/>
<path d="M103.4 103.4C103.4 102.8 103 102.5 102.5 102.7C102.7 102.8 102.8 103.1 102.8 103.4L103.3 296.2C103.3 296.9 102.8 297.8 102.2 298.1L18.9002 346.2C18.8002 346.2 18.8002 346.2 18.7002 346.3C18.9002 346.4 19.2002 346.4 19.5002 346.2L102.8 298.1C103.4 297.7 103.9 296.9 103.9 296.2L103.4 103.4Z" fill="url(#paint58_linear)"/>
<path d="M313.1 45.7C312.1 38.7 309.3 32.3 305.3 26.9L311.2 18.3L305 12.1L296.4 18C291 14 284.6 11.3 277.6 10.2L275.7 0H267L265.1 10.3C258.1 11.3 251.7 14.1 246.3 18.1L237.7 12.2L231.5 18.4L237.4 27C233.4 32.4 230.7 38.8 229.6 45.8L219.4 47.7V56.4L229.6 58.3C230.6 65.3 233.4 71.7 237.4 77.1L231.5 85.7L237.7 91.9L246.3 86C251.7 90 258.1 92.7 265.1 93.8L267 104H275.7L277.6 93.8C284.6 92.8 291 90 296.4 86L305 91.9L311.2 85.7L305.3 77.1C309.3 71.7 312 65.3 313.1 58.3L323.3 56.4V47.7L313.1 45.7ZM271.4 59.1C267.4 59.1 264.2 55.9 264.2 51.9C264.2 47.9 267.4 44.7 271.4 44.7C275.4 44.7 278.6 47.9 278.6 51.9C278.5 55.9 275.3 59.1 271.4 59.1Z" fill="url(#paint59_linear)"/>
<path d="M271.4 28.1C258.2 28.1 247.6 38.8 247.6 51.9C247.6 65.1 258.3 75.7 271.4 75.7C284.6 75.7 295.2 65 295.2 51.9C295.2 38.8 284.6 28.1 271.4 28.1ZM271.4 59.1C267.4 59.1 264.2 55.9 264.2 51.9C264.2 47.9 267.4 44.7 271.4 44.7C275.4 44.7 278.6 47.9 278.6 51.9C278.5 55.9 275.3 59.1 271.4 59.1Z" fill="url(#paint60_linear)"/>
<path d="M584.3 112.5C583.9 109.5 582.7 106.7 580.9 104.4L583.4 100.7L580.7 98L577 100.5C574.7 98.8 571.9 97.6 568.9 97.1L568.1 92.7H564.3L563.5 97.1C560.5 97.5 557.7 98.7 555.4 100.5L551.7 98L549 100.7L551.5 104.4C549.8 106.7 548.6 109.5 548.1 112.5L543.7 113.3V117.1L548.1 117.9C548.5 120.9 549.7 123.7 551.5 126L549 129.7L551.7 132.4L555.4 129.9C557.7 131.6 560.5 132.8 563.5 133.3L564.3 137.7H568.1L568.9 133.3C571.9 132.9 574.7 131.7 577 129.9L580.7 132.4L583.4 129.7L580.9 126C582.6 123.7 583.8 120.9 584.3 117.9L588.7 117.1V113.3L584.3 112.5ZM566.3 118.3C564.6 118.3 563.2 116.9 563.2 115.2C563.2 113.5 564.6 112.1 566.3 112.1C568 112.1 569.4 113.5 569.4 115.2C569.3 116.9 568 118.3 566.3 118.3Z" fill="url(#paint61_linear)"/>
<path d="M566.3 104.9C560.6 104.9 556 109.5 556 115.2C556 120.9 560.6 125.5 566.3 125.5C572 125.5 576.6 120.9 576.6 115.2C576.5 109.5 571.9 104.9 566.3 104.9ZM566.3 118.3C564.6 118.3 563.2 116.9 563.2 115.2C563.2 113.5 564.6 112.1 566.3 112.1C568 112.1 569.4 113.5 569.4 115.2C569.3 116.9 568 118.3 566.3 118.3Z" fill="url(#paint62_linear)"/>
<path d="M224.3 125.2C223.9 122.2 222.7 119.4 220.9 117.1L223.4 113.4L220.7 110.7L217 113.2C214.7 111.5 211.9 110.3 208.9 109.8L208.1 105.4H204.3L203.5 109.8C200.5 110.2 197.7 111.4 195.4 113.2L191.7 110.7L189 113.4L191.5 117.1C189.8 119.4 188.6 122.2 188.1 125.2L183.7 126V129.8L188.1 130.6C188.5 133.6 189.7 136.4 191.5 138.7L189 142.4L191.7 145.1L195.4 142.6C197.7 144.3 200.5 145.5 203.5 146L204.3 150.4H208.1L208.9 146C211.9 145.6 214.7 144.4 217 142.6L220.7 145.1L223.4 142.4L220.9 138.7C222.6 136.4 223.8 133.6 224.3 130.6L228.7 129.8V126L224.3 125.2ZM206.3 131C204.6 131 203.2 129.6 203.2 127.9C203.2 126.2 204.6 124.8 206.3 124.8C208 124.8 209.4 126.2 209.4 127.9C209.4 129.6 208 131 206.3 131Z" fill="url(#paint63_linear)"/>
<path d="M206.3 117.6C200.6 117.6 196 122.2 196 127.9C196 133.6 200.6 138.2 206.3 138.2C212 138.2 216.6 133.6 216.6 127.9C216.6 122.2 212 117.6 206.3 117.6ZM206.3 131C204.6 131 203.2 129.6 203.2 127.9C203.2 126.2 204.6 124.8 206.3 124.8C208 124.8 209.4 126.2 209.4 127.9C209.4 129.6 208 131 206.3 131Z" fill="url(#paint64_linear)"/>
<defs>
<linearGradient id="paint0_linear" x1="215.401" y1="371.588" x2="606.913" y2="371.588" gradientUnits="userSpaceOnUse">
<stop stop-color="white"/>
<stop offset="1" stop-color="white"/>
</linearGradient>
<linearGradient id="paint1_linear" x1="290.065" y1="355.627" x2="681.575" y2="355.627" gradientUnits="userSpaceOnUse">
<stop stop-color="#FD8F0A"/>
<stop offset="1" stop-color="#FD8F0A" stop-opacity="0.66"/>
</linearGradient>
<linearGradient id="paint2_linear" x1="362.905" y1="454.844" x2="250.329" y2="454.844" gradientUnits="userSpaceOnUse">
<stop stop-color="#481368"/>
<stop offset="1" stop-color="#801C7D"/>
</linearGradient>
<linearGradient id="paint3_linear" x1="472.664" y1="452.844" x2="585.241" y2="452.844" gradientUnits="userSpaceOnUse">
<stop stop-color="#481368"/>
<stop offset="1" stop-color="#801C7D"/>
</linearGradient>
<linearGradient id="paint4_linear" x1="486.273" y1="431.865" x2="513.741" y2="479.416" gradientUnits="userSpaceOnUse">
<stop stop-color="#FD8F0A"/>
<stop offset="1" stop-color="#FD8F0A"/>
</linearGradient>
<linearGradient id="paint5_linear" x1="344.297" y1="438.865" x2="316.829" y2="486.416" gradientUnits="userSpaceOnUse">
<stop stop-color="#FD8F0A"/>
<stop offset="1" stop-color="#FD8F0A"/>
</linearGradient>
<linearGradient id="paint6_linear" x1="576.494" y1="354.965" x2="533.697" y2="354.965" gradientUnits="userSpaceOnUse">
<stop stop-color="#A7A9AC"/>
<stop offset="1" stop-color="#D1D3D4"/>
</linearGradient>
<linearGradient id="paint7_linear" x1="544.37" y1="349.878" x2="587.666" y2="349.878" gradientUnits="userSpaceOnUse">
<stop stop-color="#92278F"/>
<stop offset="1" stop-color="#662D91"/>
</linearGradient>
<linearGradient id="paint8_linear" x1="460.253" y1="422.341" x2="417.456" y2="422.341" gradientUnits="userSpaceOnUse">
<stop stop-color="#A7A9AC"/>
<stop offset="1" stop-color="#D1D3D4"/>
</linearGradient>
<linearGradient id="paint9_linear" x1="428.129" y1="417.254" x2="471.425" y2="417.254" gradientUnits="userSpaceOnUse">
<stop stop-color="#92278F"/>
<stop offset="1" stop-color="#662D91"/>
</linearGradient>
<linearGradient id="paint10_linear" x1="248.093" y1="354.965" x2="290.89" y2="354.965" gradientUnits="userSpaceOnUse">
<stop stop-color="#D1D3D4"/>
<stop offset="1" stop-color="#A7A9AC"/>
</linearGradient>
<linearGradient id="paint11_linear" x1="280.217" y1="349.878" x2="236.92" y2="349.878" gradientUnits="userSpaceOnUse">
<stop stop-color="#92278F"/>
<stop offset="1" stop-color="#662D91"/>
</linearGradient>
<linearGradient id="paint12_linear" x1="364.334" y1="422.341" x2="407.131" y2="422.341" gradientUnits="userSpaceOnUse">
<stop stop-color="#D1D3D4"/>
<stop offset="1" stop-color="#A7A9AC"/>
</linearGradient>
<linearGradient id="paint13_linear" x1="396.458" y1="417.254" x2="353.162" y2="417.254" gradientUnits="userSpaceOnUse">
<stop stop-color="#92278F"/>
<stop offset="1" stop-color="#662D91"/>
</linearGradient>
<linearGradient id="paint14_linear" x1="215.401" y1="314.518" x2="606.913" y2="314.518" gradientUnits="userSpaceOnUse">
<stop stop-color="white"/>
<stop offset="0.886378" stop-color="white" stop-opacity="0.74295"/>
<stop offset="1" stop-color="white" stop-opacity="0.71"/>
</linearGradient>
<linearGradient id="paint15_linear" x1="215.403" y1="298.557" x2="606.913" y2="298.557" gradientUnits="userSpaceOnUse">
<stop stop-color="white"/>
<stop offset="1" stop-color="#FD8F0A"/>
</linearGradient>
<linearGradient id="paint16_linear" x1="524.664" y1="355.774" x2="637.241" y2="355.774" gradientUnits="userSpaceOnUse">
<stop stop-color="#588B8B"/>
<stop offset="1" stop-color="#588B8B"/>
</linearGradient>
<linearGradient id="paint17_linear" x1="545.273" y1="341.799" x2="572.741" y2="389.349" gradientUnits="userSpaceOnUse">
<stop stop-color="#FD8F0A"/>
<stop offset="1" stop-color="#FD8F0A"/>
</linearGradient>
<linearGradient id="paint18_linear" x1="294.905" y1="355.774" x2="182.329" y2="355.774" gradientUnits="userSpaceOnUse">
<stop stop-color="#588B8B"/>
<stop offset="1" stop-color="#801C7D"/>
</linearGradient>
<linearGradient id="paint19_linear" x1="274.297" y1="341.799" x2="246.829" y2="389.349" gradientUnits="userSpaceOnUse">
<stop stop-color="#FD8F0A"/>
<stop offset="1" stop-color="#FD8F0A"/>
</linearGradient>
<linearGradient id="paint20_linear" x1="428.453" y1="235.291" x2="357.795" y2="235.291" gradientUnits="userSpaceOnUse">
<stop stop-color="#A7A9AC"/>
<stop offset="1" stop-color="#D1D3D4"/>
</linearGradient>
<linearGradient id="paint21_linear" x1="375.416" y1="226.892" x2="446.899" y2="226.892" gradientUnits="userSpaceOnUse">
<stop stop-color="#92278F"/>
<stop offset="1" stop-color="#662D91"/>
</linearGradient>
<linearGradient id="paint22_linear" x1="454.607" y1="223.179" x2="382.052" y2="223.179" gradientUnits="userSpaceOnUse">
<stop stop-color="#D1D3D4"/>
<stop offset="1" stop-color="#F1F2F2"/>
</linearGradient>
<linearGradient id="paint23_linear" x1="367.983" y1="213.033" x2="454.332" y2="213.033" gradientUnits="userSpaceOnUse">
<stop stop-color="white"/>
<stop offset="1" stop-color="white"/>
</linearGradient>
<linearGradient id="paint24_linear" x1="428.453" y1="202.195" x2="357.795" y2="202.195" gradientUnits="userSpaceOnUse">
<stop stop-color="#A7A9AC"/>
<stop offset="1" stop-color="#D1D3D4"/>
</linearGradient>
<linearGradient id="paint25_linear" x1="375.416" y1="193.796" x2="446.899" y2="193.796" gradientUnits="userSpaceOnUse">
<stop stop-color="#92278F"/>
<stop offset="1" stop-color="#662D91"/>
</linearGradient>
<linearGradient id="paint26_linear" x1="454.607" y1="190.083" x2="381.629" y2="190.083" gradientUnits="userSpaceOnUse">
<stop stop-color="#D1D3D4"/>
<stop offset="1" stop-color="#F1F2F2"/>
</linearGradient>
<linearGradient id="paint27_linear" x1="367.983" y1="179.937" x2="454.332" y2="179.937" gradientUnits="userSpaceOnUse">
<stop stop-color="#FD8F0A"/>
<stop offset="1" stop-color="#FD8F0A"/>
</linearGradient>
<linearGradient id="paint28_linear" x1="428.453" y1="169.099" x2="357.795" y2="169.099" gradientUnits="userSpaceOnUse">
<stop stop-color="#A7A9AC"/>
<stop offset="1" stop-color="#D1D3D4"/>
</linearGradient>
<linearGradient id="paint29_linear" x1="375.416" y1="160.7" x2="446.899" y2="160.7" gradientUnits="userSpaceOnUse">
<stop stop-color="#92278F"/>
<stop offset="1" stop-color="#662D91"/>
</linearGradient>
<linearGradient id="paint30_linear" x1="455.45" y1="156.987" x2="382.551" y2="156.987" gradientUnits="userSpaceOnUse">
<stop stop-color="#D1D3D4"/>
<stop offset="1" stop-color="#F1F2F2"/>
</linearGradient>
<linearGradient id="paint31_linear" x1="367.983" y1="146.841" x2="454.332" y2="146.841" gradientUnits="userSpaceOnUse">
<stop stop-color="white"/>
<stop offset="1" stop-color="white"/>
</linearGradient>
<linearGradient id="paint32_linear" x1="411.158" y1="138.405" x2="411.158" y2="167.555" gradientUnits="userSpaceOnUse">
<stop stop-color="#511C74"/>
<stop offset="1" stop-color="#92278F"/>
</linearGradient>
<linearGradient id="paint33_linear" x1="411.158" y1="160.283" x2="411.158" y2="61.9912" gradientUnits="userSpaceOnUse">
<stop stop-color="#FD8F0A"/>
<stop offset="1" stop-color="#588B8B"/>
</linearGradient>
<linearGradient id="paint34_linear" x1="514.803" y1="285.513" x2="444.145" y2="285.513" gradientUnits="userSpaceOnUse">
<stop stop-color="#A7A9AC"/>
<stop offset="1" stop-color="#D1D3D4"/>
</linearGradient>
<linearGradient id="paint35_linear" x1="461.766" y1="277.114" x2="533.249" y2="277.114" gradientUnits="userSpaceOnUse">
<stop stop-color="#92278F"/>
<stop offset="1" stop-color="#662D91"/>
</linearGradient>
<linearGradient id="paint36_linear" x1="540.956" y1="273.401" x2="467.979" y2="273.401" gradientUnits="userSpaceOnUse">
<stop stop-color="#D1D3D4"/>
<stop offset="1" stop-color="#F1F2F2"/>
</linearGradient>
<linearGradient id="paint37_linear" x1="454.332" y1="263.255" x2="540.682" y2="263.255" gradientUnits="userSpaceOnUse">
<stop stop-color="#FD8F0A"/>
<stop offset="1" stop-color="#FD8F0A"/>
</linearGradient>
<linearGradient id="paint38_linear" x1="514.803" y1="252.417" x2="444.145" y2="252.417" gradientUnits="userSpaceOnUse">
<stop stop-color="#A7A9AC"/>
<stop offset="1" stop-color="#D1D3D4"/>
</linearGradient>
<linearGradient id="paint39_linear" x1="461.766" y1="244.018" x2="533.249" y2="244.018" gradientUnits="userSpaceOnUse">
<stop stop-color="#92278F"/>
<stop offset="1" stop-color="#662D91"/>
</linearGradient>
<linearGradient id="paint40_linear" x1="541.8" y1="240.305" x2="468.901" y2="240.305" gradientUnits="userSpaceOnUse">
<stop stop-color="#D1D3D4"/>
<stop offset="1" stop-color="#F1F2F2"/>
</linearGradient>
<linearGradient id="paint41_linear" x1="454.332" y1="230.159" x2="540.682" y2="230.159" gradientUnits="userSpaceOnUse">
<stop stop-color="white"/>
<stop offset="1" stop-color="white"/>
</linearGradient>
<linearGradient id="paint42_linear" x1="497.507" y1="221.722" x2="497.507" y2="250.873" gradientUnits="userSpaceOnUse">
<stop stop-color="#511C74"/>
<stop offset="1" stop-color="#92278F"/>
</linearGradient>
<linearGradient id="paint43_linear" x1="497.507" y1="243.601" x2="497.507" y2="145.309" gradientUnits="userSpaceOnUse">
<stop stop-color="#FD8F0A"/>
<stop offset="1" stop-color="#588B8B"/>
</linearGradient>
<linearGradient id="paint44_linear" x1="342.104" y1="285.513" x2="271.446" y2="285.513" gradientUnits="userSpaceOnUse">
<stop stop-color="#A7A9AC"/>
<stop offset="1" stop-color="#D1D3D4"/>
</linearGradient>
<linearGradient id="paint45_linear" x1="289.067" y1="277.114" x2="360.55" y2="277.114" gradientUnits="userSpaceOnUse">
<stop stop-color="#92278F"/>
<stop offset="1" stop-color="#662D91"/>
</linearGradient>
<linearGradient id="paint46_linear" x1="369.101" y1="273.401" x2="296.202" y2="273.401" gradientUnits="userSpaceOnUse">
<stop stop-color="#D1D3D4"/>
<stop offset="1" stop-color="#F1F2F2"/>
</linearGradient>
<linearGradient id="paint47_linear" x1="281.633" y1="263.255" x2="367.983" y2="263.255" gradientUnits="userSpaceOnUse">
<stop stop-color="white"/>
<stop offset="1" stop-color="white"/>
</linearGradient>
<linearGradient id="paint48_linear" x1="324.808" y1="254.818" x2="324.808" y2="283.969" gradientUnits="userSpaceOnUse">
<stop stop-color="#511C74"/>
<stop offset="1" stop-color="#92278F"/>
</linearGradient>
<linearGradient id="paint49_linear" x1="324.808" y1="276.697" x2="324.808" y2="178.405" gradientUnits="userSpaceOnUse">
<stop stop-color="#FD8F0A"/>
<stop offset="1" stop-color="#588B8B"/>
</linearGradient>
<linearGradient id="paint50_linear" x1="442.912" y1="275.609" x2="277.732" y2="28.382" gradientUnits="userSpaceOnUse">
<stop stop-color="#FD8F0A"/>
<stop offset="1" stop-color="#588B8B"/>
</linearGradient>
<linearGradient id="paint51_linear" x1="125.889" y1="108.271" x2="6.3192" y2="108.271" gradientUnits="userSpaceOnUse">
<stop stop-color="white"/>
<stop offset="0.565279" stop-color="white"/>
<stop offset="1" stop-color="white"/>
</linearGradient>
<linearGradient id="paint52_linear" x1="7.3145" y1="361.863" x2="-1.18511" y2="328.597" gradientUnits="userSpaceOnUse">
<stop stop-color="#FD8F0A"/>
<stop offset="1" stop-color="#FD8F0A"/>
</linearGradient>
<linearGradient id="paint53_linear" x1="42.6504" y1="268.388" x2="-35.8974" y2="217.39" gradientUnits="userSpaceOnUse">
<stop stop-color="white"/>
<stop offset="1" stop-color="white"/>
</linearGradient>
<linearGradient id="paint54_linear" x1="146.861" y1="351.95" x2="-15.18" y2="109.789" gradientUnits="userSpaceOnUse">
<stop stop-color="white"/>
<stop offset="1" stop-color="#588B8B"/>
</linearGradient>
<linearGradient id="paint55_linear" x1="141.014" y1="359.29" x2="-7.61761" y2="109.227" gradientUnits="userSpaceOnUse">
<stop stop-color="#662D91"/>
<stop offset="1" stop-color="#92278F"/>
</linearGradient>
<linearGradient id="paint56_linear" x1="-4.0703" y1="194.111" x2="183.711" y2="289.899" gradientUnits="userSpaceOnUse">
<stop stop-color="#FD8F0A"/>
<stop offset="1" stop-color="#588B8B"/>
</linearGradient>
<linearGradient id="paint57_linear" x1="43.1854" y1="139.053" x2="45.8603" y2="139.053" gradientUnits="userSpaceOnUse">
<stop stop-color="#FD8F0A"/>
<stop offset="1" stop-color="#FD8F0A"/>
</linearGradient>
<linearGradient id="paint58_linear" x1="18.6919" y1="224.506" x2="103.898" y2="224.506" gradientUnits="userSpaceOnUse">
<stop stop-color="#FD8F0A"/>
<stop offset="1" stop-color="#588B8B"/>
</linearGradient>
<linearGradient id="paint59_linear" x1="308.47" y1="89.0579" x2="231.085" y2="11.6735" gradientUnits="userSpaceOnUse">
<stop stop-color="white"/>
<stop offset="1" stop-color="white"/>
</linearGradient>
<linearGradient id="paint60_linear" x1="251.024" y1="31.6125" x2="287.386" y2="67.9744" gradientUnits="userSpaceOnUse">
<stop stop-color="#588B8B"/>
<stop offset="1" stop-color="#FD8F0A"/>
</linearGradient>
<linearGradient id="paint61_linear" x1="582.251" y1="131.207" x2="548.888" y2="97.8439" gradientUnits="userSpaceOnUse">
<stop stop-color="white"/>
<stop offset="1" stop-color="white"/>
</linearGradient>
<linearGradient id="paint62_linear" x1="557.484" y1="106.44" x2="573.161" y2="122.117" gradientUnits="userSpaceOnUse">
<stop stop-color="#588B8B"/>
<stop offset="1" stop-color="#FD8F0A"/>
</linearGradient>
<linearGradient id="paint63_linear" x1="222.297" y1="143.867" x2="188.934" y2="110.504" gradientUnits="userSpaceOnUse">
<stop stop-color="white"/>
<stop offset="1" stop-color="white"/>
</linearGradient>
<linearGradient id="paint64_linear" x1="197.53" y1="119.101" x2="213.207" y2="134.778" gradientUnits="userSpaceOnUse">
<stop stop-color="#588B8B"/>
<stop offset="1" stop-color="#FD8F0A"/>
</linearGradient>
</defs>
</svg>
