<svg width="414" height="389" viewBox="0 0 414 389" fill="none" xmlns="http://www.w3.org/2000/svg">
<path d="M269 260.758V284.323L198 350.352L198 386.435" stroke="#FD8F0A"/>
<path d="M288 253.919V291.282L218 357.35L218 387.29" stroke="#FD8F0A"/>
<path d="M267 385.58V354.802L240 376.443V385.58" stroke="#FD8F0A"/>
<path d="M284 333.686V362.497H309V307.78" stroke="#FD8F0A"/>
<path d="M297 341.123V362.497" stroke="#FD8F0A"/>
<path d="M301 249.644V282.347L329 306.996V362.64L303.99 385.58" stroke="#FD8F0A"/>
<path d="M116 287.262L87 316.33" stroke="#FD8F0A"/>
<path d="M19 287.262L4.17233e-07 304.36" stroke="#FD8F0A"/>
<path d="M190 299.231H136.57L106 328.173H155.709V389" stroke="#FD8F0A"/>
<path d="M116 287.262H49.6103L19 316.479H68.7751L68.7751 377.886" stroke="#FD8F0A"/>
<path d="M129 351.382V382.16H87" stroke="#FD8F0A"/>
<path d="M40 340.268L40 370.191H1.19209e-06" stroke="#FD8F0A"/>
<path d="M232 262.468L208.963 282.459V318.295H174L174 385.58" stroke="#FD8F0A"/>
<path d="M248 263.323V287.151L224.966 309.49H209" stroke="#FD8F0A"/>
<path d="M196 252.209L170.149 276.851H97.3936L87 286.407" stroke="#FD8F0A"/>
<path d="M110 241.094L84.1491 265.737H11.3936L1 275.292" stroke="#FD8F0A"/>
<path d="M280 1.7099V30.1938L208 94.2216V129.035L208 154.745H234.83" stroke="#FD8F0A"/>
<path d="M323 0V67.458L286.55 67.458V104.141L265 124.822" stroke="#FD8F0A"/>
<path d="M287.255 78.6549H271.807L248.367 100.094V123.97V172.041L157.517 172.041H128.016L128.016 147.24H85.7757V78.6549H68.008L68.008 214.906H44.5412V182.757H33.8135V197.76H8L8 238.482L77.3947 238.482L99.8558 222.561H136.397V255.629H157.517V207.252H85.7757V172.041H99.8558V189.187L182.325 189.187L182.325 238.482L208.138 238.482V207.252H271.807V222.561H248.367V247.055H301L301 189.187H263.453V139.585H301" stroke="#FD8F0A"/>
<path d="M298 0V35.5583L228 100.789V124.822" stroke="#FD8F0A"/>
<path d="M412 5.12967L367 5.12967V32.4879" stroke="#FD8F0A"/>
<path d="M339.655 0V59.1133L388 59.1133L357.283 87.2044L306 87.2044" stroke="#FD8F0A"/>
<path d="M256 0.854919V8.85236L230 31.6329V0.854919" stroke="#FD8F0A"/>
<path d="M213 51.7852V23.9384L187 23.9384V78.6549" stroke="#FD8F0A"/>
<path d="M201 24.7934V45.3121" stroke="#FD8F0A"/>
<path d="M190.733 0.854919L167 21.6747V78.0106L195 103.729L195 135.081" stroke="#FD8F0A"/>
<path d="M87 55.5714H110.614L182 120.634L182 147.051" stroke="#FD8F0A"/>
<path d="M5 70.1055L41 120.775L41 147.051" stroke="#FD8F0A"/>
<path d="M88 70.9604H100.49L151.808 117.271V132.953L170 149.615" stroke="#FD8F0A"/>
<path d="M2 94.044L9.56859 124.884V140.606L27 157.31" stroke="#FD8F0A"/>
<path d="M87 106.868H108.562V135.448H137.672L156 152.547V171.844" stroke="#FD8F0A"/>
<path d="M5 151.325L23 168.596L23 188.088" stroke="#FD8F0A"/>
<path d="M315 239.385V266.792L385.714 331.731H411.065L411.065 372.719L414 376.176" stroke="#FD8F0A"/>
<path d="M364 337.703V384.725L390 360.487V384.725" stroke="#FD8F0A"/>
<path d="M412 308.635H396.764L345.711 262.254V246.549L327 229.125" stroke="#FD8F0A"/>
<path d="M340 211.171V229.316L359.52 247.95H387.597V276.147H413" stroke="#FD8F0A"/>
<path d="M355 214.591H382.623L414 244.514" stroke="#FD8F0A"/>
<path d="M351 199.202H392.511L413 217.156" stroke="#FD8F0A"/>
<path d="M345 180.393H371.8L379.84 174.409H412" stroke="#FD8F0A"/>
<path d="M413 152.18H376.256L360.856 166.714H336" stroke="#FD8F0A"/>
<path d="M412 129.952H341.867L320 150.47" stroke="#FD8F0A"/>
<path d="M412 95.7538L396.395 109.753L325.509 109.753L302.006 133.821V138.501H301" stroke="#FD8F0A"/>
<path d="M412 66.6857L391 87.2044" stroke="#FD8F0A"/>
<ellipse cx="367" cy="31.2055" rx="2.99231" ry="3" transform="rotate(90 367 31.2055)" fill="#FD8F0A"/>
<ellipse cx="286" cy="77.3725" rx="2.99231" ry="3" transform="rotate(90 286 77.3725)" fill="#FD8F0A"/>
<ellipse cx="228" cy="125.677" rx="3.41978" ry="3" transform="rotate(90 228 125.677)" fill="#FD8F0A"/>
<ellipse cx="301.5" cy="137.219" rx="2.99231" ry="3.5" transform="rotate(90 301.5 137.219)" fill="#FD8F0A"/>
<ellipse cx="182.5" cy="144.913" rx="2.99231" ry="3.5" transform="rotate(90 182.5 144.913)" fill="#FD8F0A"/>
<ellipse cx="308.5" cy="309.063" rx="2.99231" ry="3.5" transform="rotate(90 308.5 309.063)" fill="#FD8F0A"/>
<ellipse cx="296.5" cy="337.703" rx="3.41978" ry="3.5" transform="rotate(90 296.5 337.703)" fill="#FD8F0A"/>
<ellipse cx="283.5" cy="333.429" rx="3.41978" ry="3.5" transform="rotate(90 283.5 333.429)" fill="#FD8F0A"/>
<ellipse cx="114" cy="286.834" rx="2.99231" ry="3" transform="rotate(90 114 286.834)" fill="#FD8F0A"/>
<ellipse cx="40.5" cy="340.696" rx="2.99231" ry="3.5" transform="rotate(90 40.5 340.696)" fill="#FD8F0A"/>
<ellipse cx="249.5" cy="222.713" rx="2.99231" ry="3.5" transform="rotate(90 249.5 222.713)" fill="#FD8F0A"/>
<ellipse cx="346" cy="180.821" rx="2.99231" ry="3" transform="rotate(90 346 180.821)" fill="#FD8F0A"/>
<ellipse cx="99" cy="173.126" rx="2.99231" ry="4" transform="rotate(90 99 173.126)" fill="#FD8F0A"/>
<ellipse cx="23" cy="185.951" rx="2.99231" ry="4" transform="rotate(90 23 185.951)" fill="#FD8F0A"/>
<ellipse cx="158" cy="255.201" rx="2.99231" ry="4" transform="rotate(90 158 255.201)" fill="#FD8F0A"/>
<ellipse cx="213.5" cy="51.2967" rx="3.41978" ry="3.5" transform="rotate(90 213.5 51.2967)" fill="#FD8F0A"/>
<ellipse cx="187.5" cy="79.0824" rx="2.99231" ry="3.5" transform="rotate(90 187.5 79.0824)" fill="#FD8F0A"/>
<ellipse cx="200.5" cy="44.8846" rx="2.99231" ry="3.5" transform="rotate(90 200.5 44.8846)" fill="#FD8F0A"/>
<ellipse cx="46.5" cy="79.9374" rx="2.99231" ry="3.5" transform="rotate(90 46.5 79.9374)" fill="#FD8F0A"/>
</svg>
