<svg width="632" height="612" viewBox="0 0 632 612" fill="none" xmlns="http://www.w3.org/2000/svg">
<path d="M425 215H463.25L570.43 320H629" stroke="#FD8F0A" class="svg-elem-1"></path>
<path d="M415 187H475.512L582.51 291H631" stroke="#FD8F0A" class="svg-elem-2"></path>
<path d="M629 219H578L613.859 258H629" stroke="#FD8F0A" class="svg-elem-3"></path>
<path d="M543.611 194H591V157H501" stroke="#FD8F0A" class="svg-elem-4"></path>
<path d="M555 175H591" stroke="#FD8F0A" class="svg-elem-5"></path>
<path d="M407 168H460.408L500.662 127H591.535L629 163.621" stroke="#FD8F0A" class="svg-elem-6"></path>
<path d="M465.5 441.5L513 483" stroke="#FD8F0A" class="svg-elem-7"></path>
<path d="M466 584L493 611" stroke="#FD8F0A" class="svg-elem-8"></path>
<path d="M486 332V410.873L533.071 456V382.62H632" stroke="#FD8F0A" class="svg-elem-9"></path>
<path d="M466 441V538.873L513.071 584V510.62H612" stroke="#FD8F0A" class="svg-elem-10"></path>
<path d="M571 423H621V484" stroke="#FD8F0A" class="svg-elem-11"></path>
<path d="M551 552H601V612" stroke="#FD8F0A" class="svg-elem-12"></path>
<path d="M427 270L459.638 303.762H518.147V355H628" stroke="#FD8F0A" class="svg-elem-13"></path>
<path d="M429 245H467.194L503 279.846V304" stroke="#FD8F0A" class="svg-elem-14"></path>
<path d="M410 321L449.632 359.183V466.648L465 482" stroke="#FD8F0A" class="svg-elem-15"></path>
<path d="M390 449L429.632 487.183V594.648L445 610" stroke="#FD8F0A" class="svg-elem-16"></path>
<path d="M3 197H49.5316L154.128 302H211H253V262.873" stroke="#FD8F0A" class="svg-elem-17"></path>
<path d="M1 132H110.708V186.046H170.367L204 218" stroke="#FD8F0A" class="svg-elem-18"></path>
<path d="M127 186.265V209.043L162.011 243.602H201H279.5V377.551V421.048H239V483.327H127V509.524H349.5V544.124H297V559.941H321.5V598H388V495.684L362 462.568V408.691H416V377.551H337V483.327H279.5V462.568H307.5V340.975H388V302.915H337V209.043H362V243.602H402V166H307.5V221.359H226.5V166" stroke="#FD8F0A" class="svg-elem-19"></path>
<path d="M1 170H58.8291L164.916 273H204" stroke="#FD8F0A" class="svg-elem-20"></path>
<path d="M10 1V67H55" stroke="#FD8F0A" class="svg-elem-21"></path>
<path d="M2 107.339H98.2577V36L144 81.3257V157" stroke="#FD8F0A" class="svg-elem-22"></path>
<path d="M1 231H13.9921L51 268H1" stroke="#FD8F0A" class="svg-elem-23"></path>
<path d="M84.8036 294H39V333H129" stroke="#FD8F0A" class="svg-elem-24"></path>
<path d="M40 313H74" stroke="#FD8F0A" class="svg-elem-25"></path>
<path d="M1 327.248L34.8139 362H126.31L168.08 321H219" stroke="#FD8F0A" class="svg-elem-26"></path>
<path d="M89 480V445.449L194.973 341H238" stroke="#FD8F0A" class="svg-elem-27"></path>
<path d="M112 602L194.973 548H238" stroke="#FD8F0A" class="svg-elem-28"></path>
<path d="M114 479V460.722L189.953 385.623H215.673L243 359" stroke="#FD8F0A" class="svg-elem-29"></path>
<path d="M151 607L201.21 595.496H226.805L254 569" stroke="#FD8F0A" class="svg-elem-30"></path>
<path d="M173 481V449.125H219.624V406.094L247.519 379H279" stroke="#FD8F0A" class="svg-elem-31"></path>
<path d="M245 603L272.718 576H304" stroke="#FD8F0A" class="svg-elem-32"></path>
<path d="M391 147H435.48L540.87 42.7143V5.32884H607.39L613 1" stroke="#FD8F0A" class="svg-elem-33"></path>
<path d="M551 76H628L588.309 38H628" stroke="#FD8F0A" class="svg-elem-34"></path>
<path d="M504 3V25.4057L428.75 100.484H403.269L375 128" stroke="#FD8F0A" class="svg-elem-35"></path>
<path d="M345 110H374.6L405 81.1209V39.5824H451V2" stroke="#FD8F0A" class="svg-elem-36"></path>
<path d="M352 88V47.2682L400 1" stroke="#FD8F0A" class="svg-elem-37"></path>
<path d="M325 93V32.073L355 2" stroke="#FD8F0A" class="svg-elem-38"></path>
<path d="M296 101V61.4L285 49.52V2" stroke="#FD8F0A" class="svg-elem-39"></path>
<path d="M250 1V54.9228L273 77.5228V114" stroke="#FD8F0A" class="svg-elem-40"></path>
<path d="M213 2V105.675L247 138" stroke="#FD8F0A" class="svg-elem-41"></path>
<path d="M158 1L180.432 24.2676V129.958L219 165H226.5V166.5" stroke="#FD8F0A" class="svg-elem-42"></path>
<path d="M110 1L144 33" stroke="#FD8F0A" class="svg-elem-43"></path>
<path d="M53 72C55.7614 72 58 69.7614 58 67C58 64.2386 55.7614 62 53 62C50.2386 62 48 64.2386 48 67C48 69.7614 50.2386 72 53 72Z" fill="#FD8F0A" class="svg-elem-44"></path>
<path d="M127 192C129.761 192 132 189.761 132 187C132 184.239 129.761 182 127 182C124.239 182 122 184.239 122 187C122 189.761 124.239 192 127 192Z" fill="#FD8F0A" class="svg-elem-45"></path>
<path d="M204 278C206.761 278 209 275.761 209 273C209 270.239 206.761 268 204 268C201.239 268 199 270.239 199 273C199 275.761 201.239 278 204 278Z" fill="#FD8F0A" class="svg-elem-46"></path>
<path d="M224 170C226.761 170 229 167.761 229 165C229 162.239 226.761 160 224 160C221.239 160 219 162.239 219 165C219 167.761 221.239 170 224 170Z" fill="#FD8F0A" class="svg-elem-47"></path>
<path d="M236 346C238.761 346 241 343.761 241 341C241 338.239 238.761 336 236 336C233.239 336 231 338.239 231 341C231 343.761 233.239 346 236 346Z" fill="#FD8F0A" class="svg-elem-48"></path>
<path d="M503 162C505.761 162 508 159.761 508 157C508 154.239 505.761 152 503 152C500.239 152 498 154.239 498 157C498 159.761 500.239 162 503 162Z" fill="#FD8F0A" class="svg-elem-49"></path>
<path d="M551 180C553.761 180 556 177.761 556 175C556 172.239 553.761 170 551 170C548.239 170 546 172.239 546 175C546 177.761 548.239 180 551 180Z" fill="#FD8F0A" class="svg-elem-50"></path>
<path d="M543 199C545.761 199 548 196.761 548 194C548 191.239 545.761 189 543 189C540.239 189 538 191.239 538 194C538 196.761 540.239 199 543 199Z" fill="#FD8F0A" class="svg-elem-51"></path>
<path d="M466 448C468.761 448 471 445.761 471 443C471 440.239 468.761 438 466 438C463.239 438 461 440.239 461 443C461 445.761 463.239 448 466 448Z" fill="#FD8F0A" class="svg-elem-52"></path>
<path d="M552 557C554.761 557 557 554.761 557 552C557 549.239 554.761 547 552 547C549.239 547 547 549.239 547 552C547 554.761 549.239 557 552 557Z" fill="#FD8F0A" class="svg-elem-53"></path>
<path d="M363 248C365.761 248 368 245.761 368 243C368 240.239 365.761 238 363 238C360.239 238 358 240.239 358 243C358 245.761 360.239 248 363 248Z" fill="#FD8F0A" class="svg-elem-54"></path>
<path d="M296 105C298.761 105 301 102.761 301 100C301 97.2386 298.761 95 296 95C293.239 95 291 97.2386 291 100C291 102.761 293.239 105 296 105Z" fill="#FD8F0A" class="svg-elem-55"></path>
<path d="M280 469C282.761 469 285 466.761 285 464C285 461.239 282.761 459 280 459C277.239 459 275 461.239 275 464C275 466.761 277.239 469 280 469Z" fill="#FD8F0A" class="svg-elem-56"></path>
<path d="M301 581C303.761 581 306 578.761 306 576C306 573.239 303.761 571 301 571C298.239 571 296 573.239 296 576C296 578.761 298.239 581 301 581Z" fill="#FD8F0A" class="svg-elem-57"></path>
<path d="M415 383C417.761 383 420 380.761 420 378C420 375.239 417.761 373 415 373C412.239 373 410 375.239 410 378C410 380.761 412.239 383 415 383Z" fill="#FD8F0A" class="svg-elem-58"></path>
<path d="M84 299C86.7614 299 89 296.761 89 294C89 291.239 86.7614 289 84 289C81.2386 289 79 291.239 79 294C79 296.761 81.2386 299 84 299Z" fill="#FD8F0A" class="svg-elem-59"></path>
<path d="M129 337C131.761 337 134 334.761 134 332C134 329.239 131.761 327 129 327C126.239 327 124 329.239 124 332C124 334.761 126.239 337 129 337Z" fill="#FD8F0A" class="svg-elem-60"></path>
<path d="M74 318C76.7614 318 79 315.761 79 313C79 310.239 76.7614 308 74 308C71.2386 308 69 310.239 69 313C69 315.761 71.2386 318 74 318Z" fill="#FD8F0A" class="svg-elem-61"></path>
<path d="M129 545C131.761 545 134 542.761 134 540C134 537.239 131.761 535 129 535C126.239 535 124 537.239 124 540C124 542.761 126.239 545 129 545Z" fill="#FD8F0A" class="svg-elem-62"></path>
</svg>
