<svg width="523" height="730" viewBox="0 0 523 730" fill="none" xmlns="http://www.w3.org/2000/svg">
<g filter="url(#filter0_ii)">
<path d="M3.9624 113.991C3.9624 74.0907 3.9624 54.1403 11.7238 38.9002C18.551 25.4947 29.4448 14.5957 42.8438 7.7652C58.0765 0 78.0172 0 117.899 0H405.102C444.983 0 464.924 0 480.157 7.7652C493.556 14.5957 504.45 25.4947 511.277 38.9002C519.038 54.1403 519.038 74.0907 519.038 113.991V926.914C519.038 966.815 519.038 986.766 511.277 1002.01C504.45 1015.41 493.556 1026.31 480.157 1033.14C464.924 1040.91 444.983 1040.91 405.102 1040.91H117.899C78.0172 1040.91 58.0765 1040.91 42.8438 1033.14C29.4448 1026.31 18.551 1015.41 11.7238 1002.01C3.9624 986.766 3.9624 966.815 3.9624 926.914V113.991Z" fill="#F2F2F2"/>
</g>
<path d="M35.6592 100.643C35.6592 76.3117 35.6592 64.1459 40.3975 54.8524C44.5655 46.6777 51.2161 40.0314 59.3963 35.8661C68.6958 31.1309 80.8696 31.1309 105.217 31.1309H418.349C442.697 31.1309 454.87 31.1309 464.17 35.8661C472.35 40.0314 479.001 46.6777 483.169 54.8524C487.907 64.1459 487.907 76.3117 487.907 100.643V940.262C487.907 964.594 487.907 976.76 483.169 986.053C479.001 994.228 472.35 1000.87 464.17 1005.04C454.87 1009.77 442.697 1009.77 418.349 1009.77H105.217C80.8696 1009.77 68.6958 1009.77 59.3963 1005.04C51.2161 1000.87 44.5655 994.228 40.3975 986.053C35.6592 976.76 35.6592 964.594 35.6592 940.262V100.643Z" fill="url(#paint0_linear)"/>
<g filter="url(#filter1_i)">
<path d="M0 143.763C0 141.578 1.7739 139.806 3.96212 139.806V182.257C1.7739 182.257 0 180.486 0 178.3V143.763Z" fill="white"/>
</g>
<g filter="url(#filter2_i)">
<path d="M0 218.485C0 216.295 1.7739 214.521 3.96212 214.521V290.933C1.7739 290.933 0 289.158 0 286.969V218.485Z" fill="white"/>
</g>
<g filter="url(#filter3_i)">
<path d="M0 314.112C0 311.939 1.7739 310.177 3.96212 310.177V386.024C1.7739 386.024 0 384.262 0 382.089V314.112Z" fill="white"/>
</g>
<g filter="url(#filter4_i)">
<path d="M523 243.861C523 241.724 521.226 239.992 519.038 239.992V361.119C521.226 361.119 523 359.387 523 357.25V243.861Z" fill="white"/>
</g>
<path fill-rule="evenodd" clip-rule="evenodd" d="M268.993 31.1309H129.052C133.108 31.3751 135.424 34.1691 135.677 37.7943V42.6694C135.677 56.616 147.022 67.922 161.017 67.922H268.993H273.716H362.549C376.544 67.922 387.888 56.616 387.888 42.6694V37.7943C388.142 34.1691 390.458 31.3751 394.514 31.1309H273.716H268.993Z" fill="#F2F2F2"/>
<path d="M229.237 42.1885C229.237 39.8328 231.217 37.9231 233.659 37.9231H289.341C291.784 37.9231 293.763 39.8328 293.763 42.1885V42.7139C293.763 45.0697 291.784 46.9794 289.341 46.9794H233.659C231.217 46.9794 229.237 45.0697 229.237 42.7139V42.1885Z" fill="#EAEAEA"/>
<path d="M323.761 42.4515C323.761 46.5153 320.467 49.8097 316.403 49.8097C312.339 49.8097 309.045 46.5153 309.045 42.4515C309.045 38.3877 312.339 35.0933 316.403 35.0933C320.467 35.0933 323.761 38.3877 323.761 42.4515Z" fill="#C4C4C4"/>
<path d="M320.931 42.4512C320.931 44.9521 318.904 46.9794 316.403 46.9794C313.902 46.9794 311.875 44.9521 311.875 42.4512C311.875 39.9504 313.902 37.9231 316.403 37.9231C318.904 37.9231 320.931 39.9504 320.931 42.4512Z" fill="url(#paint1_radial)"/>
<mask id="mask0" mask-type="alpha" maskUnits="userSpaceOnUse" x="229" y="37" width="65" height="10">
<path d="M229.237 42.1885C229.237 39.8328 231.217 37.9231 233.659 37.9231H289.341C291.784 37.9231 293.763 39.8328 293.763 42.1885V42.7139C293.763 45.0697 291.784 46.9794 289.341 46.9794H233.659C231.217 46.9794 229.237 45.0697 229.237 42.7139V42.1885Z" fill="#EAEAEA"/>
</mask>
<g mask="url(#mask0)">
<path fill-rule="evenodd" clip-rule="evenodd" d="M208.427 37.9231H207.162V46.9792H207.162L207.162 46.9794H309.045L309.045 46.9792L309.045 37.9231H307.78H305.691H304.426H302.337H301.072H298.983H297.718H295.629H294.364H292.275H291.01H288.922H287.656H285.568H284.303H282.214H280.949H278.86H277.595H275.506H274.241H272.152H270.887H268.798H267.533H265.444H264.179H262.09H260.825H258.736H257.471H255.382H254.117H252.028H250.763H248.674H247.409H245.32H244.055H241.966H240.701H238.613H237.348H235.259H233.994H231.905H230.64H228.551H227.286H225.197H223.932H221.843H220.578H218.489H217.224H215.135H213.87H211.781H210.516L208.427 37.9231V37.9231ZM307.78 39.7627H305.691V41.5315H307.78V39.7627ZM307.78 43.3711H305.691V45.1398H307.78V43.3711ZM304.426 43.3711V45.1398H302.337V43.3711H304.426ZM304.426 39.7627V41.5315H302.337V39.7627H304.426ZM301.072 39.7627H298.983V41.5315H301.072V39.7627ZM301.072 43.3711H298.983V45.1398H301.072V43.3711ZM297.718 43.3711V45.1398H295.629V43.3711H297.718ZM297.718 39.7627V41.5315H295.629V39.7627H297.718ZM294.364 39.7627H292.275V41.5315H294.364V39.7627ZM294.364 43.3711H292.275V45.1398H294.364V43.3711ZM291.01 43.3711V45.1398H288.922V43.3711H291.01ZM291.01 39.7627V41.5315H288.922V39.7627H291.01ZM287.656 39.7627H285.568V41.5315H287.656V39.7627ZM287.656 43.3711H285.568V45.1398H287.656V43.3711ZM284.303 43.3711V45.1398H282.214V43.3711H284.303ZM284.303 39.7627V41.5315H282.214V39.7627H284.303ZM280.949 39.7627H278.86V41.5315H280.949V39.7627ZM280.949 43.3711H278.86V45.1398H280.949V43.3711ZM277.595 43.3711V45.1398H275.506V43.3711H277.595ZM277.595 39.7627V41.5315H275.506V39.7627H277.595ZM274.241 39.7627H272.152V41.5315H274.241V39.7627ZM274.241 43.3711H272.152V45.1398H274.241V43.3711ZM270.887 43.3711V45.1398H268.798V43.3711H270.887ZM270.887 39.7627V41.5315H268.798V39.7627H270.887ZM267.533 39.7627H265.444V41.5315H267.533V39.7627ZM267.533 43.3711H265.444V45.1398H267.533V43.3711ZM264.179 43.3711V45.1398H262.09V43.3711H264.179ZM264.179 39.7627V41.5315H262.09V39.7627H264.179ZM260.825 39.7627H258.736V41.5315H260.825V39.7627ZM260.825 43.3711H258.736V45.1398H260.825V43.3711ZM257.471 43.3711V45.1398H255.382V43.3711H257.471ZM257.471 39.7627V41.5315H255.382V39.7627H257.471ZM254.117 39.7627H252.028V41.5315H254.117V39.7627ZM254.117 43.3711H252.028V45.1398H254.117V43.3711ZM250.763 43.3711V45.1398H248.674V43.3711H250.763ZM250.763 39.7627V41.5315H248.674V39.7627H250.763ZM247.409 39.7627H245.32V41.5315H247.409V39.7627ZM247.409 43.3711H245.32V45.1398H247.409V43.3711ZM244.055 43.3711V45.1398H241.966V43.3711H244.055ZM244.055 39.7627V41.5315H241.966V39.7627H244.055ZM240.701 39.7627H238.613V41.5315H240.701V39.7627ZM240.701 43.3711H238.613V45.1398H240.701V43.3711ZM237.348 43.3711V45.1398H235.259V43.3711H237.348ZM237.348 39.7627V41.5315H235.259V39.7627H237.348ZM233.994 39.7627H231.905V41.5315H233.994V39.7627ZM233.994 43.3711H231.905V45.1398H233.994V43.3711ZM230.64 43.3711V45.1398H228.551V43.3711H230.64ZM230.64 39.7627V41.5315H228.551V39.7627H230.64ZM227.286 39.7627H225.197V41.5315H227.286V39.7627ZM227.286 43.3711H225.197V45.1398H227.286V43.3711ZM223.932 43.3711V45.1398H221.843V43.3711H223.932ZM223.932 39.7627V41.5315H221.843V39.7627H223.932ZM220.578 39.7627H218.489V41.5315H220.578V39.7627ZM220.578 43.3711H218.489V45.1398H220.578V43.3711ZM217.224 43.3711V45.1398H215.135V43.3711H217.224ZM217.224 39.7627V41.5315H215.135V39.7627H217.224ZM213.87 39.7627H211.781V41.5315H213.87V39.7627ZM213.87 43.3711H211.781V45.1398H213.87V43.3711ZM210.516 43.3711V45.1398H208.427V43.3711H210.516ZM210.516 39.7627V41.5315H208.427V39.7627H210.516Z" fill="#C4C4C4"/>
</g>
<defs>
<filter id="filter0_ii" x="-6.0376" y="-10" width="525.076" height="1054.91" filterUnits="userSpaceOnUse" color-interpolation-filters="sRGB">
<feFlood flood-opacity="0" result="BackgroundImageFix"/>
<feBlend mode="normal" in="SourceGraphic" in2="BackgroundImageFix" result="shape"/>
<feColorMatrix in="SourceAlpha" type="matrix" values="0 0 0 0 0 0 0 0 0 0 0 0 0 0 0 0 0 0 127 0" result="hardAlpha"/>
<feOffset dx="-10" dy="-10"/>
<feGaussianBlur stdDeviation="10"/>
<feComposite in2="hardAlpha" operator="arithmetic" k2="-1" k3="1"/>
<feColorMatrix type="matrix" values="0 0 0 0 0 0 0 0 0 0 0 0 0 0 0 0 0 0 0.15 0"/>
<feBlend mode="normal" in2="shape" result="effect1_innerShadow"/>
<feColorMatrix in="SourceAlpha" type="matrix" values="0 0 0 0 0 0 0 0 0 0 0 0 0 0 0 0 0 0 127 0" result="hardAlpha"/>
<feOffset dy="4"/>
<feGaussianBlur stdDeviation="2"/>
<feComposite in2="hardAlpha" operator="arithmetic" k2="-1" k3="1"/>
<feColorMatrix type="matrix" values="0 0 0 0 0 0 0 0 0 0 0 0 0 0 0 0 0 0 0.07 0"/>
<feBlend mode="normal" in2="effect1_innerShadow" result="effect2_innerShadow"/>
</filter>
<filter id="filter1_i" x="0" y="139.806" width="3.96212" height="46.4513" filterUnits="userSpaceOnUse" color-interpolation-filters="sRGB">
<feFlood flood-opacity="0" result="BackgroundImageFix"/>
<feBlend mode="normal" in="SourceGraphic" in2="BackgroundImageFix" result="shape"/>
<feColorMatrix in="SourceAlpha" type="matrix" values="0 0 0 0 0 0 0 0 0 0 0 0 0 0 0 0 0 0 127 0" result="hardAlpha"/>
<feOffset dy="4"/>
<feGaussianBlur stdDeviation="2"/>
<feComposite in2="hardAlpha" operator="arithmetic" k2="-1" k3="1"/>
<feColorMatrix type="matrix" values="0 0 0 0 0 0 0 0 0 0 0 0 0 0 0 0 0 0 0.25 0"/>
<feBlend mode="normal" in2="shape" result="effect1_innerShadow"/>
</filter>
<filter id="filter2_i" x="0" y="214.521" width="3.96212" height="80.4123" filterUnits="userSpaceOnUse" color-interpolation-filters="sRGB">
<feFlood flood-opacity="0" result="BackgroundImageFix"/>
<feBlend mode="normal" in="SourceGraphic" in2="BackgroundImageFix" result="shape"/>
<feColorMatrix in="SourceAlpha" type="matrix" values="0 0 0 0 0 0 0 0 0 0 0 0 0 0 0 0 0 0 127 0" result="hardAlpha"/>
<feOffset dy="4"/>
<feGaussianBlur stdDeviation="2"/>
<feComposite in2="hardAlpha" operator="arithmetic" k2="-1" k3="1"/>
<feColorMatrix type="matrix" values="0 0 0 0 0 0 0 0 0 0 0 0 0 0 0 0 0 0 0.25 0"/>
<feBlend mode="normal" in2="shape" result="effect1_innerShadow"/>
</filter>
<filter id="filter3_i" x="0" y="310.177" width="3.96212" height="79.8463" filterUnits="userSpaceOnUse" color-interpolation-filters="sRGB">
<feFlood flood-opacity="0" result="BackgroundImageFix"/>
<feBlend mode="normal" in="SourceGraphic" in2="BackgroundImageFix" result="shape"/>
<feColorMatrix in="SourceAlpha" type="matrix" values="0 0 0 0 0 0 0 0 0 0 0 0 0 0 0 0 0 0 127 0" result="hardAlpha"/>
<feOffset dy="4"/>
<feGaussianBlur stdDeviation="2"/>
<feComposite in2="hardAlpha" operator="arithmetic" k2="-1" k3="1"/>
<feColorMatrix type="matrix" values="0 0 0 0 0 0 0 0 0 0 0 0 0 0 0 0 0 0 0.25 0"/>
<feBlend mode="normal" in2="shape" result="effect1_innerShadow"/>
</filter>
<filter id="filter4_i" x="519.038" y="239.992" width="3.96212" height="125.128" filterUnits="userSpaceOnUse" color-interpolation-filters="sRGB">
<feFlood flood-opacity="0" result="BackgroundImageFix"/>
<feBlend mode="normal" in="SourceGraphic" in2="BackgroundImageFix" result="shape"/>
<feColorMatrix in="SourceAlpha" type="matrix" values="0 0 0 0 0 0 0 0 0 0 0 0 0 0 0 0 0 0 127 0" result="hardAlpha"/>
<feOffset dy="4"/>
<feGaussianBlur stdDeviation="2"/>
<feComposite in2="hardAlpha" operator="arithmetic" k2="-1" k3="1"/>
<feColorMatrix type="matrix" values="0 0 0 0 0 0 0 0 0 0 0 0 0 0 0 0 0 0 0.25 0"/>
<feBlend mode="normal" in2="shape" result="effect1_innerShadow"/>
</filter>
<linearGradient id="paint0_linear" x1="261.783" y1="31.1309" x2="261.783" y2="1009.77" gradientUnits="userSpaceOnUse">
<stop stop-color="white"/>
<stop offset="1" stop-color="white" stop-opacity="0"/>
</linearGradient>
<radialGradient id="paint1_radial" cx="0" cy="0" r="1" gradientUnits="userSpaceOnUse" gradientTransform="translate(314.537 41.863) rotate(69.9659) scale(5.44593)">
<stop stop-color="#A792FE"/>
<stop offset="1" stop-color="#141023"/>
</radialGradient>
</defs>
</svg>
