<svg width="36" height="43" viewBox="0 0 36 43" fill="none" xmlns="http://www.w3.org/2000/svg">
<path d="M25.9007 0C23.6538 0.155415 21.0275 1.59366 19.4971 3.46655C18.101 5.16558 16.9525 7.6891 17.4003 10.1415C19.8553 10.2179 22.392 8.74539 23.8619 6.8409C25.2369 5.06811 26.2774 2.5604 25.9007 0Z" fill="#588B8B"/>
<path d="M34.7804 14.1401C32.623 11.4348 29.5911 9.86487 26.7278 9.86487C22.9478 9.86487 21.3488 11.6745 18.7226 11.6745C16.0147 11.6745 13.9574 9.87014 10.6884 9.87014C7.47738 9.87014 4.05824 11.8326 1.89034 15.1885C-1.15738 19.9142 -0.635819 28.7992 4.30322 36.3671C6.07074 39.075 8.43094 42.1201 11.5182 42.1464C14.2656 42.1728 15.04 40.3842 18.7621 40.3657C22.4842 40.3447 23.1901 42.1701 25.9323 42.1412C29.0221 42.1175 31.5114 38.7431 33.2789 36.0352C34.5459 34.0938 35.0175 33.1166 36 30.9249C28.8535 28.2039 27.7077 18.0413 34.7804 14.1401Z" fill="#588B8B"/>
</svg>
