<svg width="290" height="104" viewBox="0 0 290 104" fill="none" xmlns="http://www.w3.org/2000/svg">
<rect x="0.25" y="0.25" width="289.5" height="103.5" rx="9.75" fill="white" stroke="white" stroke-width="0.5"/>
<path d="M100.28 27.544V39H103.736C104.904 39 105.928 38.76 106.808 38.28C107.672 37.8 108.344 37.112 108.824 36.248C109.288 35.384 109.528 34.392 109.528 33.272C109.528 32.152 109.288 31.16 108.824 30.296C108.344 29.432 107.672 28.76 106.808 28.28C105.928 27.8 104.904 27.544 103.736 27.544H100.28ZM103.736 37.704H101.624V28.84H103.736C105.08 28.84 106.152 29.24 106.952 30.008C107.752 30.792 108.152 31.88 108.152 33.272C108.152 34.68 107.752 35.768 106.952 36.536C106.152 37.32 105.08 37.704 103.736 37.704ZM112.624 38.68C113.264 39.064 113.984 39.256 114.784 39.256C115.584 39.256 116.304 39.064 116.944 38.68C117.584 38.296 118.08 37.784 118.432 37.112C118.784 36.456 118.976 35.72 118.976 34.92C118.976 34.12 118.784 33.4 118.432 32.728C118.08 32.072 117.584 31.544 116.944 31.16C116.304 30.776 115.584 30.584 114.784 30.584C113.984 30.584 113.264 30.776 112.624 31.16C111.984 31.544 111.472 32.072 111.12 32.728C110.768 33.4 110.592 34.12 110.592 34.92C110.592 35.72 110.768 36.456 111.12 37.112C111.472 37.784 111.984 38.296 112.624 38.68ZM116.176 37.656C115.744 37.912 115.28 38.024 114.784 38.024C114.272 38.024 113.808 37.912 113.376 37.656C112.928 37.4 112.576 37.048 112.32 36.568C112.064 36.104 111.936 35.56 111.936 34.92C111.936 34.296 112.064 33.752 112.32 33.272C112.576 32.808 112.928 32.456 113.376 32.2C113.808 31.944 114.272 31.816 114.784 31.816C115.28 31.816 115.744 31.944 116.176 32.2C116.608 32.456 116.96 32.808 117.216 33.272C117.472 33.752 117.616 34.296 117.616 34.92C117.616 35.56 117.472 36.104 117.216 36.568C116.96 37.048 116.608 37.4 116.176 37.656ZM119.503 30.84L122.127 39H123.487L125.583 32.488L127.695 39H129.071L131.711 30.84H130.335L128.399 37.272H128.383L126.319 30.84H124.911L122.863 37.288H122.847L120.895 30.84H119.503ZM132.836 30.84V39H134.196V34.408C134.196 33.976 134.292 33.56 134.484 33.16C134.676 32.76 134.932 32.44 135.284 32.184C135.636 31.944 136.02 31.816 136.468 31.816C137.092 31.816 137.588 31.992 137.956 32.328C138.308 32.68 138.5 33.224 138.5 33.976V39H139.86V33.768C139.86 32.792 139.588 32.024 139.076 31.448C138.564 30.872 137.812 30.584 136.836 30.584C136.276 30.584 135.748 30.728 135.268 31.016C134.772 31.304 134.42 31.64 134.196 32.04H134.132V30.84H132.836ZM141.805 27.544V39H143.165V27.544H141.805ZM146.702 38.68C147.342 39.064 148.062 39.256 148.862 39.256C149.662 39.256 150.382 39.064 151.022 38.68C151.662 38.296 152.158 37.784 152.51 37.112C152.862 36.456 153.054 35.72 153.054 34.92C153.054 34.12 152.862 33.4 152.51 32.728C152.158 32.072 151.662 31.544 151.022 31.16C150.382 30.776 149.662 30.584 148.862 30.584C148.062 30.584 147.342 30.776 146.702 31.16C146.062 31.544 145.55 32.072 145.198 32.728C144.846 33.4 144.67 34.12 144.67 34.92C144.67 35.72 144.846 36.456 145.198 37.112C145.55 37.784 146.062 38.296 146.702 38.68ZM150.254 37.656C149.822 37.912 149.358 38.024 148.862 38.024C148.35 38.024 147.886 37.912 147.454 37.656C147.006 37.4 146.654 37.048 146.398 36.568C146.142 36.104 146.014 35.56 146.014 34.92C146.014 34.296 146.142 33.752 146.398 33.272C146.654 32.808 147.006 32.456 147.454 32.2C147.886 31.944 148.35 31.816 148.862 31.816C149.358 31.816 149.822 31.944 150.254 32.2C150.686 32.456 151.038 32.808 151.294 33.272C151.55 33.752 151.694 34.296 151.694 34.92C151.694 35.56 151.55 36.104 151.294 36.568C151.038 37.048 150.686 37.4 150.254 37.656ZM155.641 38.904C156.105 39.144 156.633 39.256 157.241 39.256C157.817 39.256 158.345 39.128 158.825 38.84C159.289 38.568 159.641 38.232 159.881 37.832H159.945V39H161.241V33.832C161.241 32.84 160.921 32.04 160.281 31.464C159.641 30.888 158.777 30.584 157.673 30.584C156.985 30.584 156.361 30.728 155.801 31C155.241 31.288 154.809 31.672 154.489 32.152L155.513 32.92C155.737 32.568 156.041 32.296 156.425 32.104C156.809 31.912 157.225 31.8 157.689 31.8C158.329 31.8 158.873 31.992 159.305 32.36C159.721 32.728 159.945 33.208 159.945 33.816V34.312C159.721 34.184 159.385 34.056 158.969 33.944C158.553 33.848 158.089 33.784 157.609 33.784C156.617 33.784 155.785 34.04 155.145 34.52C154.489 35 154.169 35.672 154.169 36.536C154.169 37.064 154.297 37.528 154.553 37.944C154.809 38.36 155.161 38.68 155.641 38.904ZM158.649 37.704C158.249 37.944 157.817 38.056 157.369 38.056C156.841 38.056 156.409 37.928 156.073 37.64C155.721 37.368 155.561 37 155.561 36.552C155.561 36.072 155.737 35.672 156.121 35.352C156.505 35.048 157.065 34.888 157.817 34.888C158.233 34.888 158.617 34.952 159.001 35.048C159.369 35.16 159.689 35.304 159.945 35.464C159.945 35.944 159.817 36.376 159.593 36.76C159.353 37.16 159.033 37.48 158.649 37.704ZM164.527 38.696C165.119 39.08 165.775 39.256 166.511 39.256C167.135 39.256 167.695 39.128 168.191 38.84C168.671 38.552 169.055 38.216 169.311 37.8H169.375V39H170.671V27.544H169.311V30.92L169.375 32.056H169.311C169.055 31.64 168.671 31.304 168.191 31.016C167.695 30.728 167.135 30.584 166.511 30.584C165.775 30.584 165.119 30.776 164.527 31.144C163.935 31.528 163.471 32.04 163.135 32.696C162.783 33.368 162.623 34.104 162.623 34.92C162.623 35.752 162.783 36.504 163.135 37.16C163.471 37.816 163.935 38.328 164.527 38.696ZM167.999 37.64C167.583 37.896 167.151 38.024 166.671 38.024C166.191 38.024 165.759 37.896 165.343 37.64C164.927 37.384 164.591 37.032 164.335 36.552C164.079 36.072 163.967 35.528 163.967 34.92C163.967 34.312 164.079 33.784 164.335 33.304C164.591 32.824 164.927 32.456 165.343 32.2C165.759 31.944 166.191 31.816 166.671 31.816C167.151 31.816 167.583 31.944 167.999 32.2C168.415 32.456 168.735 32.824 168.991 33.288C169.247 33.768 169.375 34.312 169.375 34.92C169.375 35.544 169.247 36.088 168.991 36.552C168.735 37.032 168.415 37.384 167.999 37.64ZM177.999 38.68C178.639 39.064 179.359 39.256 180.159 39.256C180.959 39.256 181.679 39.064 182.319 38.68C182.959 38.296 183.455 37.784 183.807 37.112C184.159 36.456 184.351 35.72 184.351 34.92C184.351 34.12 184.159 33.4 183.807 32.728C183.455 32.072 182.959 31.544 182.319 31.16C181.679 30.776 180.959 30.584 180.159 30.584C179.359 30.584 178.639 30.776 177.999 31.16C177.359 31.544 176.847 32.072 176.495 32.728C176.143 33.4 175.967 34.12 175.967 34.92C175.967 35.72 176.143 36.456 176.495 37.112C176.847 37.784 177.359 38.296 177.999 38.68ZM181.551 37.656C181.119 37.912 180.655 38.024 180.159 38.024C179.647 38.024 179.183 37.912 178.751 37.656C178.303 37.4 177.951 37.048 177.695 36.568C177.439 36.104 177.311 35.56 177.311 34.92C177.311 34.296 177.439 33.752 177.695 33.272C177.951 32.808 178.303 32.456 178.751 32.2C179.183 31.944 179.647 31.816 180.159 31.816C180.655 31.816 181.119 31.944 181.551 32.2C181.983 32.456 182.335 32.808 182.591 33.272C182.847 33.752 182.991 34.296 182.991 34.92C182.991 35.56 182.847 36.104 182.591 36.568C182.335 37.048 181.983 37.4 181.551 37.656ZM185.774 30.84V39H187.134V34.408C187.134 33.976 187.23 33.56 187.422 33.16C187.614 32.76 187.87 32.44 188.222 32.184C188.574 31.944 188.958 31.816 189.406 31.816C190.03 31.816 190.526 31.992 190.894 32.328C191.246 32.68 191.438 33.224 191.438 33.976V39H192.798V33.768C192.798 32.792 192.526 32.024 192.014 31.448C191.502 30.872 190.75 30.584 189.774 30.584C189.214 30.584 188.686 30.728 188.206 31.016C187.71 31.304 187.358 31.64 187.134 32.04H187.07V30.84H185.774ZM200.669 38.968C200.957 39.08 201.261 39.128 201.597 39.128C201.853 39.128 202.061 39.112 202.221 39.08C202.381 39.048 202.557 39 202.717 38.92V37.592C202.429 37.784 202.125 37.864 201.821 37.864C201.437 37.864 201.133 37.752 200.941 37.512C200.765 37.304 200.685 36.968 200.685 36.52V32.072H202.669V30.84H200.685V28.536H199.325V30.84H197.901V32.072H199.325V36.856C199.325 37.24 199.373 37.576 199.485 37.832C199.581 38.104 199.741 38.344 199.965 38.536C200.157 38.728 200.381 38.872 200.669 38.968ZM204.399 27.544V39H205.759V34.456C205.759 34.024 205.855 33.608 206.063 33.192C206.271 32.792 206.559 32.456 206.911 32.2C207.263 31.944 207.663 31.816 208.095 31.816C208.687 31.816 209.167 31.992 209.551 32.344C209.919 32.696 210.111 33.24 210.111 33.976V39H211.471V33.768C211.471 32.808 211.199 32.04 210.687 31.464C210.159 30.888 209.407 30.584 208.415 30.584C207.839 30.584 207.295 30.728 206.815 31C206.335 31.288 205.983 31.624 205.759 32.04H205.695L205.759 30.92V27.544H204.399ZM214.966 38.696C215.574 39.08 216.278 39.256 217.062 39.256C217.91 39.256 218.63 39.064 219.238 38.68C219.846 38.296 220.326 37.784 220.678 37.112L219.526 36.552C218.95 37.544 218.15 38.024 217.11 38.024C216.662 38.024 216.23 37.928 215.814 37.704C215.398 37.496 215.062 37.176 214.806 36.744C214.534 36.328 214.39 35.8 214.358 35.176H220.806C220.838 35.064 220.854 34.92 220.854 34.76C220.854 33.96 220.694 33.24 220.374 32.6C220.054 31.976 219.606 31.48 219.03 31.128C218.438 30.776 217.75 30.584 216.95 30.584C216.15 30.584 215.462 30.792 214.87 31.176C214.262 31.576 213.798 32.104 213.478 32.76C213.158 33.432 212.998 34.152 212.998 34.936C212.998 35.768 213.158 36.504 213.51 37.16C213.862 37.816 214.342 38.328 214.966 38.696ZM219.414 34.056H214.438C214.566 33.384 214.854 32.856 215.302 32.44C215.75 32.024 216.294 31.816 216.934 31.816C217.478 31.816 217.942 31.944 218.31 32.168C218.678 32.408 218.95 32.696 219.126 33.032C219.286 33.384 219.382 33.72 219.414 34.056Z" fill="#588B8B"/>
<path d="M105.49 48.52L97.45 70H101.92L103.72 64.87H111.94L113.74 70H118.21L110.14 48.52H105.49ZM110.62 61.15H105.01L106.93 55.75L107.71 53.17H107.95L108.73 55.75L110.62 61.15ZM120.597 54.7V76.48H124.527V70.33L124.287 68.17H124.527C124.917 68.83 125.517 69.4 126.327 69.82C127.137 70.27 128.067 70.48 129.117 70.48C130.497 70.48 131.727 70.15 132.867 69.46C134.007 68.77 134.877 67.81 135.537 66.58C136.167 65.35 136.497 63.94 136.497 62.35C136.497 60.79 136.167 59.41 135.537 58.15C134.877 56.92 134.007 55.96 132.867 55.27C131.727 54.58 130.497 54.22 129.117 54.22C128.067 54.22 127.137 54.46 126.357 54.91C125.547 55.36 124.947 55.9 124.527 56.56H124.287V54.7H120.597ZM130.497 66.28C129.837 66.67 129.147 66.85 128.427 66.85C127.707 66.85 127.017 66.67 126.387 66.28C125.727 65.92 125.217 65.38 124.857 64.69C124.467 64.03 124.287 63.25 124.287 62.35C124.287 61.48 124.467 60.7 124.857 60.01C125.217 59.35 125.727 58.81 126.387 58.45C127.017 58.09 127.707 57.88 128.427 57.88C129.147 57.88 129.837 58.09 130.497 58.45C131.127 58.81 131.637 59.35 132.027 60.01C132.387 60.7 132.597 61.48 132.597 62.35C132.597 63.25 132.387 64.03 132.027 64.69C131.637 65.38 131.127 65.92 130.497 66.28ZM139.113 54.7V76.48H143.043V70.33L142.803 68.17H143.043C143.433 68.83 144.033 69.4 144.843 69.82C145.653 70.27 146.583 70.48 147.633 70.48C149.013 70.48 150.243 70.15 151.383 69.46C152.523 68.77 153.393 67.81 154.053 66.58C154.683 65.35 155.013 63.94 155.013 62.35C155.013 60.79 154.683 59.41 154.053 58.15C153.393 56.92 152.523 55.96 151.383 55.27C150.243 54.58 149.013 54.22 147.633 54.22C146.583 54.22 145.653 54.46 144.873 54.91C144.063 55.36 143.463 55.9 143.043 56.56H142.803V54.7H139.113ZM149.013 66.28C148.353 66.67 147.663 66.85 146.943 66.85C146.223 66.85 145.533 66.67 144.903 66.28C144.243 65.92 143.733 65.38 143.373 64.69C142.983 64.03 142.803 63.25 142.803 62.35C142.803 61.48 142.983 60.7 143.373 60.01C143.733 59.35 144.243 58.81 144.903 58.45C145.533 58.09 146.223 57.88 146.943 57.88C147.663 57.88 148.353 58.09 149.013 58.45C149.643 58.81 150.153 59.35 150.543 60.01C150.903 60.7 151.113 61.48 151.113 62.35C151.113 63.25 150.903 64.03 150.543 64.69C150.153 65.38 149.643 65.92 149.013 66.28ZM166.204 68.89C167.644 69.97 169.294 70.48 171.184 70.48C172.384 70.48 173.524 70.24 174.664 69.76C175.804 69.28 176.734 68.56 177.454 67.6C178.174 66.64 178.534 65.44 178.534 64.03C178.534 62.35 178.024 60.97 177.034 59.92C176.044 58.87 174.634 58.03 172.774 57.37L171.424 56.92C170.164 56.5 169.294 56.08 168.754 55.63C168.214 55.18 167.944 54.64 167.944 53.98C167.944 53.32 168.214 52.81 168.784 52.39C169.354 51.97 170.074 51.76 170.974 51.76C171.814 51.76 172.534 52 173.074 52.45C173.614 52.9 174.004 53.44 174.244 54.1L177.814 52.6C177.394 51.4 176.614 50.32 175.504 49.42C174.364 48.52 172.834 48.04 170.914 48.04C169.564 48.04 168.364 48.31 167.314 48.85C166.234 49.39 165.424 50.11 164.854 51.01C164.254 51.94 163.984 52.96 163.984 54.07C163.984 55.57 164.464 56.83 165.454 57.82C166.414 58.81 167.614 59.53 168.994 60.01L170.314 60.49C171.874 61.09 172.954 61.63 173.554 62.14C174.154 62.65 174.484 63.31 174.484 64.09C174.484 64.9 174.154 65.53 173.524 65.98C172.864 66.43 172.114 66.64 171.214 66.64C170.134 66.64 169.234 66.31 168.514 65.62C167.794 64.96 167.284 64.03 166.984 62.89L163.174 64.39C163.744 66.34 164.764 67.84 166.204 68.89ZM185.628 69.91C186.258 70.15 186.948 70.24 187.728 70.24C188.688 70.24 189.588 70.09 190.458 69.73V65.89C190.038 66.13 189.708 66.31 189.468 66.4C189.228 66.52 188.898 66.55 188.538 66.55C187.848 66.55 187.368 66.4 187.098 66.07C186.738 65.74 186.588 65.17 186.588 64.39V58.06H190.338V54.7H186.588V50.38H182.658V54.7H179.988V58.06H182.658V65.11C182.658 66.79 183.108 68.05 184.068 68.95C184.458 69.37 184.968 69.67 185.628 69.91ZM196.17 69.43C197.4 70.15 198.81 70.48 200.4 70.48C201.96 70.48 203.34 70.15 204.6 69.43C205.83 68.71 206.79 67.75 207.48 66.52C208.17 65.29 208.53 63.91 208.53 62.35C208.53 60.85 208.17 59.47 207.48 58.21C206.79 56.98 205.83 56.02 204.6 55.3C203.34 54.58 201.96 54.22 200.4 54.22C198.81 54.22 197.4 54.58 196.17 55.3C194.91 56.02 193.95 56.98 193.26 58.21C192.57 59.47 192.24 60.85 192.24 62.35C192.24 63.91 192.57 65.29 193.26 66.52C193.95 67.75 194.91 68.71 196.17 69.43ZM202.5 66.31C201.84 66.67 201.15 66.85 200.4 66.85C199.62 66.85 198.93 66.67 198.3 66.31C197.64 65.95 197.13 65.44 196.74 64.75C196.35 64.06 196.17 63.25 196.17 62.35C196.17 61.45 196.35 60.67 196.74 59.98C197.13 59.32 197.64 58.78 198.3 58.42C198.93 58.06 199.62 57.88 200.4 57.88C201.15 57.88 201.84 58.06 202.5 58.42C203.13 58.78 203.64 59.32 204.03 59.98C204.39 60.67 204.6 61.45 204.6 62.35C204.6 63.28 204.39 64.09 204.03 64.75C203.64 65.44 203.13 65.95 202.5 66.31ZM211.244 54.7V70H215.174V62.38C215.174 61.12 215.504 60.04 216.194 59.2C216.854 58.36 217.784 57.94 218.954 57.94C219.374 57.94 219.764 58 220.124 58.09C220.484 58.18 220.964 58.33 221.504 58.51V54.58C220.904 54.37 220.274 54.25 219.584 54.25C218.624 54.25 217.724 54.49 216.944 54.97C216.134 55.45 215.534 56.02 215.174 56.74H214.934V54.7H211.244ZM226.199 69.43C227.399 70.15 228.779 70.48 230.309 70.48C233.489 70.48 235.859 69.13 237.419 66.4L234.239 64.84C233.849 65.5 233.339 66.04 232.679 66.43C232.019 66.82 231.269 67 230.369 67C229.289 67 228.359 66.7 227.579 66.07C226.799 65.44 226.319 64.51 226.139 63.28H237.629C237.689 62.86 237.719 62.44 237.719 61.96C237.719 60.52 237.419 59.23 236.819 58.03C236.219 56.86 235.379 55.93 234.239 55.24C233.099 54.58 231.719 54.22 230.159 54.22C228.659 54.22 227.339 54.61 226.139 55.33C224.939 56.08 223.979 57.07 223.319 58.33C222.629 59.59 222.299 60.94 222.299 62.38C222.299 63.94 222.629 65.32 223.319 66.55C224.009 67.78 224.969 68.74 226.199 69.43ZM233.939 60.49H226.319C226.619 59.56 227.099 58.81 227.759 58.27C228.419 57.73 229.229 57.43 230.189 57.43C230.909 57.43 231.569 57.61 232.109 57.91C232.649 58.21 233.099 58.6 233.399 59.08C233.699 59.56 233.879 60.01 233.939 60.49Z" fill="#588B8B"/>
<path d="M76.9007 31C74.6538 31.1554 72.0275 32.5937 70.4971 34.4665C69.101 36.1656 67.9525 38.6891 68.4003 41.1415C70.8553 41.2179 73.392 39.7454 74.8619 37.8409C76.2369 36.0681 77.2774 33.5604 76.9007 31Z" fill="#588B8B"/>
<path d="M85.7804 45.1401C83.623 42.4348 80.5911 40.8649 77.7278 40.8649C73.9478 40.8649 72.3488 42.6745 69.7226 42.6745C67.0147 42.6745 64.9574 40.8701 61.6884 40.8701C58.4774 40.8701 55.0582 42.8326 52.8903 46.1885C49.8426 50.9142 50.3642 59.7992 55.3032 67.3671C57.0707 70.075 59.4309 73.1201 62.5182 73.1464C65.2656 73.1728 66.04 71.3842 69.7621 71.3657C73.4842 71.3447 74.1901 73.1701 76.9323 73.1412C80.0221 73.1175 82.5114 69.7431 84.2789 67.0352C85.5459 65.0938 86.0175 64.1166 87 61.9249C79.8535 59.2039 78.7077 49.0413 85.7804 45.1401Z" fill="#588B8B"/>
</svg>
