<svg width="68" height="71" viewBox="0 0 68 71" fill="none" xmlns="http://www.w3.org/2000/svg">
<path d="M0.000714706 38.6899C0.0635752 42.1285 1.55646 45.3853 4.12042 47.6773L26.2618 67.4353C28.3952 69.3 31.1296 70.3328 33.9631 70.3439C35.6181 70.3419 37.2548 69.997 38.7698 69.331C41.022 68.372 40.3889 68.6405 63.8914 47.6633C66.4518 45.3758 67.9406 42.1229 67.9982 38.6899C67.9982 31.6815 68.0111 33.0028 67.9677 32.6804C67.9736 22.5136 55.8993 17.4759 48.4923 24.0904L45.7466 26.5348V11.7254C45.7425 8.47788 44.3934 5.3771 42.0201 3.16038C39.6468 0.943662 36.4613 -0.19095 33.221 0.0263339C26.9637 0.540158 22.171 5.8086 22.25 12.0865V26.536L19.5078 24.0904C16.0526 20.9947 11.0947 20.2328 6.86938 22.1483C2.6441 24.0638 -0.050401 28.2947 0.000714706 32.9336V38.6899ZM62.3286 45.9164C38.7956 66.9218 39.7066 66.3497 37.8495 67.1785C34.4359 68.7141 30.4364 68.0772 27.6687 65.5572L5.68437 45.9293C3.96549 44.3875 2.8306 42.3003 2.4709 40.0194C3.51783 41.4016 2.2798 40.1706 26.2618 61.5641C30.73 65.4663 37.4028 65.4372 41.8368 61.4961C65.7109 40.1777 64.4811 41.4145 65.5292 40.01C65.1791 42.2903 64.0478 44.3781 62.3286 45.9164ZM4.26463 27.0553C5.86913 25.0067 8.25009 23.7137 10.842 23.4834C13.434 23.2531 16.0056 24.106 17.9462 25.8396L20.686 28.2852C21.3754 28.904 22.3645 29.0589 23.2101 28.6805C24.0557 28.302 24.5992 27.4612 24.597 26.5348V12.0865C24.5145 7.04456 28.3481 2.7987 33.3722 2.36756C35.9662 2.18926 38.5179 3.09495 40.419 4.86871C42.3201 6.64247 43.4002 9.12535 43.4019 11.7254V26.5348C43.3992 27.4614 43.9426 28.3027 44.7882 28.6814C45.6339 29.0602 46.6233 28.9053 47.3129 28.2863L50.0539 25.8396C51.9628 24.1363 54.4827 23.283 57.0337 23.4761C59.5848 23.6692 61.9475 24.8919 63.5784 26.8631C66.7303 30.8967 66.1795 36.6906 62.3239 40.0581L40.1919 59.809C36.6111 62.9205 31.2781 62.8939 27.7285 59.7469L5.6785 40.0604C1.86093 36.7715 1.24301 31.0878 4.26463 27.0553Z" fill="#FD8F0A"/>
</svg>
