<svg width="30" height="30" viewBox="0 0 30 30" fill="none" xmlns="http://www.w3.org/2000/svg">
<path d="M15 30C23.2843 30 30 23.2843 30 15C30 6.71573 23.2843 0 15 0C6.71573 0 0 6.71573 0 15C0 23.2843 6.71573 30 15 30Z" fill="#FEE55A"/>
<path d="M2.29377 15C2.29377 7.10162 8.39848 0.629121 16.1469 0.0433008C15.7683 0.0146484 15.3859 0 15 0C6.71572 0 0 6.71572 0 15C0 23.2843 6.71572 30 15 30C15.3859 30 15.7683 29.9854 16.1469 29.9567C8.39848 29.3709 2.29377 22.8984 2.29377 15Z" fill="#FFD301"/>
<path d="M15.0001 27.922C22.1367 27.922 27.9221 22.1366 27.9221 15C27.9221 7.8634 22.1367 2.07803 15.0001 2.07803C7.86349 2.07803 2.07812 7.8634 2.07812 15C2.07812 22.1366 7.86349 27.922 15.0001 27.922Z" fill="#FFD301"/>
<path d="M4.88564 15C4.88564 8.33778 9.92764 2.85393 16.4038 2.15421C15.9427 2.1044 15.4745 2.07803 15.0001 2.07803C7.8635 2.07803 2.07812 7.8634 2.07812 15C2.07812 22.1366 7.8635 27.922 15.0001 27.922C15.4745 27.922 15.9427 27.8957 16.4038 27.8458C9.92764 27.1461 4.88564 21.6622 4.88564 15Z" fill="#FFC20C"/>
<path d="M21.0387 17.6858C21.043 16.4362 20.4107 15.3313 19.4485 14.6774C19.3666 14.6218 19.347 14.5104 19.4047 14.4301C19.83 13.8368 20.0812 13.1108 20.0812 12.3268C20.0812 10.6267 18.903 9.19669 17.3202 8.81027C17.2425 8.79128 17.1886 8.72033 17.1886 8.64029V7.18681C17.1886 6.67728 16.7971 6.23888 16.2881 6.21492C15.7447 6.18931 15.2962 6.62232 15.2962 7.16009V8.5316C15.2962 8.62874 15.2174 8.70744 15.1204 8.70744H13.8634C13.7663 8.70744 13.6876 8.62874 13.6876 8.5316V7.18681C13.6876 6.67728 13.2961 6.23888 12.7871 6.21492C12.2437 6.18931 11.7951 6.62232 11.7951 7.16009V8.5316C11.7951 8.62874 11.7164 8.70744 11.6193 8.70744H10.4241C9.91462 8.70744 9.47622 9.09902 9.45225 9.6079C9.42665 10.1513 9.85965 10.5999 10.3974 10.5999H10.7516C10.8487 10.5999 10.9275 10.6786 10.9275 10.7757V19.2242C10.9275 19.3213 10.8487 19.4001 10.7516 19.4001H10.4242C9.91467 19.4001 9.47627 19.7916 9.45231 20.3006C9.4267 20.844 9.85971 21.2926 10.3975 21.2926H11.6194C11.7165 21.2926 11.7952 21.3712 11.7952 21.4684V22.8132C11.7952 23.3227 12.1867 23.7611 12.6956 23.7851C13.239 23.8107 13.6876 23.3777 13.6876 22.8399V21.4683C13.6876 21.3712 13.7664 21.2925 13.8635 21.2925H15.1204C15.2175 21.2925 15.2962 21.3712 15.2962 21.4683V22.8131C15.2962 23.3226 15.6877 23.761 16.1967 23.785C16.7401 23.8106 17.1887 23.3776 17.1887 22.8398V21.4683C17.1887 21.3711 17.2674 21.2924 17.3645 21.2924C19.3674 21.2926 21.0318 19.6888 21.0387 17.6858ZM12.8198 10.8598C12.8198 10.7163 12.9361 10.6 13.0796 10.6H16.4251C17.3647 10.6 18.16 11.3353 18.1879 12.2746C18.2169 13.2506 17.4314 14.0538 16.4618 14.0538H13.0796C12.9361 14.0538 12.8198 13.9375 12.8198 13.794V10.8598ZM19.1455 17.7254C19.1176 18.6647 18.3223 19.4 17.3826 19.4H13.0796C12.9361 19.4 12.8198 19.2837 12.8198 19.1402V16.206C12.8198 16.0625 12.9361 15.9462 13.0796 15.9462H17.4194C18.389 15.9462 19.1744 16.7494 19.1455 17.7254Z" fill="#E49824"/>
<path d="M16.455 8.5316V7.16009C16.455 6.85775 16.5969 6.58851 16.8176 6.41525C16.6704 6.29853 16.489 6.22429 16.2889 6.21492C15.7455 6.18931 15.2969 6.62232 15.2969 7.16009V8.5316C15.2969 8.62875 15.2181 8.70744 15.1211 8.70744H16.2793C16.3763 8.70744 16.455 8.62875 16.455 8.5316Z" fill="#DF751C"/>
<path d="M10.6115 20.3005C10.6354 19.7916 11.0738 19.4001 11.5833 19.4001H11.9108C12.0079 19.4001 12.0866 19.3214 12.0866 19.2242V10.7758C12.0866 10.6787 12.0079 10.5999 11.9108 10.5999H11.5566C11.0188 10.5999 10.5858 10.1513 10.6114 9.60793C10.6354 9.09898 11.0738 8.70746 11.5833 8.70746H10.4251C9.91559 8.70746 9.47719 9.09904 9.45323 9.60793C9.42762 10.1513 9.86063 10.5999 10.3984 10.5999H10.7526C10.8497 10.5999 10.9284 10.6786 10.9284 10.7758V19.2243C10.9284 19.3214 10.8497 19.4001 10.7526 19.4001H10.4252C9.91565 19.4001 9.47725 19.7916 9.45329 20.3006C9.42768 20.844 9.86069 21.2926 10.3985 21.2926H11.5566C11.0189 21.2926 10.5858 20.8439 10.6115 20.3005Z" fill="#DF751C"/>
<path d="M12.9541 8.5316V7.16009C12.9541 6.85775 13.0959 6.58851 13.3166 6.41525C13.1695 6.29853 12.988 6.22429 12.7879 6.21492C12.2445 6.18931 11.7959 6.62232 11.7959 7.16009V8.5316C11.7959 8.62875 11.7172 8.70744 11.6201 8.70744H12.7783C12.8754 8.70744 12.9541 8.62875 12.9541 8.5316Z" fill="#DF751C"/>
<path d="M16.455 22.8132V21.4684C16.455 21.3712 16.3763 21.2925 16.2793 21.2925H15.1211C15.2182 21.2925 15.2969 21.3712 15.2969 21.4684V22.8132C15.2969 23.3227 15.6884 23.7611 16.1973 23.7851C16.4352 23.7963 16.6549 23.7196 16.8268 23.5847C16.5998 23.4046 16.455 23.1223 16.455 22.8132Z" fill="#DF751C"/>
<path d="M12.9541 22.8132V21.4684C12.9541 21.3712 12.8754 21.2925 12.7783 21.2925H11.6201C11.7172 21.2925 11.7959 21.3712 11.7959 21.4684V22.8132C11.7959 23.3227 12.1874 23.7611 12.6964 23.7851C12.9343 23.7963 13.1539 23.7196 13.3258 23.5847C13.0988 23.4046 12.9541 23.1223 12.9541 22.8132Z" fill="#DF751C"/>
<path d="M27.9219 14.5473H26.3048V14.3279C26.3048 14.0779 26.1021 13.8752 25.8521 13.8752C25.6021 13.8752 25.3994 14.0779 25.3994 14.3279V15.6721C25.3994 15.9222 25.6021 16.1248 25.8521 16.1248C26.1021 16.1248 26.3048 15.9222 26.3048 15.6721V15.4528H27.9219C28.172 15.4528 28.3746 15.2501 28.3746 15.0001C28.3746 14.75 28.172 14.5473 27.9219 14.5473Z" fill="#FEE55A"/>
<path d="M14.3286 4.60061H15.6728C15.9228 4.60061 16.1255 4.39793 16.1255 4.14791C16.1255 3.89789 15.9228 3.69522 15.6728 3.69522H15.4534V2.07803C15.4534 1.82801 15.2508 1.62534 15.0007 1.62534C14.7507 1.62534 14.548 1.82801 14.548 2.07803V3.69516H14.3287C14.0787 3.69516 13.876 3.89784 13.876 4.14786C13.8759 4.39793 14.0786 4.60061 14.3286 4.60061Z" fill="#FEE55A"/>
<path d="M15.6718 25.3994H14.3277C14.0777 25.3994 13.875 25.6021 13.875 25.8521C13.875 26.1021 14.0777 26.3048 14.3277 26.3048H14.5471V27.9219C14.5471 28.1719 14.7497 28.3746 14.9998 28.3746C15.2498 28.3746 15.4525 28.1719 15.4525 27.9219V26.3048H15.6718C15.9219 26.3048 16.1245 26.1021 16.1245 25.8521C16.1246 25.6021 15.9219 25.3994 15.6718 25.3994Z" fill="#FEE55A"/>
<path d="M3.69525 15.6721C3.69525 15.9221 3.89793 16.1248 4.14795 16.1248C4.39797 16.1248 4.60064 15.9221 4.60064 15.6721V14.3279C4.60064 14.0779 4.39797 13.8752 4.14795 13.8752C3.89793 13.8752 3.69525 14.0779 3.69525 14.3279V14.5473H2.08686C2.08164 14.6977 2.07812 14.8484 2.07812 15C2.07812 15.1516 2.0817 15.3024 2.08686 15.4527H3.69525V15.6721Z" fill="#FEE55A"/>
<path d="M5.2251 12.9302C5.26313 12.9401 5.30127 12.9448 5.33883 12.9448C5.54022 12.9448 5.72397 12.8094 5.77682 12.6054C6.39275 10.226 7.95738 8.12714 10.0696 6.84693C10.2834 6.71732 10.3516 6.43894 10.222 6.22507C10.0925 6.01126 9.8141 5.94294 9.60024 6.07255C7.25391 7.49474 5.58475 9.73425 4.90031 12.3785C4.83762 12.6206 4.98305 12.8676 5.2251 12.9302Z" fill="#FEE55A"/>
<path d="M19.6214 5.64517C19.3973 5.53431 19.1258 5.62601 19.0149 5.85007C18.9039 6.07414 18.9957 6.34572 19.2198 6.45663C21.7065 7.68751 23.5302 9.92867 24.2231 12.6055C24.2759 12.8095 24.4597 12.9448 24.661 12.9448C24.6986 12.9448 24.7367 12.9401 24.7748 12.9303C25.0168 12.8677 25.1623 12.6206 25.0996 12.3786C24.3408 9.44691 22.3441 6.99271 19.6214 5.64517Z" fill="#FEE55A"/>
<path d="M24.7748 17.0698C24.5328 17.0071 24.2857 17.1525 24.2231 17.3946C23.5302 20.0714 21.7065 22.3126 19.2198 23.5434C18.9957 23.6544 18.9039 23.9259 19.0149 24.15C19.0938 24.3096 19.2542 24.402 19.421 24.402C19.4884 24.402 19.5569 24.3868 19.6215 24.3549C22.3441 23.0073 24.3408 20.5531 25.0997 17.6215C25.1623 17.3794 25.0168 17.1324 24.7748 17.0698Z" fill="#FEE55A"/>
<path d="M10.0693 23.1529C7.92625 21.8538 6.40181 19.8088 5.77685 17.3946C5.71416 17.1525 5.46718 17.0071 5.22513 17.0697C4.98308 17.1324 4.83765 17.3794 4.90029 17.6214C5.58472 20.2655 7.25377 22.505 9.59992 23.9272C9.67328 23.9717 9.7542 23.9928 9.83412 23.9928C9.98722 23.9928 10.1365 23.9152 10.2217 23.7747C10.3514 23.561 10.2831 23.2825 10.0693 23.1529Z" fill="#FEE55A"/>
</svg>
