<svg width="28" height="28" viewBox="0 0 28 28" fill="none" xmlns="http://www.w3.org/2000/svg">
<path d="M14 27C21.1797 27 27 21.1797 27 14C27 6.8203 21.1797 1 14 1C6.8203 1 1 6.8203 1 14C1 21.1797 6.8203 27 14 27Z" stroke="#464855" stroke-width="2" stroke-linecap="round" stroke-linejoin="round"/>
<path d="M14 19.2C16.8719 19.2 19.2 16.8719 19.2 14C19.2 11.1282 16.8719 8.80005 14 8.80005C11.1282 8.80005 8.80005 11.1282 8.80005 14C8.80005 16.8719 11.1282 19.2 14 19.2Z" stroke="#464855" stroke-width="2" stroke-linecap="round" stroke-linejoin="round"/>
<path d="M4.80896 4.80908L10.321 10.3211" stroke="#464855" stroke-width="2" stroke-linecap="round" stroke-linejoin="round"/>
<path d="M17.679 17.6792L23.191 23.1912" stroke="#464855" stroke-width="2" stroke-linecap="round" stroke-linejoin="round"/>
<path d="M17.679 10.3211L23.191 4.80908" stroke="#464855" stroke-width="2" stroke-linecap="round" stroke-linejoin="round"/>
<path d="M17.679 10.3209L22.268 5.73193" stroke="#464855" stroke-width="2" stroke-linecap="round" stroke-linejoin="round"/>
<path d="M4.80896 23.1912L10.321 17.6792" stroke="#464855" stroke-width="2" stroke-linecap="round" stroke-linejoin="round"/>
</svg>
