<svg width="51" height="50" viewBox="0 0 51 50" fill="none" xmlns="http://www.w3.org/2000/svg">
<circle cx="25.0098" cy="25" r="25" fill="#FD8F0A"/>
<path d="M37.2564 13.0581H34.0064V11.6581C34.0064 11.4 33.7989 11.1914 33.5421 11.1914H30.2921C30.0354 11.1914 29.8278 11.4 29.8278 11.6581V13.0581H19.6136V11.6581C19.6136 11.4 19.406 11.1914 19.1493 11.1914H15.8993C15.6425 11.1914 15.435 11.4 15.435 11.6581V13.0581H12.185C11.9282 13.0581 11.7207 13.2667 11.7207 13.5247V18.6581V38.7247C11.7207 38.9828 11.9282 39.1914 12.185 39.1914H37.2564C37.5132 39.1914 37.7207 38.9828 37.7207 38.7247V18.6581V13.5247C37.7207 13.2667 37.5132 13.0581 37.2564 13.0581ZM30.7564 12.1247H33.0778V13.5247V14.9247H30.7564V13.5247V12.1247ZM16.3636 12.1247H18.685V13.5247V14.9247H16.3636V13.5247V12.1247ZM12.6493 13.9914H15.435V15.3914C15.435 15.6495 15.6425 15.8581 15.8993 15.8581H19.1493C19.406 15.8581 19.6136 15.6495 19.6136 15.3914V13.9914H29.8278V15.3914C29.8278 15.6495 30.0354 15.8581 30.2921 15.8581H33.5421C33.7989 15.8581 34.0064 15.6495 34.0064 15.3914V13.9914H36.7921V18.1914H12.6493V13.9914ZM12.6493 38.2581V19.1247H36.7921V38.2581H12.6493Z" fill="white"/>
<path d="M28.4371 21.9258H25.1871H24.2585H21.0085H20.0799H15.9014V26.1258V27.0591V30.3258V31.2591V35.4591H20.0799H21.0085H24.2585H25.1871H28.4371H29.3657H33.5442V31.2591V30.3258V27.0591V26.1258V21.9258H29.3657H28.4371ZM25.1871 22.8591H28.4371V26.1258H25.1871V22.8591ZM28.4371 30.3258H25.1871V27.0591H28.4371V30.3258ZM21.0085 27.0591H24.2585V30.3258H21.0085V27.0591ZM21.0085 22.8591H24.2585V26.1258H21.0085V22.8591ZM16.8299 22.8591H20.0799V26.1258H16.8299V22.8591ZM16.8299 27.0591H20.0799V30.3258H16.8299V27.0591ZM20.0799 34.5258H16.8299V31.2591H20.0799V34.5258ZM24.2585 34.5258H21.0085V31.2591H24.2585V34.5258ZM28.4371 34.5258H25.1871V31.2591H28.4371V34.5258ZM32.6157 34.5258H29.3657V31.2591H32.6157V34.5258ZM32.6157 30.3258H29.3657V27.0591H32.6157V30.3258ZM32.6157 22.8591V26.1258H29.3657V22.8591H32.6157Z" fill="white"/>
</svg>
