<svg width="17" height="16" viewBox="0 0 17 16" fill="none" xmlns="http://www.w3.org/2000/svg">
<path d="M11.2537 0.583496H5.55371C2.93076 0.583496 0.803711 2.71055 0.803711 5.3335V11.0335C0.803711 13.6564 2.93076 15.7835 5.55371 15.7835H11.2537C13.8767 15.7835 16.0037 13.6564 16.0037 11.0335V5.3335C16.0037 2.71055 13.8767 0.583496 11.2537 0.583496ZM14.5787 11.0335C14.5787 12.867 13.0872 14.3585 11.2537 14.3585H5.55371C3.72021 14.3585 2.22871 12.867 2.22871 11.0335V5.3335C2.22871 3.5 3.72021 2.0085 5.55371 2.0085H11.2537C13.0872 2.0085 14.5787 3.5 14.5787 5.3335V11.0335Z" fill="#464855"/>
<path d="M8.404 4.3833C6.30545 4.3833 4.604 6.08475 4.604 8.1833C4.604 10.2819 6.30545 11.9833 8.404 11.9833C10.5026 11.9833 12.204 10.2819 12.204 8.1833C12.204 6.08475 10.5026 4.3833 8.404 4.3833ZM8.404 10.5583C7.0949 10.5583 6.029 9.4924 6.029 8.1833C6.029 6.87325 7.0949 5.8083 8.404 5.8083C9.7131 5.8083 10.779 6.87325 10.779 8.1833C10.779 9.4924 9.7131 10.5583 8.404 10.5583Z" fill="#464855"/>
<path d="M12.489 4.60498C12.7687 4.60498 12.9954 4.37828 12.9954 4.09864C12.9954 3.81899 12.7687 3.59229 12.489 3.59229C12.2094 3.59229 11.9827 3.81899 11.9827 4.09864C11.9827 4.37828 12.2094 4.60498 12.489 4.60498Z" fill="#464855"/>
</svg>
