<svg width="16" height="15" viewBox="0 0 16 15" fill="none" xmlns="http://www.w3.org/2000/svg">
<path d="M15.2205 8.91752V14.3083H12.0953V9.27856C12.0953 8.01504 11.6432 7.15274 10.512 7.15274C9.64842 7.15274 9.13452 7.73387 8.90843 8.29601C8.82599 8.49698 8.80477 8.77669 8.80477 9.058V14.3083H5.67846C5.67846 14.3083 5.72056 5.78955 5.67846 4.90694H8.80446V6.23955C8.79812 6.24952 8.78988 6.26026 8.78392 6.26992H8.80446V6.23955C9.21978 5.59987 9.9615 4.68607 11.6217 4.68607C13.6786 4.68604 15.2205 6.02977 15.2205 8.91752ZM2.40821 0.375C1.33871 0.375 0.63916 1.07651 0.63916 1.99902C0.63916 2.90143 1.31847 3.62423 2.36672 3.62423H2.3876C3.47782 3.62423 4.15584 2.90157 4.15584 1.99902C4.13529 1.07651 3.47782 0.375 2.40821 0.375ZM0.824835 14.3083H3.94996V4.90694H0.824835V14.3083Z" fill="#464855"/>
</svg>
