<svg width="290" height="104" viewBox="0 0 290 104" fill="none" xmlns="http://www.w3.org/2000/svg">
<rect x="0.25" y="0.25" width="289.5" height="103.5" rx="9.75" fill="white" stroke="white" stroke-width="0.5"/>
<path d="M85.68 38.472C86.576 39 87.568 39.256 88.656 39.256C90.4 39.256 91.808 38.696 92.864 37.544C93.344 37.048 93.712 36.472 93.936 35.8C94.16 35.128 94.272 34.44 94.272 33.736C94.272 33.48 94.24 33.208 94.192 32.904H88.688V34.168H92.928C92.88 34.68 92.768 35.16 92.608 35.576C92.432 35.992 92.208 36.36 91.936 36.648C91.552 37.048 91.104 37.368 90.592 37.608C90.08 37.848 89.44 37.96 88.672 37.96C87.872 37.96 87.12 37.768 86.416 37.384C85.712 37 85.136 36.44 84.72 35.736C84.304 35.032 84.096 34.2 84.096 33.272C84.096 32.344 84.304 31.528 84.72 30.824C85.136 30.12 85.696 29.56 86.4 29.176C87.104 28.792 87.856 28.584 88.672 28.584C89.312 28.584 89.92 28.712 90.496 28.952C91.056 29.192 91.52 29.528 91.888 29.976L92.864 29C92.384 28.456 91.76 28.04 91.024 27.736C90.288 27.448 89.488 27.288 88.656 27.288C87.568 27.288 86.576 27.56 85.68 28.072C84.768 28.6 84.048 29.32 83.52 30.232C82.976 31.16 82.72 32.168 82.72 33.272C82.72 34.392 82.976 35.4 83.52 36.312C84.048 37.24 84.768 37.96 85.68 38.472ZM97.4815 38.696C98.0895 39.08 98.7935 39.256 99.5775 39.256C100.426 39.256 101.146 39.064 101.754 38.68C102.362 38.296 102.842 37.784 103.194 37.112L102.042 36.552C101.466 37.544 100.666 38.024 99.6255 38.024C99.1775 38.024 98.7455 37.928 98.3295 37.704C97.9135 37.496 97.5775 37.176 97.3215 36.744C97.0495 36.328 96.9055 35.8 96.8735 35.176H103.322C103.354 35.064 103.37 34.92 103.37 34.76C103.37 33.96 103.21 33.24 102.89 32.6C102.57 31.976 102.122 31.48 101.546 31.128C100.954 30.776 100.266 30.584 99.4655 30.584C98.6655 30.584 97.9775 30.792 97.3855 31.176C96.7775 31.576 96.3135 32.104 95.9935 32.76C95.6735 33.432 95.5135 34.152 95.5135 34.936C95.5135 35.768 95.6735 36.504 96.0255 37.16C96.3775 37.816 96.8575 38.328 97.4815 38.696ZM101.93 34.056H96.9535C97.0815 33.384 97.3695 32.856 97.8175 32.44C98.2655 32.024 98.8095 31.816 99.4495 31.816C99.9935 31.816 100.458 31.944 100.826 32.168C101.194 32.408 101.466 32.696 101.642 33.032C101.802 33.384 101.898 33.72 101.93 34.056ZM106.935 38.968C107.223 39.08 107.527 39.128 107.863 39.128C108.119 39.128 108.327 39.112 108.487 39.08C108.647 39.048 108.823 39 108.983 38.92V37.592C108.695 37.784 108.391 37.864 108.087 37.864C107.703 37.864 107.399 37.752 107.207 37.512C107.031 37.304 106.951 36.968 106.951 36.52V32.072H108.935V30.84H106.951V28.536H105.591V30.84H104.167V32.072H105.591V36.856C105.591 37.24 105.639 37.576 105.751 37.832C105.847 38.104 106.007 38.344 106.231 38.536C106.423 38.728 106.647 38.872 106.935 38.968ZM114.417 29.048C114.609 29.24 114.833 29.336 115.105 29.336C115.377 29.336 115.601 29.24 115.793 29.048C115.985 28.856 116.081 28.632 116.081 28.36C116.081 28.104 115.985 27.88 115.793 27.688C115.601 27.496 115.361 27.4 115.105 27.4C114.833 27.4 114.609 27.496 114.417 27.688C114.225 27.88 114.129 28.104 114.129 28.36C114.129 28.632 114.225 28.856 114.417 29.048ZM114.433 30.84V39H115.777V30.84H114.433ZM120.044 38.968C120.332 39.08 120.636 39.128 120.972 39.128C121.228 39.128 121.436 39.112 121.596 39.08C121.756 39.048 121.932 39 122.092 38.92V37.592C121.804 37.784 121.5 37.864 121.196 37.864C120.812 37.864 120.508 37.752 120.316 37.512C120.14 37.304 120.06 36.968 120.06 36.52V32.072H122.044V30.84H120.06V28.536H118.7V30.84H117.276V32.072H118.7V36.856C118.7 37.24 118.748 37.576 118.86 37.832C118.956 38.104 119.116 38.344 119.34 38.536C119.532 38.728 119.756 38.872 120.044 38.968ZM129.014 38.68C129.654 39.064 130.374 39.256 131.174 39.256C131.974 39.256 132.694 39.064 133.334 38.68C133.974 38.296 134.47 37.784 134.822 37.112C135.174 36.456 135.366 35.72 135.366 34.92C135.366 34.12 135.174 33.4 134.822 32.728C134.47 32.072 133.974 31.544 133.334 31.16C132.694 30.776 131.974 30.584 131.174 30.584C130.374 30.584 129.654 30.776 129.014 31.16C128.374 31.544 127.862 32.072 127.51 32.728C127.158 33.4 126.982 34.12 126.982 34.92C126.982 35.72 127.158 36.456 127.51 37.112C127.862 37.784 128.374 38.296 129.014 38.68ZM132.566 37.656C132.134 37.912 131.67 38.024 131.174 38.024C130.662 38.024 130.198 37.912 129.766 37.656C129.318 37.4 128.966 37.048 128.71 36.568C128.454 36.104 128.326 35.56 128.326 34.92C128.326 34.296 128.454 33.752 128.71 33.272C128.966 32.808 129.318 32.456 129.766 32.2C130.198 31.944 130.662 31.816 131.174 31.816C131.67 31.816 132.134 31.944 132.566 32.2C132.998 32.456 133.35 32.808 133.606 33.272C133.862 33.752 134.006 34.296 134.006 34.92C134.006 35.56 133.862 36.104 133.606 36.568C133.35 37.048 132.998 37.4 132.566 37.656ZM136.789 30.84V39H138.149V34.408C138.149 33.976 138.245 33.56 138.437 33.16C138.629 32.76 138.885 32.44 139.237 32.184C139.589 31.944 139.973 31.816 140.421 31.816C141.045 31.816 141.541 31.992 141.909 32.328C142.261 32.68 142.453 33.224 142.453 33.976V39H143.813V33.768C143.813 32.792 143.541 32.024 143.029 31.448C142.517 30.872 141.765 30.584 140.789 30.584C140.229 30.584 139.701 30.728 139.221 31.016C138.725 31.304 138.373 31.64 138.149 32.04H138.085V30.84H136.789Z" fill="#588B8B"/>
<path d="M88.02 68.04C89.76 69 91.65 69.48 93.72 69.48C95.4 69.48 96.9 69.21 98.28 68.67C99.63 68.13 100.8 67.32 101.76 66.27C102.63 65.37 103.29 64.29 103.71 63.06C104.13 61.86 104.37 60.54 104.37 59.1C104.37 58.41 104.28 57.78 104.16 57.21H93.63V60.66H100.38C100.23 61.32 100.02 61.95 99.72 62.49C99.42 63.06 99.06 63.51 98.67 63.87C97.38 65.07 95.73 65.64 93.75 65.64C92.43 65.64 91.2 65.34 90.09 64.74C88.98 64.14 88.11 63.27 87.45 62.13C86.79 60.99 86.46 59.7 86.46 58.26C86.46 56.82 86.76 55.56 87.42 54.42C88.08 53.28 88.95 52.41 90.06 51.81C91.14 51.21 92.37 50.88 93.69 50.88C94.83 50.88 95.85 51.09 96.72 51.45C97.59 51.84 98.4 52.41 99.12 53.16L101.91 50.43C100.89 49.35 99.69 48.54 98.31 47.94C96.93 47.34 95.4 47.04 93.72 47.04C91.65 47.04 89.76 47.55 88.02 48.51C86.28 49.47 84.93 50.82 83.91 52.53C82.89 54.24 82.38 56.16 82.38 58.26C82.38 60.39 82.89 62.31 83.91 64.02C84.93 65.73 86.28 67.08 88.02 68.04ZM110.649 68.43C111.879 69.15 113.289 69.48 114.879 69.48C116.439 69.48 117.819 69.15 119.079 68.43C120.309 67.71 121.269 66.75 121.959 65.52C122.649 64.29 123.009 62.91 123.009 61.35C123.009 59.85 122.649 58.47 121.959 57.21C121.269 55.98 120.309 55.02 119.079 54.3C117.819 53.58 116.439 53.22 114.879 53.22C113.289 53.22 111.879 53.58 110.649 54.3C109.389 55.02 108.429 55.98 107.739 57.21C107.049 58.47 106.719 59.85 106.719 61.35C106.719 62.91 107.049 64.29 107.739 65.52C108.429 66.75 109.389 67.71 110.649 68.43ZM116.979 65.31C116.319 65.67 115.629 65.85 114.879 65.85C114.099 65.85 113.409 65.67 112.779 65.31C112.119 64.95 111.609 64.44 111.219 63.75C110.829 63.06 110.649 62.25 110.649 61.35C110.649 60.45 110.829 59.67 111.219 58.98C111.609 58.32 112.119 57.78 112.779 57.42C113.409 57.06 114.099 56.88 114.879 56.88C115.629 56.88 116.319 57.06 116.979 57.42C117.609 57.78 118.119 58.32 118.509 58.98C118.869 59.67 119.079 60.45 119.079 61.35C119.079 62.28 118.869 63.09 118.509 63.75C118.119 64.44 117.609 64.95 116.979 65.31ZM129.106 68.43C130.336 69.15 131.746 69.48 133.336 69.48C134.896 69.48 136.276 69.15 137.536 68.43C138.766 67.71 139.726 66.75 140.416 65.52C141.106 64.29 141.466 62.91 141.466 61.35C141.466 59.85 141.106 58.47 140.416 57.21C139.726 55.98 138.766 55.02 137.536 54.3C136.276 53.58 134.896 53.22 133.336 53.22C131.746 53.22 130.336 53.58 129.106 54.3C127.846 55.02 126.886 55.98 126.196 57.21C125.506 58.47 125.176 59.85 125.176 61.35C125.176 62.91 125.506 64.29 126.196 65.52C126.886 66.75 127.846 67.71 129.106 68.43ZM135.436 65.31C134.776 65.67 134.086 65.85 133.336 65.85C132.556 65.85 131.866 65.67 131.236 65.31C130.576 64.95 130.066 64.44 129.676 63.75C129.286 63.06 129.106 62.25 129.106 61.35C129.106 60.45 129.286 59.67 129.676 58.98C130.066 58.32 130.576 57.78 131.236 57.42C131.866 57.06 132.556 56.88 133.336 56.88C134.086 56.88 134.776 57.06 135.436 57.42C136.066 57.78 136.576 58.32 136.966 58.98C137.326 59.67 137.536 60.45 137.536 61.35C137.536 62.28 137.326 63.09 136.966 63.75C136.576 64.44 136.066 64.95 135.436 65.31ZM146.693 74.67C147.953 75.54 149.573 75.96 151.523 75.96C153.083 75.96 154.463 75.66 155.663 75C156.833 74.34 157.733 73.41 158.393 72.21C159.023 71.01 159.353 69.6 159.353 67.95V53.7H155.573V55.32H155.333C154.853 54.66 154.223 54.12 153.443 53.76C152.663 53.4 151.763 53.22 150.773 53.22C149.513 53.22 148.313 53.55 147.233 54.21C146.153 54.87 145.283 55.77 144.623 56.97C143.963 58.17 143.633 59.55 143.633 61.11C143.633 62.7 143.963 64.08 144.623 65.28C145.283 66.48 146.153 67.38 147.233 68.04C148.313 68.7 149.513 69 150.773 69C151.763 69 152.663 68.82 153.443 68.46C154.223 68.1 154.853 67.59 155.333 66.9H155.573V68.1C155.573 69.51 155.183 70.59 154.463 71.34C153.743 72.12 152.753 72.48 151.523 72.48C150.683 72.48 149.933 72.27 149.273 71.82C148.613 71.4 148.103 70.8 147.803 70.02L144.113 71.52C144.533 72.75 145.403 73.8 146.693 74.67ZM154.403 64.29C153.623 65.07 152.663 65.43 151.583 65.43C150.443 65.43 149.513 65.07 148.733 64.29C147.953 63.54 147.563 62.49 147.563 61.11C147.563 59.76 147.953 58.71 148.733 57.93C149.513 57.18 150.443 56.79 151.583 56.79C152.693 56.79 153.623 57.18 154.403 57.93C155.183 58.68 155.573 59.73 155.573 61.11C155.573 62.46 155.183 63.51 154.403 64.29ZM163.193 47.52V69H167.123V47.52H163.193ZM173.9 68.43C175.1 69.15 176.48 69.48 178.01 69.48C181.19 69.48 183.56 68.13 185.12 65.4L181.94 63.84C181.55 64.5 181.04 65.04 180.38 65.43C179.72 65.82 178.97 66 178.07 66C176.99 66 176.06 65.7 175.28 65.07C174.5 64.44 174.02 63.51 173.84 62.28H185.33C185.39 61.86 185.42 61.44 185.42 60.96C185.42 59.52 185.12 58.23 184.52 57.03C183.92 55.86 183.08 54.93 181.94 54.24C180.8 53.58 179.42 53.22 177.86 53.22C176.36 53.22 175.04 53.61 173.84 54.33C172.64 55.08 171.68 56.07 171.02 57.33C170.33 58.59 170 59.94 170 61.38C170 62.94 170.33 64.32 171.02 65.55C171.71 66.78 172.67 67.74 173.9 68.43ZM181.64 59.49H174.02C174.32 58.56 174.8 57.81 175.46 57.27C176.12 56.73 176.93 56.43 177.89 56.43C178.61 56.43 179.27 56.61 179.81 56.91C180.35 57.21 180.8 57.6 181.1 58.08C181.4 58.56 181.58 59.01 181.64 59.49ZM196.019 47.52V69H200.069V61.11H203.579C204.929 61.11 206.159 60.84 207.299 60.27C208.409 59.7 209.279 58.89 209.939 57.84C210.569 56.82 210.899 55.62 210.899 54.3C210.899 52.98 210.569 51.81 209.939 50.79C209.279 49.77 208.409 48.96 207.299 48.39C206.159 47.82 204.929 47.52 203.579 47.52H196.019ZM203.699 57.27H200.069V51.36H203.699C204.689 51.36 205.469 51.66 206.039 52.23C206.609 52.8 206.909 53.49 206.909 54.3C206.909 55.14 206.609 55.83 206.039 56.4C205.469 57 204.689 57.27 203.699 57.27ZM213.936 47.52V69H217.866V47.52H213.936ZM222.272 68.07C223.292 69.03 224.642 69.48 226.262 69.48C227.222 69.48 228.092 69.3 228.842 68.91C229.592 68.55 230.192 68.04 230.672 67.44H230.912V69H234.782V59.58C234.782 57.51 234.152 55.92 232.952 54.84C231.722 53.76 229.952 53.22 227.612 53.22C226.292 53.22 225.062 53.49 223.952 54C222.812 54.54 221.882 55.26 221.162 56.22L223.682 58.2C224.102 57.66 224.672 57.24 225.332 56.91C225.992 56.58 226.712 56.4 227.432 56.4C228.482 56.4 229.322 56.67 229.952 57.18C230.582 57.72 230.912 58.38 230.912 59.22V59.88C229.772 59.43 228.422 59.19 226.862 59.19C225.722 59.19 224.672 59.4 223.742 59.82C222.782 60.24 222.062 60.84 221.522 61.62C220.982 62.4 220.712 63.3 220.712 64.32C220.712 65.88 221.222 67.11 222.272 68.07ZM229.892 65.34C229.232 66.06 228.332 66.42 227.192 66.42C226.352 66.42 225.722 66.24 225.302 65.85C224.852 65.46 224.642 64.95 224.642 64.32C224.642 62.82 225.662 62.04 227.702 62.04C228.812 62.04 229.892 62.28 230.912 62.76C230.912 63.75 230.552 64.62 229.892 65.34ZM242.876 68.28L239.606 75.48H243.836L253.286 53.7H248.906L245.096 63.21H244.856L240.896 53.7H236.426L242.876 68.28Z" fill="#588B8B"/>
<path d="M36.7245 33.4476C36.2591 34.0627 36 34.8192 36 35.6289V67.6755C36 68.4275 36.2243 69.134 36.6294 69.7242L54.0663 51.5364L36.7245 33.4476Z" fill="#588B8B"/>
<path d="M55.6625 49.8708L61.3193 43.9706L41.4352 32.4906C40.5722 31.9922 39.582 31.8741 38.6581 32.1338L55.6625 49.8708Z" fill="#588B8B"/>
<path d="M55.6624 53.2017L38.4861 71.1177C38.8564 71.2422 39.2397 71.3048 39.6232 71.3048C40.2454 71.3048 40.868 71.1411 41.435 70.8137L61.4622 59.251L55.6624 53.2017Z" fill="#588B8B"/>
<path d="M69.1876 48.5142L63.3744 45.1577L57.2588 51.5363L63.5171 58.0644L69.1876 54.7905C70.3224 54.1355 70.9998 52.9621 70.9998 51.6523C70.9998 50.3422 70.3224 49.1691 69.1876 48.5142Z" fill="#588B8B"/>
</svg>
