<svg width="35" height="40" viewBox="0 0 35 40" fill="none" xmlns="http://www.w3.org/2000/svg">
<path d="M0.724487 1.44763C0.259088 2.06267 0 2.81924 0 3.62889V35.6755C0 36.4275 0.224303 37.134 0.629429 37.7242L18.0663 19.5364L0.724487 1.44763Z" fill="#588B8B"/>
<path d="M19.6625 17.8708L25.3193 11.9706L5.43518 0.490612C4.57216 -0.00777317 3.58198 -0.125922 2.65808 0.133766L19.6625 17.8708Z" fill="#588B8B"/>
<path d="M19.6624 21.2017L2.48608 39.1177C2.85642 39.2422 3.23966 39.3048 3.62319 39.3048C4.24542 39.3048 4.86796 39.1411 5.43501 38.8137L25.4622 27.251L19.6624 21.2017Z" fill="#588B8B"/>
<path d="M33.1876 16.5142L27.3744 13.1577L21.2588 19.5363L27.5171 26.0644L33.1876 22.7905C34.3224 22.1355 34.9998 20.9621 34.9998 19.6523C34.9998 18.3422 34.3224 17.1691 33.1876 16.5142Z" fill="#588B8B"/>
</svg>
