<svg width="50" height="50" viewBox="0 0 50 50" fill="none" xmlns="http://www.w3.org/2000/svg">
<circle cx="25" cy="25" r="25" fill="#A45ED2"/>
<path d="M36.6701 22.0608L34.8452 21.7274C34.6551 21.0664 34.4107 20.4289 34.112 19.8206L35.1874 18.2003C35.6436 17.5101 35.573 16.5684 35.0136 15.9718L33.395 14.2287C33.0909 13.9012 32.689 13.7199 32.2599 13.7199C31.9231 13.7199 31.6027 13.831 31.3311 14.0416L29.8212 15.1997C29.2346 14.8663 28.6209 14.5914 27.9854 14.3867L27.6813 12.4447C27.5509 11.6083 26.8829 11 26.0953 11H23.8087C23.0212 11 22.3531 11.6083 22.2228 12.4447L21.9077 14.4335C21.2994 14.6382 20.7074 14.9072 20.1426 15.2348L18.6489 14.0767C18.3774 13.8661 18.0515 13.755 17.7148 13.755C17.2857 13.755 16.8783 13.9363 16.5796 14.2638L14.9556 16.0069C14.4016 16.6035 14.3256 17.5452 14.7818 18.2354L15.8681 19.879C15.5694 20.4932 15.3304 21.1308 15.1457 21.7917L13.3425 22.1193C12.5658 22.2597 12.001 22.9791 12.001 23.8272V26.2897C12.001 27.1379 12.5658 27.8573 13.3425 27.9977L15.1892 28.337C15.3793 28.9921 15.6291 29.6296 15.9333 30.2379L14.8633 31.8406C14.4071 32.5308 14.4777 33.4725 15.0371 34.0691L16.6556 35.8122C16.9598 36.1398 17.3617 36.3211 17.7908 36.3211C18.1275 36.3211 18.448 36.2099 18.7195 35.9994L20.2458 34.8295C20.7943 35.1395 21.37 35.3911 21.9621 35.5899L22.2662 37.5553C22.3966 38.3917 23.0646 39 23.8522 39H26.1442C26.9317 39 27.5998 38.3917 27.7302 37.5553L28.0397 35.5899C28.6535 35.3852 29.2455 35.122 29.8104 34.8003L31.3148 35.9584C31.5864 36.169 31.9123 36.2801 32.249 36.2801C32.6781 36.2801 33.08 36.0988 33.3842 35.7713L35.0027 34.0282C35.5567 33.4316 35.6328 32.4899 35.1765 31.7997L34.1011 30.1736C34.3998 29.5594 34.6497 28.9219 34.8343 28.2668L36.6593 27.9392C37.436 27.7988 38.0008 27.0794 38.0008 26.2313V23.7687C38.0117 22.9206 37.4468 22.2012 36.6701 22.0608ZM36.5452 26.2313C36.5452 26.3073 36.4963 26.3716 36.4257 26.3833L34.1446 26.7928C33.8567 26.8454 33.6286 27.0735 33.558 27.3718C33.3516 28.2317 33.0366 29.0564 32.6129 29.8226C32.4663 30.0917 32.4771 30.4251 32.6455 30.6825L33.9871 32.718C34.0251 32.7765 34.0196 32.8642 33.9708 32.9169L32.3522 34.6599C32.3142 34.7009 32.2762 34.7067 32.249 34.7067C32.2164 34.7067 32.1893 34.695 32.1676 34.6775L30.2829 33.2327C30.0493 33.0514 29.7343 33.0397 29.4845 33.1976C28.773 33.6539 28.0071 33.9931 27.2087 34.2154C26.9263 34.2914 26.7145 34.5429 26.671 34.8471L26.2854 37.3037C26.2745 37.3798 26.2148 37.4324 26.1442 37.4324H23.8576C23.787 37.4324 23.7272 37.3798 23.7164 37.3037L23.3362 34.8471C23.2873 34.5371 23.0755 34.2914 22.7985 34.2154C22.0218 33.999 21.2723 33.6656 20.5716 33.2327C20.4576 33.1625 20.3272 33.1274 20.2023 33.1274C20.0557 33.1274 19.9036 33.1742 19.7787 33.2737L17.8777 34.7301C17.8505 34.7477 17.8234 34.7593 17.7962 34.7593C17.7745 34.7593 17.731 34.7535 17.693 34.7126L16.0745 32.9695C16.0256 32.9169 16.0202 32.835 16.0582 32.7706L17.3943 30.7527C17.5627 30.4953 17.5735 30.156 17.4269 29.887C17.0032 29.1266 16.6774 28.3019 16.471 27.442C16.3949 27.1437 16.1668 26.9156 15.8844 26.863L13.5869 26.4418C13.5163 26.4301 13.4674 26.3658 13.4674 26.2897V23.8272C13.4674 23.7512 13.5163 23.6869 13.5869 23.6752L15.8518 23.2657C16.1397 23.2131 16.3732 22.985 16.4438 22.6808C16.6448 21.821 16.9544 20.9904 17.3726 20.2241C17.5192 19.9551 17.5029 19.6217 17.3346 19.3702L15.9822 17.323C15.9441 17.2645 15.9496 17.1767 15.9984 17.1241L17.617 15.381C17.655 15.3401 17.693 15.3342 17.7202 15.3342C17.7528 15.3342 17.7799 15.3459 17.8017 15.3635L19.6755 16.8024C19.9144 16.9837 20.2295 16.9954 20.4793 16.8375C21.1854 16.3812 21.9512 16.0303 22.7496 15.808C23.0266 15.7261 23.2384 15.4805 23.2873 15.1763L23.6784 12.7021C23.6892 12.6261 23.749 12.5734 23.8196 12.5734H26.1062C26.1768 12.5734 26.2365 12.6261 26.2474 12.7021L26.6276 15.1412C26.6765 15.4512 26.8883 15.7027 27.1707 15.7788C27.9909 16.001 28.773 16.3461 29.5008 16.8082C29.7506 16.9662 30.0602 16.9545 30.2992 16.7731L32.173 15.3225C32.2001 15.305 32.2273 15.2933 32.2545 15.2933C32.2762 15.2933 32.3196 15.2991 32.3577 15.3401L33.9762 17.0831C34.0251 17.1358 34.0305 17.2177 33.9925 17.282L32.6509 19.3117C32.4826 19.5632 32.4717 19.9024 32.6184 20.1715C33.042 20.9377 33.357 21.7625 33.5634 22.6223C33.634 22.9265 33.8676 23.1546 34.15 23.2014L36.4312 23.6167C36.5018 23.6284 36.5507 23.6927 36.5507 23.7687V26.2313H36.5452Z" fill="white"/>
<path d="M25.0041 18.9551C21.9083 18.9551 19.3936 21.6632 19.3936 24.9973C19.3936 28.3313 21.9083 31.0395 25.0041 31.0395C28.1 31.0395 30.6147 28.3313 30.6147 24.9973C30.6147 21.6632 28.1 18.9551 25.0041 18.9551ZM25.0041 29.4602C22.7175 29.4602 20.86 27.4598 20.86 24.9973C20.86 22.5348 22.7175 20.5344 25.0041 20.5344C27.2907 20.5344 29.1483 22.5348 29.1483 24.9973C29.1483 27.4598 27.2907 29.4602 25.0041 29.4602Z" fill="white"/>
</svg>
