<svg width="17" height="13" viewBox="0 0 17 13" fill="none" xmlns="http://www.w3.org/2000/svg">
<path d="M16.0557 1.62732C15.4963 1.87522 14.896 2.04333 14.2653 2.11839C14.9093 1.73275 15.4022 1.12108 15.6359 0.394455C15.0318 0.751581 14.365 1.0109 13.6545 1.15148C13.0856 0.544542 12.2763 0.166504 11.3787 0.166504C9.65673 0.166504 8.26048 1.56275 8.26048 3.28382C8.26048 3.52792 8.28803 3.76633 8.34123 3.9943C5.75012 3.86416 3.45251 2.62275 1.91475 0.736381C1.64594 1.19611 1.49302 1.73178 1.49302 2.3036C1.49302 3.38546 2.04392 4.34003 2.87978 4.8985C2.36876 4.88142 1.88815 4.74084 1.46739 4.50718V4.54612C1.46739 6.05634 2.54259 7.31675 3.96827 7.60361C3.70706 7.6739 3.43162 7.71284 3.14667 7.71284C2.94532 7.71284 2.7506 7.6929 2.55968 7.6549C2.95669 8.89442 4.1079 9.79579 5.47185 9.82051C4.40519 10.6564 3.06024 11.1531 1.59942 11.1531C1.34773 11.1531 1.09981 11.1379 0.855713 11.1104C2.23581 11.9966 3.87426 12.5133 5.63523 12.5133C11.3712 12.5133 14.5066 7.76224 14.5066 3.64192L14.4961 3.23825C15.1087 2.8013 15.6387 2.25231 16.0557 1.62732Z" fill="#464855"/>
</svg>
