<svg width="50" height="50" viewBox="0 0 50 50" fill="none" xmlns="http://www.w3.org/2000/svg">
<circle cx="25" cy="25" r="25" fill="#8AC541"/>
<path d="M35.8404 32.8344L31.7007 30.403C31.3103 30.1734 31.0676 29.7121 31.0676 29.199V27.4777C31.1669 27.3352 31.2713 27.1728 31.3792 26.9936C31.9161 26.1027 32.3464 25.111 32.6593 24.0414C33.2707 23.712 33.6676 23.0018 33.6676 22.2V20.1636C33.6676 19.6734 33.5116 19.1984 33.2343 18.8273V16.1194C33.2586 15.8394 33.3539 14.1727 32.3278 12.7976C31.4377 11.6048 29.9934 11 28.0343 11C26.0752 11 24.6309 11.6048 23.7408 12.7971C23.119 13.6305 22.9097 14.5692 22.8464 15.2433C22.1037 14.7922 21.2284 14.5636 20.2343 14.5636C15.7324 14.5636 15.4702 19.0716 15.4676 19.1455V21.4766C15.1868 21.836 15.0343 22.2509 15.0343 22.6628V24.4212C15.0343 24.9705 15.2436 25.4826 15.6024 25.8288C15.9599 27.4121 16.8391 28.6084 17.1815 29.0284V30.4249C17.1815 30.8255 16.996 31.1931 16.674 31.3998L13.7911 33.5242C12.6869 34.2319 12.001 35.5896 12.001 37.067V39H18.0676H18.9343H38.001V36.9417C38.001 35.1915 37.1729 33.6174 35.8404 32.8344ZM18.0676 36.8425V37.9818H12.8676V37.067C12.8676 35.9623 13.3807 34.9471 14.2287 34.4029L17.1113 32.2785C17.6889 31.9084 18.0477 31.1987 18.0477 30.4249V28.5967L17.9099 28.4455C17.8986 28.4333 16.7473 27.1555 16.4071 25.4139L16.3677 25.2123L16.2195 25.1003C16.0201 24.9486 15.901 24.6945 15.901 24.4212V22.6628C15.901 22.4795 16.0071 22.2616 16.1917 22.0651L16.3343 21.9139L16.3334 19.175C16.3412 19.0289 16.567 15.5818 20.2343 15.5818C21.2713 15.5818 22.1444 15.8633 22.8343 16.4188V18.8273C22.557 19.1984 22.401 19.6734 22.401 20.1636V22.2C22.401 22.3548 22.4161 22.507 22.4447 22.6546C22.4564 22.7137 22.4798 22.7676 22.4959 22.8247C22.5197 22.9102 22.5388 22.9983 22.5721 23.0792C22.5726 23.0802 22.573 23.0807 22.5734 23.0817C22.6844 23.3505 22.846 23.5908 23.0497 23.7828C23.0518 23.7924 23.0544 23.8011 23.0566 23.8103C23.0826 23.9268 23.1099 24.0429 23.1394 24.1564L23.1745 24.2893C23.1805 24.3127 23.1879 24.3367 23.1944 24.3601C23.2096 24.4151 23.2243 24.4695 23.2399 24.5235C23.2659 24.6126 23.2932 24.7047 23.3248 24.805C23.3383 24.8468 23.353 24.8844 23.3669 24.9257C23.4024 25.0321 23.4379 25.1349 23.4752 25.2367C23.4843 25.2612 23.4921 25.2876 23.5012 25.3116L23.5255 25.3757C23.5367 25.4052 23.5484 25.4317 23.5597 25.4607C23.6022 25.5697 23.6438 25.6751 23.6871 25.7769C23.694 25.7932 23.7005 25.811 23.7075 25.8273C23.7348 25.8909 23.7621 25.951 23.7894 26.0121C23.8362 26.1169 23.8821 26.2157 23.928 26.3114C23.9506 26.3583 23.9727 26.4041 23.9948 26.4484C24.0572 26.5736 24.1165 26.6887 24.1742 26.7956C24.1867 26.8185 24.1989 26.8424 24.211 26.8643C24.3159 27.0552 24.4069 27.21 24.4823 27.3306C24.5022 27.3627 24.5195 27.3902 24.5364 27.4172C24.546 27.4319 24.559 27.4533 24.5672 27.4665V29.1511C24.5672 29.6439 24.3384 30.096 23.9705 30.3322L22.8239 31.0668L22.6241 31.046L22.5427 31.2471L20.1047 32.8095C18.8481 33.6159 18.0676 35.1604 18.0676 36.8425ZM37.1343 37.9818H18.9343V36.8425C18.9343 35.5336 19.5418 34.3306 20.5199 33.7044L24.3856 31.2272C25.0326 30.8123 25.4343 30.0166 25.4343 29.1516V27.1061V27.1056L25.3502 26.9875L25.3338 26.9646C25.3329 26.9631 25.306 26.9249 25.2623 26.8577C25.2597 26.8536 25.2571 26.8495 25.254 26.8455C25.2311 26.8103 25.2042 26.7681 25.1734 26.7177C25.173 26.7167 25.1726 26.7161 25.1721 26.7151C25.1076 26.6097 25.0265 26.4728 24.9364 26.3079C24.9342 26.3043 24.9325 26.3002 24.9303 26.2967C24.8879 26.2188 24.8428 26.1337 24.7969 26.0436C24.7934 26.037 24.7899 26.0304 24.7865 26.0233C24.6885 25.8303 24.5845 25.6119 24.481 25.3701C24.481 25.3701 24.4805 25.3696 24.4805 25.3691C24.4255 25.2393 24.3705 25.1028 24.3167 24.9608C24.3094 24.9409 24.3016 24.9216 24.2942 24.9017C24.2704 24.8381 24.2465 24.7714 24.2223 24.7027C24.2136 24.6777 24.2049 24.6518 24.1963 24.6263C24.1737 24.5596 24.1508 24.4924 24.1265 24.4156C24.0823 24.2771 24.0407 24.1325 24.0008 23.9833L23.977 23.8927C23.9744 23.8825 23.9714 23.8724 23.9688 23.8617C23.928 23.7008 23.889 23.5364 23.8561 23.3673L23.8167 23.1657L23.6689 23.0537C23.4176 22.8633 23.2676 22.5441 23.2676 22.2V20.1636C23.2676 19.878 23.3708 19.6118 23.558 19.4127L23.701 19.2615V16.0909V15.9107L23.6893 15.9C23.6745 15.5324 23.6932 14.4058 24.3926 13.4686C25.1106 12.5059 26.3361 12.0182 28.0343 12.0182C29.7265 12.0182 30.9493 12.5023 31.6682 13.4579C32.5119 14.5784 32.3724 16.012 32.3715 16.0242L32.3676 19.2615L32.5106 19.4132C32.6978 19.6118 32.801 19.878 32.801 20.1636V22.2C32.801 22.6444 32.5531 23.0334 32.1848 23.1668L31.969 23.2447L31.8996 23.4967C31.6097 24.5561 31.1968 25.5345 30.6716 26.4051C30.5429 26.6194 30.4176 26.8093 30.3089 26.9544L30.201 27.099V29.199C30.201 30.1001 30.6269 30.91 31.3129 31.3132L35.4525 33.7447C36.4899 34.354 37.1343 35.5789 37.1343 36.9417V37.9818Z" fill="white"/>
</svg>
