<svg width="413" height="237" viewBox="0 0 413 237" fill="none" xmlns="http://www.w3.org/2000/svg">
<path d="M169.4 3.56445V42.1024L258.896 128.731V175.832" stroke="#588B8B"/>
<path d="M112.928 2.01855L112.928 92.2699H159.548V141.348L187.111 169.016" stroke="#588B8B"/>
<path d="M209.037 166.833V134.553L179.091 105.567H159.354" stroke="#588B8B"/>
<path d="M144.913 2.16016V49.9209L234.75 137.537V169.817" stroke="#588B8B"/>
<path d="M-0.511719 9.15918L56.3169 9.15918L56.3169 46.3796" stroke="#588B8B"/>
<path d="M90.9008 2.10352V81.8145H29.3081L68.4416 119.694L133.777 119.694" stroke="#588B8B"/>
<path d="M198.919 1.91992V12.7896L231.247 43.7517V1.91992" stroke="#588B8B"/>
<path d="M252.845 71.2842V33.7344H285.853V107.516" stroke="#588B8B"/>
<path d="M269.263 34.0645V62.7209" stroke="#588B8B"/>
<path d="M281.005 2.19922L311.291 30.1969V105.955L275.561 140.541V182.702" stroke="#588B8B"/>
<path d="M389.099 2.47852V34.0994L354.39 2.47852V66.3791" stroke="#588B8B"/>
<path d="M412.191 74.876H382.586L293.089 162.492V198.066" stroke="#588B8B"/>
<path d="M412.789 105.211H397.136L332.821 167.465V188.545L310.021 210.943" stroke="#588B8B"/>
<path d="M413 148.389H385.777V186.927H349.026L325.886 209.984V236.005" stroke="#588B8B"/>
<path d="M-1 130.857L19.0772 149.632H110.275L143.964 181.912" stroke="#588B8B"/>
<path d="M-0.466309 91.4531L26.757 119.451" stroke="#588B8B"/>
<ellipse rx="4.282" ry="4.42378" transform="matrix(0 1 1 0 55.5585 48.4539)" fill="#588B8B"/>
<ellipse rx="4.282" ry="4.42378" transform="matrix(0 1 1 0 26.7031 119.499)" fill="#588B8B"/>
<ellipse rx="4.282" ry="4.42378" transform="matrix(0 1 1 0 133.554 119.88)" fill="#588B8B"/>
<ellipse rx="4.282" ry="4.42378" transform="matrix(0 1 1 0 112.838 5.282)" fill="#588B8B"/>
<ellipse rx="4.282" ry="4.42378" transform="matrix(0 1 1 0 145.367 49.282)" fill="#588B8B"/>
<ellipse rx="4.282" ry="4.42378" transform="matrix(0 1 1 0 199.581 5.282)" fill="#588B8B"/>
<ellipse rx="4.282" ry="4.42378" transform="matrix(0 1 1 0 389.824 4.282)" fill="#588B8B"/>
<ellipse rx="4.282" ry="4.42378" transform="matrix(0 1 1 0 269.209 62.3914)" fill="#588B8B"/>
<ellipse rx="4.282" ry="4.42378" transform="matrix(0 1 1 0 326.595 5.282)" fill="#588B8B"/>
<ellipse rx="4.282" ry="4.42378" transform="matrix(0 1 1 0 354.269 65.9871)" fill="#588B8B"/>
<ellipse rx="4.282" ry="4.42378" transform="matrix(0 1 1 0 284.687 108.559)" fill="#588B8B"/>
<ellipse rx="4.282" ry="4.42378" transform="matrix(0 1 1 0 234.772 169.648)" fill="#588B8B"/>
<ellipse rx="4.282" ry="4.42378" transform="matrix(0 1 1 0 208.92 166.921)" fill="#588B8B"/>
<ellipse rx="4.282" ry="4.42378" transform="matrix(0 1 1 0 186.451 169.475)" fill="#588B8B"/>
<ellipse rx="4.282" ry="4.42378" transform="matrix(0 1 1 0 252.155 72.8699)" fill="#588B8B"/>
</svg>
