<svg width="1392" height="365" viewBox="0 0 1392 365" fill="none" xmlns="http://www.w3.org/2000/svg">
<path d="M251.374 360.841V302.341L382.874 170.841V99.3408" stroke="#464855"/>
<path d="M1033.37 352.841V294.341L1164.87 162.841V91.3408" stroke="#464855"/>
<path d="M168.396 363.188V226.188H236.896V151.688L277.396 109.688" stroke="#464855"/>
<path d="M950.396 355.188V218.188H1018.9V143.688L1059.4 101.688" stroke="#464855"/>
<path d="M309.614 113.002V162.002L265.614 206.002H236.614" stroke="#464855"/>
<path d="M1091.61 105.002V154.002L1047.61 198.002H1018.61" stroke="#464855"/>
<path d="M215.395 362.972V290.472L347.395 157.472V108.472" stroke="#464855"/>
<path d="M997.395 354.972V282.472L1129.39 149.472V100.472" stroke="#464855"/>
<path d="M1.71777 352.349H85.2178V295.849" stroke="#464855"/>
<path d="M783.718 344.349H867.218V287.849" stroke="#464855"/>
<path d="M136.033 363.058V242.058H45.5332L103.033 184.558L199.033 184.558" stroke="#464855"/>
<path d="M918.033 355.058V234.058H827.533L885.033 176.558L981.033 176.558" stroke="#464855"/>
<path d="M294.747 363.336V346.836L342.247 299.836V363.336" stroke="#464855"/>
<path d="M294.747 363.336V346.836L342.247 299.836V363.336" stroke="#464855"/>
<path d="M615 359.377V342.877L662.5 295.877V359.377" stroke="#464855"/>
<path d="M1076.75 355.336V338.836L1124.25 291.836V355.336" stroke="#464855"/>
<path d="M373.981 258.042V315.042H422.481V203.042" stroke="#464855"/>
<path d="M373.981 258.042V315.042H422.481V203.042" stroke="#464855"/>
<path d="M694.234 254.083V311.083H742.734V199.083" stroke="#464855"/>
<path d="M637.514 155.083V212.083H686.014V100.083" stroke="#464855"/>
<path d="M1155.98 250.042V307.042H1204.48V195.042" stroke="#464855"/>
<path d="M398.105 314.543V271.043" stroke="#464855"/>
<path d="M718.358 310.584V267.084" stroke="#464855"/>
<path d="M661.638 211.584V168.084" stroke="#464855"/>
<path d="M1180.11 306.543V263.043" stroke="#464855"/>
<path d="M415.359 362.912L459.859 320.412V205.412L407.359 152.912V88.9121" stroke="#464855"/>
<path d="M1197.36 354.912L1241.86 312.412V197.412L1189.36 144.912V80.9121" stroke="#464855"/>
<path d="M574.185 362.489V314.489L523.185 362.489V265.489" stroke="#464855"/>
<path d="M1356.18 354.489V306.489L1305.18 354.489V257.489" stroke="#464855"/>
<path d="M608.114 252.591L564.614 252.591L433.114 119.591V65.5913" stroke="#464855"/>
<path d="M1390.11 244.591L1346.61 244.591L1215.11 111.591V57.5913" stroke="#464855"/>
<path d="M608.993 206.544H585.993L491.493 112.044V80.0439L457.993 46.0439" stroke="#464855"/>
<path d="M1390.99 198.544H1367.99L1273.49 104.044V72.0439L1239.99 38.0439" stroke="#464855"/>
<path d="M609.303 141H569.303V82.5H515.303L481.303 47.5V8" stroke="#464855"/>
<path d="M1391.3 133H1351.3V74.5H1297.3L1263.3 39.5V0" stroke="#464855"/>
<path d="M1 167.611L30.5 139.111H164.5L214 90.1113" stroke="#464855"/>
<path d="M783 159.611L812.5 131.111H946.5L996 82.1113" stroke="#464855"/>
<path d="M1.78418 227.427L41.7842 184.927" stroke="#464855"/>
<path d="M783.784 219.427L823.784 176.927" stroke="#464855"/>
<circle cx="84.1025" cy="292.699" r="6.5" transform="rotate(-90 84.1025 292.699)" fill="#464855"/>
<circle cx="866.103" cy="284.699" r="6.5" transform="rotate(-90 866.103 284.699)" fill="#464855"/>
<circle cx="41.7051" cy="184.854" r="6.5" transform="rotate(-90 41.7051 184.854)" fill="#464855"/>
<circle cx="823.705" cy="176.854" r="6.5" transform="rotate(-90 823.705 176.854)" fill="#464855"/>
<circle cx="198.704" cy="184.276" r="6.5" transform="rotate(-90 198.704 184.276)" fill="#464855"/>
<circle cx="980.704" cy="176.276" r="6.5" transform="rotate(-90 980.704 176.276)" fill="#464855"/>
<circle cx="398.026" cy="271.543" r="6.5" transform="rotate(-90 398.026 271.543)" fill="#464855"/>
<circle cx="398.026" cy="271.543" r="6.5" transform="rotate(-90 398.026 271.543)" fill="#464855"/>
<circle cx="718.279" cy="267.584" r="6.5" transform="rotate(-90 718.279 267.584)" fill="#464855"/>
<circle cx="661.559" cy="168.584" r="6.5" transform="rotate(-90 661.559 168.584)" fill="#464855"/>
<circle cx="1180.03" cy="263.543" r="6.5" transform="rotate(-90 1180.03 263.543)" fill="#464855"/>
<circle cx="482.346" cy="358.233" r="6.5" transform="rotate(-90 482.346 358.233)" fill="#464855"/>
<circle cx="1264.35" cy="350.233" r="6.5" transform="rotate(-90 1264.35 350.233)" fill="#464855"/>
<circle cx="523.008" cy="266.083" r="6.5" transform="rotate(-90 523.008 266.083)" fill="#464855"/>
<circle cx="1305.01" cy="258.083" r="6.5" transform="rotate(-90 1305.01 258.083)" fill="#464855"/>
<circle cx="420.769" cy="201.459" r="6.5" transform="rotate(-90 420.769 201.459)" fill="#464855"/>
<circle cx="420.769" cy="201.459" r="6.5" transform="rotate(-90 420.769 201.459)" fill="#464855"/>
<circle cx="741.021" cy="197.5" r="6.5" transform="rotate(-90 741.021 197.5)" fill="#464855"/>
<circle cx="684.301" cy="98.5" r="6.5" transform="rotate(-90 684.301 98.5)" fill="#464855"/>
<circle cx="1202.77" cy="193.459" r="6.5" transform="rotate(-90 1202.77 193.459)" fill="#464855"/>
<circle cx="347.427" cy="108.729" r="6.5" transform="rotate(-90 347.427 108.729)" fill="#464855"/>
<circle cx="1129.43" cy="100.729" r="6.5" transform="rotate(-90 1129.43 100.729)" fill="#464855"/>
<circle cx="309.442" cy="112.868" r="6.5" transform="rotate(-90 309.442 112.868)" fill="#464855"/>
<circle cx="1091.44" cy="104.868" r="6.5" transform="rotate(-90 1091.44 104.868)" fill="#464855"/>
<circle cx="276.428" cy="108.99" r="6.5" transform="rotate(-90 276.428 108.99)" fill="#464855"/>
<circle cx="1058.43" cy="100.99" r="6.5" transform="rotate(-90 1058.43 100.99)" fill="#464855"/>
<circle cx="372.968" cy="255.635" r="6.5" transform="rotate(-90 372.968 255.635)" fill="#464855"/>
<circle cx="372.968" cy="255.635" r="6.5" transform="rotate(-90 372.968 255.635)" fill="#464855"/>
<circle cx="693.221" cy="251.676" r="6.5" transform="rotate(-90 693.221 251.676)" fill="#464855"/>
<circle cx="636.5" cy="152.676" r="6.5" transform="rotate(-90 636.5 152.676)" fill="#464855"/>
<circle cx="1154.97" cy="247.635" r="6.5" transform="rotate(-90 1154.97 247.635)" fill="#464855"/>
</svg>
