<svg width="414" height="219" viewBox="0 0 414 219" fill="none" xmlns="http://www.w3.org/2000/svg">
<path d="M166.87 -14.4355V24.1024L257.663 110.731V157.832" stroke="#588B8B"/>
<path d="M109.579 -15.9814L109.579 74.2699H156.874V123.348L184.837 151.016" stroke="#588B8B"/>
<path d="M207.081 148.833V116.553L176.702 87.5671H156.679" stroke="#588B8B"/>
<path d="M142.028 -15.8398V31.9209L233.167 119.537V151.817" stroke="#588B8B"/>
<path d="M-5.50439 -8.84106L52.1478 -8.84106L52.1478 28.3794" stroke="#588B8B"/>
<path d="M87.2329 -15.8962V63.8148H24.7476L64.4482 101.694L130.731 101.694" stroke="#588B8B"/>
<path d="M196.816 -16.0796V-5.20991L229.613 25.7522V-16.0796" stroke="#588B8B"/>
<path d="M251.523 53.2847V15.7349L285.01 15.7349V89.517" stroke="#588B8B"/>
<path d="M268.18 16.064V44.7204" stroke="#588B8B"/>
<path d="M280.092 -15.8003L310.817 12.1974V87.9558L274.569 122.541V164.702" stroke="#588B8B"/>
<path d="M389.753 -15.5217V16.0992L354.54 -15.5217V48.3788" stroke="#588B8B"/>
<path d="M413.18 56.8757L383.145 56.8757L292.352 144.492V180.065" stroke="#588B8B"/>
<path d="M413.787 87.2104H397.906L332.659 149.464V170.545L309.529 192.943" stroke="#588B8B"/>
<path d="M414 130.389H386.382V168.927H349.098L325.623 191.984V218.005" stroke="#588B8B"/>
<path d="M-6 112.858L14.3681 131.633H106.888L141.065 163.912" stroke="#588B8B"/>
<path d="M-5.4585 73.4531L22.1593 101.451" stroke="#588B8B"/>
<ellipse rx="4.282" ry="4.4879" transform="matrix(0 1 1 0 51.378 30.4541)" fill="#588B8B"/>
<ellipse rx="4.282" ry="4.4879" transform="matrix(0 1 1 0 22.1046 101.499)" fill="#588B8B"/>
<ellipse rx="4.282" ry="4.4879" transform="matrix(0 1 1 0 130.504 101.88)" fill="#588B8B"/>
<ellipse rx="4.282" ry="4.4879" transform="matrix(0 1 1 0 268.125 44.3906)" fill="#588B8B"/>
<ellipse rx="4.282" ry="4.4879" transform="matrix(0 1 1 0 354.418 47.9876)" fill="#588B8B"/>
<ellipse rx="4.282" ry="4.4879" transform="matrix(0 1 1 0 283.828 90.5601)" fill="#588B8B"/>
<ellipse rx="4.282" ry="4.4879" transform="matrix(0 1 1 0 233.189 151.648)" fill="#588B8B"/>
<ellipse rx="4.282" ry="4.4879" transform="matrix(0 1 1 0 206.963 148.921)" fill="#588B8B"/>
<ellipse rx="4.282" ry="4.4879" transform="matrix(0 1 1 0 184.168 151.476)" fill="#588B8B"/>
<ellipse rx="4.282" ry="4.4879" transform="matrix(0 1 1 0 250.824 54.8706)" fill="#588B8B"/>
</svg>
