<svg width="1392" height="261" viewBox="0 0 1392 261" fill="none" xmlns="http://www.w3.org/2000/svg">
<path d="M251.374 -83.2856V-27.4696L382.874 97.9973V166.217" stroke="#588B8B"/>
<path d="M1033.37 -75.6528V-19.8368L1164.87 105.63V173.85" stroke="#588B8B"/>
<path d="M168.396 -85.5249V45.1897H236.896V116.272L277.396 156.345" stroke="#588B8B"/>
<path d="M950.396 -77.8918V52.8227H1018.9V123.905L1059.4 163.978" stroke="#588B8B"/>
<path d="M309.614 153.182V106.43L265.614 64.449H236.614" stroke="#588B8B"/>
<path d="M1091.61 160.815V114.063L1047.61 72.082H1018.61" stroke="#588B8B"/>
<path d="M215.395 -85.3193V-16.1456L347.395 110.753V157.504" stroke="#588B8B"/>
<path d="M997.395 -77.6865V-8.51276L1129.39 118.385V165.137" stroke="#588B8B"/>
<path d="M136.033 -85.4014V30.0473L45.5332 30.0473L103.033 84.9092H199.033" stroke="#588B8B"/>
<path d="M918.033 -77.7683V37.6803L827.533 37.6803L885.033 92.5423H981.033" stroke="#588B8B"/>
<path d="M373.981 14.7963V-39.5886L422.481 -39.5886V67.2729" stroke="#588B8B"/>
<path d="M373.981 14.7963V-39.5886L422.481 -39.5886V67.2729" stroke="#588B8B"/>
<path d="M694.234 18.5739V-35.811L742.734 -35.811V71.0505" stroke="#588B8B"/>
<path d="M637.514 113.032V58.647L686.014 58.647V165.509" stroke="#588B8B"/>
<path d="M1155.98 22.4293V-31.9556L1204.48 -31.9556V74.906" stroke="#588B8B"/>
<path d="M398.105 -39.1123V2.39196" stroke="#588B8B"/>
<path d="M718.358 -35.3347V6.16954" stroke="#588B8B"/>
<path d="M661.638 59.1233V100.628" stroke="#588B8B"/>
<path d="M1180.11 -31.4792V10.025" stroke="#588B8B"/>
<path d="M415.359 -85.262L459.859 -44.7118V65.0121L407.359 115.103V176.167" stroke="#588B8B"/>
<path d="M1197.36 -77.6292L1241.86 -37.079V72.6449L1189.36 122.736V183.8" stroke="#588B8B"/>
<path d="M574.185 -84.8584V-39.0606L523.185 -84.8584V7.69133" stroke="#588B8B"/>
<path d="M1356.18 -77.2256V-31.4278L1305.18 -77.2256V15.3241" stroke="#588B8B"/>
<path d="M608.114 19.9973L564.614 19.9973L433.114 146.895V198.418" stroke="#588B8B"/>
<path d="M1390.11 27.6301L1346.61 27.6301L1215.11 154.528V206.051" stroke="#588B8B"/>
<path d="M608.993 63.9321H585.993L491.493 154.097V184.628L457.993 217.069" stroke="#588B8B"/>
<path d="M1390.99 71.5652H1367.99L1273.49 161.73V192.261L1239.99 224.702" stroke="#588B8B"/>
<path d="M609.303 126.469H569.303V182.285H515.303L481.303 215.679V253.367" stroke="#588B8B"/>
<path d="M1391.3 134.102H1351.3V189.918H1297.3L1263.3 223.312V261" stroke="#588B8B"/>
<path d="M1 101.078L30.5 128.271H164.5L214 175.023" stroke="#588B8B"/>
<path d="M783 108.711L812.5 135.904H946.5L996 182.656" stroke="#588B8B"/>
<path d="M1.78418 44.0068L41.7842 84.557" stroke="#588B8B"/>
<path d="M783.784 51.6396L823.784 92.1898" stroke="#588B8B"/>
<ellipse rx="6.20179" ry="6.5" transform="matrix(0 1 1 0 41.7051 84.6268)" fill="#588B8B"/>
<ellipse rx="6.20179" ry="6.5" transform="matrix(0 1 1 0 823.705 92.2599)" fill="#588B8B"/>
<ellipse rx="6.20179" ry="6.5" transform="matrix(0 1 1 0 198.704 85.1781)" fill="#588B8B"/>
<ellipse rx="6.20179" ry="6.5" transform="matrix(0 1 1 0 980.704 92.8112)" fill="#588B8B"/>
<ellipse rx="6.20179" ry="6.5" transform="matrix(0 1 1 0 398.026 1.91492)" fill="#588B8B"/>
<ellipse rx="6.20179" ry="6.5" transform="matrix(0 1 1 0 398.026 1.91492)" fill="#588B8B"/>
<ellipse rx="6.20179" ry="6.5" transform="matrix(0 1 1 0 718.279 5.69226)" fill="#588B8B"/>
<ellipse rx="6.20179" ry="6.5" transform="matrix(0 1 1 0 661.559 100.15)" fill="#588B8B"/>
<ellipse rx="6.20179" ry="6.5" transform="matrix(0 1 1 0 1180.03 9.54773)" fill="#588B8B"/>
<ellipse rx="6.20179" ry="6.5" transform="matrix(0 1 1 0 523.008 7.12415)" fill="#588B8B"/>
<ellipse rx="6.20179" ry="6.5" transform="matrix(0 1 1 0 1305.01 14.7572)" fill="#588B8B"/>
<ellipse rx="6.20179" ry="6.5" transform="matrix(0 1 1 0 420.769 68.7836)" fill="#588B8B"/>
<ellipse rx="6.20179" ry="6.5" transform="matrix(0 1 1 0 420.769 68.7836)" fill="#588B8B"/>
<ellipse rx="6.20179" ry="6.5" transform="matrix(0 1 1 0 741.021 72.5612)" fill="#588B8B"/>
<ellipse rx="6.20179" ry="6.5" transform="matrix(0 1 1 0 684.301 167.019)" fill="#588B8B"/>
<ellipse rx="6.20179" ry="6.5" transform="matrix(0 1 1 0 1202.77 76.4166)" fill="#588B8B"/>
<ellipse rx="6.20179" ry="6.5" transform="matrix(0 1 1 0 347.427 157.26)" fill="#588B8B"/>
<ellipse rx="6.20179" ry="6.5" transform="matrix(0 1 1 0 1129.43 164.893)" fill="#588B8B"/>
<ellipse rx="6.20179" ry="6.5" transform="matrix(0 1 1 0 309.442 153.31)" fill="#588B8B"/>
<ellipse rx="6.20179" ry="6.5" transform="matrix(0 1 1 0 1091.44 160.943)" fill="#588B8B"/>
<ellipse rx="6.20179" ry="6.5" transform="matrix(0 1 1 0 276.428 157.011)" fill="#588B8B"/>
<ellipse rx="6.20179" ry="6.5" transform="matrix(0 1 1 0 1058.43 164.644)" fill="#588B8B"/>
<ellipse rx="6.20179" ry="6.5" transform="matrix(0 1 1 0 372.968 17.0929)" fill="#588B8B"/>
<ellipse rx="6.20179" ry="6.5" transform="matrix(0 1 1 0 372.968 17.0929)" fill="#588B8B"/>
<ellipse rx="6.20179" ry="6.5" transform="matrix(0 1 1 0 693.221 20.8705)" fill="#588B8B"/>
<ellipse rx="6.20179" ry="6.5" transform="matrix(0 1 1 0 636.5 115.328)" fill="#588B8B"/>
<ellipse rx="6.20179" ry="6.5" transform="matrix(0 1 1 0 1154.97 24.726)" fill="#588B8B"/>
</svg>
